<?xml version="1.0" encoding="UTF-8" standalone="no"?>
<svg
   xmlns:dc="http://purl.org/dc/elements/1.1/"
   xmlns:cc="http://creativecommons.org/ns#"
   xmlns:rdf="http://www.w3.org/1999/02/22-rdf-syntax-ns#"
   xmlns:svg="http://www.w3.org/2000/svg"
   xmlns="http://www.w3.org/2000/svg"
   xmlns:xlink="http://www.w3.org/1999/xlink"
   xmlns:sodipodi="http://sodipodi.sourceforge.net/DTD/sodipodi-0.dtd"
   xmlns:inkscape="http://www.inkscape.org/namespaces/inkscape"
   width="1920"
   height="1080"
   viewBox="0 0 1920 1080"
   version="1.1"
   id="svg8"
   inkscape:version="1.0.2 (1.0.2+r75+1)"
   sodipodi:docname="defense-sf-pref-4.svg">
  <defs
     id="defs2">
    <clipPath
       id="p2343a3e18f">
      <rect
         height="89.627899"
         width="90.039131"
         x="138.81696"
         y="82.432899"
         id="rect7282" />
    </clipPath>
    <clipPath
       id="clipPath8969">
      <rect
         height="89.627899"
         width="90.039131"
         x="138.81696"
         y="82.432899"
         id="rect8967" />
    </clipPath>
    <path
       d="m 9.8125,72.90625 h 46.09375 v -8.3125 H 19.671875 V 43.015625 h 34.71875 V 34.71875 H 19.671875 V 8.296875 H 56.78125 V 0 H 9.8125 Z"
       id="DejaVuSans-69" />
    <path
       d="M 19.671875,64.796875 V 37.40625 h 12.40625 q 6.890625,0 10.640625,3.5625 3.765625,3.5625 3.765625,10.15625 0,6.546875 -3.765625,10.109375 -3.75,3.5625 -10.640625,3.5625 z M 9.8125,72.90625 h 22.265625 q 12.265625,0 18.53125,-5.546875 6.28125,-5.546875 6.28125,-16.234375 0,-10.796875 -6.28125,-16.3125 -6.265625,-5.515625 -18.53125,-5.515625 H 19.671875 V 0 H 9.8125 Z"
       id="DejaVuSans-80" />
    <path
       d="M 31,75.875 Q 24.46875,64.65625 21.28125,53.65625 18.109375,42.671875 18.109375,31.390625 18.109375,20.125 21.3125,9.0625 24.515625,-2 31,-13.1875 H 23.1875 Q 15.875,-1.703125 12.234375,9.375 8.59375,20.453125 8.59375,31.390625 q 0,10.890625 3.609375,21.921875 3.625,11.046875 10.984375,22.5625 z"
       id="DejaVuSans-40" />
    <path
       d="m 8.015625,75.875 h 7.8125 q 7.3125,-11.515625 10.953125,-22.5625 3.640625,-11.03125 3.640625,-21.921875 0,-10.9375 -3.640625,-22.015625 -3.640625,-11.078125 -10.953125,-22.5625 h -7.8125 Q 14.5,-2 17.703125,9.0625 20.90625,20.125 20.90625,31.390625 q 0,11.28125 -3.203125,22.265625 -3.203125,11 -9.6875,22.21875 z"
       id="DejaVuSans-41" />
    <clipPath
       id="p2343a3e18f-3">
      <rect
         height="89.627899"
         width="90.039131"
         x="138.81696"
         y="82.432899"
         id="rect7282-5" />
    </clipPath>
    <clipPath
       id="p2343a3e18f-3-1">
      <rect
         height="89.627899"
         width="90.039131"
         x="138.81696"
         y="82.432899"
         id="rect7282-5-4" />
    </clipPath>
    <clipPath
       id="p2343a3e18f-1">
      <rect
         height="89.627899"
         width="90.039131"
         x="138.81696"
         y="82.432899"
         id="rect10236" />
    </clipPath>
  </defs>
  <sodipodi:namedview
     id="base"
     pagecolor="#ffffff"
     bordercolor="#666666"
     borderopacity="1.0"
     inkscape:pageopacity="0.0"
     inkscape:pageshadow="2"
     inkscape:zoom="0.5"
     inkscape:cx="1416.6418"
     inkscape:cy="603.99193"
     inkscape:document-units="px"
     inkscape:current-layer="layer1"
     showgrid="false"
     units="px"
     inkscape:window-width="1898"
     inkscape:window-height="2094"
     inkscape:window-x="1932"
     inkscape:window-y="50"
     inkscape:window-maximized="1"
     inkscape:document-rotation="0" />
  <metadata
     id="metadata5">
    <rdf:RDF>
      <cc:Work
         rdf:about="">
        <dc:format>image/svg+xml</dc:format>
        <dc:type
           rdf:resource="http://purl.org/dc/dcmitype/StillImage" />
        <dc:title></dc:title>
      </cc:Work>
    </rdf:RDF>
  </metadata>
  <g
     inkscape:label="Layer 1"
     inkscape:groupmode="layer"
     id="layer1"
     transform="translate(0,-11.249983)">
    <g
       id="axes_3"
       transform="matrix(7.076799,0,0,7.076799,-301.19368,-389.03086)"
       style="stroke-linecap:butt;stroke-linejoin:round">
      <g
         id="patch_2">
        <path
           d="m 138.81696,172.0608 h 90.03913 V 82.432901 h -90.03913 z"
           style="fill:#ffffff"
           id="path6742" />
      </g>
      <g
         id="matplotlib.axis_1">
        <g
           id="text_3">
          <!-- Eccentricity -->
          <defs
             id="defs6746">
            <path
               d="m 9.8125,72.90625 h 46.09375 v -8.3125 H 19.671875 V 43.015625 h 34.71875 V 34.71875 H 19.671875 V 8.296875 H 56.78125 V 0 H 9.8125 Z"
               id="path9147" />
          </defs>
          <g
             style="fill:#262626"
             transform="matrix(0.08,0,0,-0.08,160.34402,182.13955)"
             id="g6772">
            <use
               xlink:href="#DejaVuSans-69"
               id="use6748"
               x="0"
               y="0"
               width="100%"
               height="100%" />
            <path
               d="M 111.96484,52.59375 V 44.1875 q -3.8125,2.109375 -7.64062,3.15625 -3.82813,1.046875 -7.734376,1.046875 -8.75,0 -13.59375,-5.546875 -4.828125,-5.53125 -4.828125,-15.546875 0,-10.015625 4.828125,-15.5625 4.84375,-5.53125 13.59375,-5.53125 3.906246,0 7.734376,1.046875 3.82812,1.046875 7.64062,3.15625 v -8.3125 q -3.76562,-1.75 -7.79687,-2.625 -4.01563,-0.890625 -8.562501,-0.890625 -12.359375,0 -19.640625,7.765625 -7.265625,7.765625 -7.265625,20.953125 0,13.375 7.34375,21.03125 Q 83.402344,56 96.199219,56 q 4.140621,0 8.093751,-0.859375 3.95312,-0.84375 7.67187,-2.546875 z"
               id="use6750"
               style="stroke-linecap:butt;stroke-linejoin:round" />
            <path
               d="M 166.94531,52.59375 V 44.1875 q -3.8125,2.109375 -7.64062,3.15625 -3.82813,1.046875 -7.73438,1.046875 -8.75,0 -13.59375,-5.546875 -4.82812,-5.53125 -4.82812,-15.546875 0,-10.015625 4.82812,-15.5625 4.84375,-5.53125 13.59375,-5.53125 3.90625,0 7.73438,1.046875 3.82812,1.046875 7.64062,3.15625 v -8.3125 q -3.76562,-1.75 -7.79687,-2.625 -4.01563,-0.890625 -8.5625,-0.890625 -12.35938,0 -19.64063,7.765625 -7.26562,7.765625 -7.26562,20.953125 0,13.375 7.34375,21.03125 Q 138.38281,56 151.17969,56 q 4.14062,0 8.09375,-0.859375 3.95312,-0.84375 7.67187,-2.546875 z"
               id="use6752"
               style="stroke-linecap:butt;stroke-linejoin:round" />
            <path
               d="m 229.34766,29.59375 v -4.390625 h -41.3125 q 0.59375,-9.28125 5.59375,-14.140625 5,-4.859375 13.9375,-4.859375 5.17187,0 10.03125,1.265625 4.85937,1.265625 9.65625,3.8125 v -8.5 q -4.84375,-2.046875 -9.92188,-3.125 -5.07812,-1.078125 -10.29687,-1.078125 -13.09375,0 -20.73438,7.609375 -7.64062,7.625 -7.64062,20.625 0,13.421875 7.25,21.296875 Q 193.16016,56 205.47266,56 q 11.03125,0 17.45312,-7.109375 6.42188,-7.09375 6.42188,-19.296875 z m -8.98438,2.640625 q -0.0937,7.359375 -4.125,11.75 -4.03125,4.40625 -10.67187,4.40625 -7.51563,0 -12.03125,-4.25 -4.51563,-4.25 -5.20313,-11.96875 z"
               id="use6754"
               style="stroke-linecap:butt;stroke-linejoin:round" />
            <path
               d="M 289.55859,33.015625 V 0 h -8.98437 v 32.71875 q 0,7.765625 -3.03125,11.609375 -3.03125,3.859375 -9.07813,3.859375 -7.28125,0 -11.48437,-4.640625 -4.20313,-4.625 -4.20313,-12.640625 V 0 h -9.03125 v 54.6875 h 9.03125 v -8.5 q 3.23438,4.9375 7.59375,7.375 4.375,2.4375 10.09375,2.4375 9.42188,0 14.25,-5.828125 4.84375,-5.828125 4.84375,-17.15625 z"
               id="use6756"
               style="stroke-linecap:butt;stroke-linejoin:round" />
            <path
               d="M 316.35937,70.21875 V 54.6875 h 18.5 v -6.984375 h -18.5 v -29.6875 q 0,-6.6875 1.82813,-8.59375 1.82812,-1.90625 7.45312,-1.90625 h 9.21875 V 0 h -9.21875 q -10.40625,0 -14.35937,3.875 -3.95313,3.890625 -3.95313,14.140625 v 29.6875 h -6.59375 V 54.6875 h 6.59375 v 15.53125 z"
               id="use6758"
               style="stroke-linecap:butt;stroke-linejoin:round" />
            <path
               d="m 378.36523,46.296875 q -1.51562,0.875 -3.29687,1.28125 Q 373.28711,48 371.14648,48 363.52148,48 359.44336,43.046875 355.36523,38.09375 355.36523,28.8125 V 0 h -9.03125 v 54.6875 h 9.03125 v -8.5 q 2.84375,4.984375 7.375,7.390625 Q 367.28711,56 373.78711,56 q 0.92187,0 2.04687,-0.125 1.125,-0.109375 2.48438,-0.359375 z"
               id="use6760"
               style="stroke-linecap:butt;stroke-linejoin:round" />
            <path
               d="m 387.79102,54.6875 h 8.98437 V 0 h -8.98437 z m 0,21.296875 h 8.98437 V 64.59375 h -8.98437 z"
               id="use6762"
               style="stroke-linecap:butt;stroke-linejoin:round" />
            <path
               d="M 454.93359,52.59375 V 44.1875 q -3.8125,2.109375 -7.64062,3.15625 -3.82813,1.046875 -7.73438,1.046875 -8.75,0 -13.59375,-5.546875 -4.82812,-5.53125 -4.82812,-15.546875 0,-10.015625 4.82812,-15.5625 4.84375,-5.53125 13.59375,-5.53125 3.90625,0 7.73438,1.046875 3.82812,1.046875 7.64062,3.15625 v -8.3125 q -3.76562,-1.75 -7.79687,-2.625 -4.01563,-0.890625 -8.5625,-0.890625 -12.35938,0 -19.64063,7.765625 -7.26562,7.765625 -7.26562,20.953125 0,13.375 7.34375,21.03125 Q 426.37109,56 439.16797,56 q 4.14062,0 8.09375,-0.859375 3.95312,-0.84375 7.67187,-2.546875 z"
               id="use6764"
               style="stroke-linecap:butt;stroke-linejoin:round" />
            <path
               d="m 470.55469,54.6875 h 8.98437 V 0 h -8.98437 z m 0,21.296875 h 8.98437 V 64.59375 h -8.98437 z"
               id="use6766"
               style="stroke-linecap:butt;stroke-linejoin:round" />
            <path
               d="M 507.22852,70.21875 V 54.6875 h 18.5 v -6.984375 h -18.5 v -29.6875 q 0,-6.6875 1.82812,-8.59375 1.82813,-1.90625 7.45313,-1.90625 h 9.21875 V 0 h -9.21875 q -10.40625,0 -14.35938,3.875 -3.95312,3.890625 -3.95312,14.140625 v 29.6875 h -6.59375 V 54.6875 h 6.59375 v 15.53125 z"
               id="use6768"
               style="stroke-linecap:butt;stroke-linejoin:round" />
            <path
               d="M 560.29687,-5.078125 Q 556.5,-14.84375 552.875,-17.8125 q -3.60938,-2.984375 -9.65625,-2.984375 h -7.1875 v 7.515625 h 5.28125 q 3.70312,0 5.75,1.765625 2.0625,1.75 4.54687,8.296875 L 553.21875,0.875 531.10937,54.6875 H 540.625 L 557.71875,11.921875 574.8125,54.6875 h 9.51562 z"
               id="use6770"
               style="stroke-linecap:butt;stroke-linejoin:round" />
          </g>
        </g>
      </g>
      <g
         id="matplotlib.axis_2">
        <g
           id="text_4">
          <!-- Preferred SF (cpd) -->
          <defs
             id="defs6779">
            <path
               d="M 19.671875,64.796875 V 37.40625 h 12.40625 q 6.890625,0 10.640625,3.5625 3.765625,3.5625 3.765625,10.15625 0,6.546875 -3.765625,10.109375 -3.75,3.5625 -10.640625,3.5625 z M 9.8125,72.90625 h 22.265625 q 12.265625,0 18.53125,-5.546875 6.28125,-5.546875 6.28125,-16.234375 0,-10.796875 -6.28125,-16.3125 -6.265625,-5.515625 -18.53125,-5.515625 H 19.671875 V 0 H 9.8125 Z"
               id="path9165" />
            <path
               d="M 31,75.875 Q 24.46875,64.65625 21.28125,53.65625 18.109375,42.671875 18.109375,31.390625 18.109375,20.125 21.3125,9.0625 24.515625,-2 31,-13.1875 H 23.1875 Q 15.875,-1.703125 12.234375,9.375 8.59375,20.453125 8.59375,31.390625 q 0,10.890625 3.609375,21.921875 3.625,11.046875 10.984375,22.5625 z"
               id="path9167" />
            <path
               d="m 8.015625,75.875 h 7.8125 q 7.3125,-11.515625 10.953125,-22.5625 3.640625,-11.03125 3.640625,-21.921875 0,-10.9375 -3.640625,-22.015625 -3.640625,-11.078125 -10.953125,-22.5625 h -7.8125 Q 14.5,-2 17.703125,9.0625 20.90625,20.125 20.90625,31.390625 q 0,11.28125 -3.203125,22.265625 -3.203125,11 -9.6875,22.21875 z"
               id="path9169" />
          </defs>
          <g
             style="fill:#262626"
             transform="matrix(0,-0.08,-0.08,0,133.15321,163.70123)"
             id="g6817">
            <use
               xlink:href="#DejaVuSans-80"
               id="use6781"
               x="0"
               y="0"
               width="100%"
               height="100%" />
            <path
               d="m 101.39648,46.296875 q -1.515621,0.875 -3.296871,1.28125 Q 96.318359,48 94.177734,48 86.552734,48 82.474609,43.046875 78.396484,38.09375 78.396484,28.8125 V 0 h -9.03125 v 54.6875 h 9.03125 v -8.5 q 2.84375,4.984375 7.375,7.390625 Q 90.318359,56 96.818359,56 q 0.921875,0 2.046875,-0.125 1.125,-0.109375 2.484376,-0.359375 z"
               id="use6783"
               style="stroke-linecap:butt;stroke-linejoin:round" />
            <path
               d="m 157.57227,29.59375 v -4.390625 h -41.3125 q 0.59375,-9.28125 5.59375,-14.140625 5,-4.859375 13.9375,-4.859375 5.17187,0 10.03125,1.265625 4.85937,1.265625 9.65625,3.8125 v -8.5 q -4.84375,-2.046875 -9.92188,-3.125 -5.07812,-1.078125 -10.29687,-1.078125 -13.09375,0 -20.73438,7.609375 -7.64062,7.625 -7.64062,20.625 0,13.421875 7.25,21.296875 Q 121.38477,56 133.69727,56 q 11.03125,0 17.45312,-7.109375 6.42188,-7.09375 6.42188,-19.296875 z m -8.98438,2.640625 q -0.0937,7.359375 -4.125,11.75 -4.03125,4.40625 -10.67187,4.40625 -7.51563,0 -12.03125,-4.25 -4.51563,-4.25 -5.20313,-11.96875 z"
               id="use6785"
               style="stroke-linecap:butt;stroke-linejoin:round" />
            <path
               d="M 200.00195,75.984375 V 68.5 h -8.59375 q -4.82812,0 -6.71875,-1.953125 -1.875,-1.953125 -1.875,-7.03125 V 54.6875 h 14.79688 V 47.703125 H 182.81445 V 0 h -9.03125 v 47.703125 h -8.59375 V 54.6875 h 8.59375 V 58.5 q 0,9.125 4.25,13.296875 4.25,4.1875 13.46875,4.1875 z"
               id="use6787"
               style="stroke-linecap:butt;stroke-linejoin:round" />
            <path
               d="m 254.30078,29.59375 v -4.390625 h -41.3125 q 0.59375,-9.28125 5.59375,-14.140625 5,-4.859375 13.9375,-4.859375 5.17188,0 10.03125,1.265625 4.85938,1.265625 9.65625,3.8125 v -8.5 q -4.84375,-2.046875 -9.92187,-3.125 -5.07813,-1.078125 -10.29688,-1.078125 -13.09375,0 -20.73437,7.609375 -7.64063,7.625 -7.64063,20.625 0,13.421875 7.25,21.296875 Q 218.11328,56 230.42578,56 q 11.03125,0 17.45313,-7.109375 6.42187,-7.09375 6.42187,-19.296875 z m -8.98437,2.640625 q -0.0937,7.359375 -4.125,11.75 -4.03125,4.40625 -10.67188,4.40625 -7.51562,0 -12.03125,-4.25 -4.51562,-4.25 -5.20312,-11.96875 z"
               id="use6789"
               style="stroke-linecap:butt;stroke-linejoin:round" />
            <path
               d="m 300.73047,46.296875 q -1.51563,0.875 -3.29688,1.28125 Q 295.65234,48 293.51172,48 285.88672,48 281.80859,43.046875 277.73047,38.09375 277.73047,28.8125 V 0 h -9.03125 v 54.6875 h 9.03125 v -8.5 q 2.84375,4.984375 7.375,7.390625 Q 289.65234,56 296.15234,56 q 0.92188,0 2.04688,-0.125 1.125,-0.109375 2.48437,-0.359375 z"
               id="use6791"
               style="stroke-linecap:butt;stroke-linejoin:round" />
            <path
               d="m 341.82812,46.296875 q -1.51562,0.875 -3.29687,1.28125 Q 336.75,48 334.60937,48 326.98437,48 322.90625,43.046875 318.82812,38.09375 318.82812,28.8125 V 0 h -9.03125 v 54.6875 h 9.03125 v -8.5 q 2.84375,4.984375 7.375,7.390625 Q 330.75,56 337.25,56 q 0.92187,0 2.04687,-0.125 1.125,-0.109375 2.48438,-0.359375 z"
               id="use6793"
               style="stroke-linecap:butt;stroke-linejoin:round" />
            <path
               d="m 398.00391,29.59375 v -4.390625 h -41.3125 q 0.59375,-9.28125 5.59375,-14.140625 5,-4.859375 13.9375,-4.859375 5.17187,0 10.03125,1.265625 4.85937,1.265625 9.65625,3.8125 v -8.5 q -4.84375,-2.046875 -9.92188,-3.125 -5.07812,-1.078125 -10.29687,-1.078125 -13.09375,0 -20.73438,7.609375 -7.64062,7.625 -7.64062,20.625 0,13.421875 7.25,21.296875 Q 361.81641,56 374.12891,56 q 11.03125,0 17.45312,-7.109375 6.42188,-7.09375 6.42188,-19.296875 z m -8.98438,2.640625 q -0.0937,7.359375 -4.125,11.75 -4.03125,4.40625 -10.67187,4.40625 -7.51563,0 -12.03125,-4.25 -4.51563,-4.25 -5.20313,-11.96875 z"
               id="use6795"
               style="stroke-linecap:butt;stroke-linejoin:round" />
            <path
               d="m 448.73047,46.390625 v 29.59375 h 8.98437 V 0 h -8.98437 v 8.203125 q -2.82813,-4.875 -7.15625,-7.25 -4.3125,-2.375 -10.375,-2.375 -9.90625,0 -16.14063,7.90625 -6.21875,7.921875 -6.21875,20.8125 0,12.890625 6.21875,20.796875 Q 421.29297,56 431.19922,56 q 6.0625,0 10.375,-2.375 4.32812,-2.359375 7.15625,-7.234375 z m -30.60938,-19.09375 q 0,-9.90625 4.07813,-15.546875 4.07812,-5.640625 11.20312,-5.640625 7.125,0 11.21875,5.640625 4.10938,5.640625 4.10938,15.546875 0,9.90625 -4.10938,15.546875 -4.09375,5.640625 -11.21875,5.640625 -7.125,0 -11.20312,-5.640625 -4.07813,-5.640625 -4.07813,-15.546875 z"
               id="use6797"
               style="stroke-linecap:butt;stroke-linejoin:round" />
            <path
               id="use6799"
               d=""
               style="stroke-linecap:butt;stroke-linejoin:round" />
            <path
               d="m 552.10352,70.515625 v -9.625 q -5.60938,2.6875 -10.59375,4 -4.98438,1.328125 -9.625,1.328125 -8.04688,0 -12.42188,-3.125 -4.375,-3.125 -4.375,-8.890625 0,-4.84375 2.90625,-7.3125 2.90625,-2.453125 11.01563,-3.96875 l 5.95312,-1.21875 q 11.03125,-2.109375 16.28125,-7.40625 5.25,-5.296875 5.25,-14.171875 0,-10.609375 -7.10937,-16.078125 -7.09375,-5.46875 -20.8125,-5.46875 -5.17188,0 -11.01563,1.171875 -5.82812,1.171875 -12.07812,3.46875 V 13.375 q 6,-3.359375 11.76562,-5.078125 5.76563,-1.703125 11.32813,-1.703125 8.4375,0 13.03125,3.3125 4.59375,3.328125 4.59375,9.484375 0,5.359375 -3.29688,8.390625 -3.29687,3.03125 -10.8125,4.546875 L 526.07227,33.5 q -11.03125,2.1875 -15.96875,6.875 -4.92188,4.6875 -4.92188,13.046875 0,9.671875 6.8125,15.234375 6.8125,5.5625 18.76563,5.5625 5.14062,0 10.45312,-0.9375 5.32813,-0.921875 10.89063,-2.765625 z"
               id="use6801"
               style="stroke-linecap:butt;stroke-linejoin:round" />
            <path
               d="m 571.87695,72.90625 h 41.89063 v -8.3125 H 581.73633 V 43.109375 h 28.90625 V 34.8125 H 581.73633 V 0 h -9.85938 z"
               id="use6803"
               style="stroke-linecap:butt;stroke-linejoin:round" />
            <path
               id="use6805"
               d=""
               style="stroke-linecap:butt;stroke-linejoin:round" />
            <use
               x="651.37109"
               xlink:href="#DejaVuSans-40"
               id="use6807"
               y="0"
               width="100%"
               height="100%" />
            <path
               d="M 739.16602,52.59375 V 44.1875 q -3.8125,2.109375 -7.64063,3.15625 -3.82812,1.046875 -7.73437,1.046875 -8.75,0 -13.59375,-5.546875 -4.82813,-5.53125 -4.82813,-15.546875 0,-10.015625 4.82813,-15.5625 4.84375,-5.53125 13.59375,-5.53125 3.90625,0 7.73437,1.046875 3.82813,1.046875 7.64063,3.15625 v -8.3125 q -3.76563,-1.75 -7.79688,-2.625 -4.01562,-0.890625 -8.5625,-0.890625 -12.35937,0 -19.64062,7.765625 -7.26563,7.765625 -7.26563,20.953125 0,13.375 7.34375,21.03125 Q 710.60352,56 723.40039,56 q 4.14063,0 8.09375,-0.859375 3.95313,-0.84375 7.67188,-2.546875 z"
               id="use6809"
               style="stroke-linecap:butt;stroke-linejoin:round" />
            <path
               d="m 763.47461,8.203125 v -29 h -9.03125 V 54.6875 h 9.03125 v -8.296875 q 2.84375,4.875 7.15625,7.234375 4.32812,2.375 10.32812,2.375 9.96875,0 16.1875,-7.90625 6.23438,-7.90625 6.23438,-20.796875 0,-12.890625 -6.23438,-20.8125 -6.21875,-7.90625 -16.1875,-7.90625 -6,0 -10.32812,2.375 -4.3125,2.375 -7.15625,7.25 z m 30.57812,19.09375 q 0,9.90625 -4.07812,15.546875 -4.07813,5.640625 -11.20313,5.640625 -7.14062,0 -11.21875,-5.640625 -4.07812,-5.640625 -4.07812,-15.546875 0,-9.90625 4.07812,-15.546875 4.07813,-5.640625 11.21875,-5.640625 7.125,0 11.20313,5.640625 4.07812,5.640625 4.07812,15.546875 z"
               id="use6811"
               style="stroke-linecap:butt;stroke-linejoin:round" />
            <path
               d="m 854.24805,46.390625 v 29.59375 h 8.98437 V 0 h -8.98437 v 8.203125 q -2.82813,-4.875 -7.15625,-7.25 -4.3125,-2.375 -10.375,-2.375 -9.90625,0 -16.14063,7.90625 -6.21875,7.921875 -6.21875,20.8125 0,12.890625 6.21875,20.796875 Q 826.81055,56 836.7168,56 q 6.0625,0 10.375,-2.375 4.32812,-2.359375 7.15625,-7.234375 z m -30.60938,-19.09375 q 0,-9.90625 4.07813,-15.546875 4.07812,-5.640625 11.20312,-5.640625 7.125,0 11.21875,5.640625 4.10938,5.640625 4.10938,15.546875 0,9.90625 -4.10938,15.546875 -4.09375,5.640625 -11.21875,5.640625 -7.125,0 -11.20312,-5.640625 -4.07813,-5.640625 -4.07813,-15.546875 z"
               id="use6813"
               style="stroke-linecap:butt;stroke-linejoin:round" />
            <use
               x="872.31836"
               xlink:href="#DejaVuSans-41"
               id="use6815"
               y="0"
               width="100%"
               height="100%" />
          </g>
        </g>
      </g>
      <g
         id="line2d_1" />
      <g
         id="line2d_2">
        <path
           clip-path="url(#p2343a3e18f)"
           d="m 142.90964,121.53706 h 1.67049 1.67048 1.67049 1.67048 1.67049 1.67048 1.67049 1.67048 1.67049 1.67048 1.67049 1.67048 1.67049 1.67048 1.67049 1.67048 1.67049 1.67048 1.67048 1.67049 1.67048 1.67049 1.67048 1.67049 1.67048 1.67049 1.67048 1.67049 1.67048 1.67049 1.67048 1.67049 1.67048 1.67049 1.67048 1.67049 1.67048 1.67049 1.67048 1.67049 1.67048 1.67049 1.67048 1.67048 1.67049 1.67048 1.67049 1.67048 1.67049"
           style="fill:none;stroke:#cccccc;stroke-width:2;stroke-linecap:round;stroke-opacity:1"
           id="path6824" />
      </g>
      <g
         id="patch_3">
        <path
           d="M 138.81696,172.0608 V 82.432901"
           style="fill:none;stroke:#262626;stroke-linecap:square;stroke-linejoin:miter"
           id="path6827" />
      </g>
      <g
         id="patch_4">
        <path
           d="m 138.81696,172.0608 h 90.03913"
           style="fill:none;stroke:#262626;stroke-linecap:square;stroke-linejoin:miter"
           id="path6830" />
      </g>
    </g>
    <path
       clip-path="url(#p2343a3e18f-3)"
       d="m 142.90964,121.53706 h 1.67049 1.67048 1.67049 1.67048 1.67049 1.67048 1.67049 1.67048 1.67049 1.67048 1.67049 1.67048 1.67049 1.67048 1.67049 1.67048 1.67049 1.67048 1.67048 1.67049 1.67048 1.67049 1.67048 1.67049 1.67048 1.67049 1.67048 1.67049 1.67048 1.67049 1.67048 1.67049 1.67048 1.67049 1.67048 1.67049 1.67048 1.67049 1.67048 1.67049 1.67048 1.67049 1.67048 1.67048 1.67049 1.67048 1.67049 1.67048 1.67049"
       style="fill:none;stroke:#cccccc;stroke-width:2;stroke-linecap:round;stroke-linejoin:round;stroke-opacity:1"
       id="path6824-6"
       transform="matrix(6.8559871,1.7540025,-1.7540025,6.8559871,-47.424079,-684.64375)" />
    <path
       clip-path="url(#p2343a3e18f-3-1)"
       d="m 142.90964,121.53706 h 1.67049 1.67048 1.67049 1.67048 1.67049 1.67048 1.67049 1.67048 1.67049 1.67048 1.67049 1.67048 1.67049 1.67048 1.67049 1.67048 1.67049 1.67048 1.67048 1.67049 1.67048 1.67049 1.67048 1.67049 1.67048 1.67049 1.67048 1.67049 1.67048 1.67049 1.67048 1.67049 1.67048 1.67049 1.67048 1.67049 1.67048 1.67049 1.67048 1.67049 1.67048 1.67049 1.67048 1.67048 1.67049 1.67048 1.67049 1.67048 1.67049"
       style="fill:none;stroke:#cccccc;stroke-width:2;stroke-linecap:round;stroke-linejoin:round;stroke-opacity:1"
       id="path6824-6-0"
       transform="matrix(5.0567027,4.9508426,-4.9508426,5.0567027,671.88465,-1053.66)" />
    <path
       clip-path="url(#p2343a3e18f-1)"
       d="m 143.63714,-1 0.94299,51.197437 1.67048,16.548833 1.67049,9.75324 1.67048,6.94047 1.67049,5.392055 1.67048,4.410063 1.67049,3.731239 1.67048,3.233783 1.67049,2.8535 1.67048,2.55332 1.67049,2.31033 1.67048,2.1096 1.67049,1.94097 1.67048,1.79731 1.67049,1.67348 1.67048,1.5656 1.67049,1.47079 1.67048,1.38683 1.67048,1.31192 1.67049,1.24469 1.67048,1.18403 1.67049,1.129 1.67048,1.07886 1.67049,1.03298 1.67048,0.99085 1.67049,0.95203 1.67048,0.91612 1.67049,0.88283 1.67048,0.85187 1.67049,0.82301 1.67048,0.79605 1.67049,0.77079 1.67048,0.74709 1.67049,0.7248 1.67048,0.70381 1.67049,0.68399 1.67048,0.66526 1.67049,0.64753 1.67048,0.63071 1.67049,0.61476 1.67048,0.59959 1.67049,0.58515 1.67048,0.57138 1.67048,0.55826 1.67049,0.54572 1.67048,0.53373 1.67049,0.52225 1.67048,0.51127 1.67049,0.50073"
       style="fill:none;stroke:#262626;stroke-width:2;stroke-linecap:round;stroke-linejoin:round;stroke-opacity:1"
       id="path9775"
       transform="matrix(7.1387331,0,0,7.1387331,-330.95656,-397.67466)" />
  </g>
</svg>
