<?xml version="1.0" encoding="UTF-8" standalone="no"?>
<svg
   xmlns:dc="http://purl.org/dc/elements/1.1/"
   xmlns:cc="http://creativecommons.org/ns#"
   xmlns:rdf="http://www.w3.org/1999/02/22-rdf-syntax-ns#"
   xmlns:svg="http://www.w3.org/2000/svg"
   xmlns="http://www.w3.org/2000/svg"
   xmlns:xlink="http://www.w3.org/1999/xlink"
   xmlns:sodipodi="http://sodipodi.sourceforge.net/DTD/sodipodi-0.dtd"
   xmlns:inkscape="http://www.inkscape.org/namespaces/inkscape"
   width="1920"
   height="1080"
   viewBox="0 0 1920 1080"
   version="1.1"
   id="svg8"
   inkscape:version="1.0.2 (1.0.2+r75+1)"
   sodipodi:docname="defense-sf-tuning-1.svg">
  <defs
     id="defs2">
    <clipPath
       id="p3c34aa2679">
      <rect
         height="167.18401"
         width="98.31086"
         x="53.098438"
         y="12"
         id="rect4252" />
    </clipPath>
    <clipPath
       id="clipPath4886">
      <rect
         height="167.18401"
         width="98.31086"
         x="53.098438"
         y="12"
         id="rect4884" />
    </clipPath>
    <clipPath
       id="clipPath4890">
      <rect
         height="167.18401"
         width="98.31086"
         x="53.098438"
         y="12"
         id="rect4888" />
    </clipPath>
    <clipPath
       id="clipPath4894">
      <rect
         height="167.18401"
         width="98.31086"
         x="53.098438"
         y="12"
         id="rect4892" />
    </clipPath>
    <clipPath
       id="pa0a30f9a31">
      <rect
         height="167.18401"
         width="98.31086"
         x="161.24039"
         y="12"
         id="rect4255" />
    </clipPath>
    <clipPath
       id="clipPath4900">
      <rect
         height="167.18401"
         width="98.31086"
         x="161.24039"
         y="12"
         id="rect4898" />
    </clipPath>
    <clipPath
       id="clipPath4904">
      <rect
         height="167.18401"
         width="98.31086"
         x="161.24039"
         y="12"
         id="rect4902" />
    </clipPath>
    <clipPath
       id="clipPath4908">
      <rect
         height="167.18401"
         width="98.31086"
         x="161.24039"
         y="12"
         id="rect4906" />
    </clipPath>
    <style
       type="text/css"
       id="style3366">
*{stroke-linecap:butt;stroke-linejoin:round;}
  </style>
    <path
       d="M 0,0 V 4.8"
       id="m7861fa3402"
       style="stroke:#262626" />
    <path
       d="m 12.40625,8.296875 h 16.109375 v 55.625 L 10.984375,60.40625 v 8.984375 l 17.4375,3.515625 H 38.28125 V 8.296875 H 54.390625 V 0 H 12.40625 Z"
       id="DejaVuSans-49" />
    <path
       d="m 31.78125,66.40625 q -7.609375,0 -11.453125,-7.5 Q 16.5,51.421875 16.5,36.375 q 0,-14.984375 3.828125,-22.484375 3.84375,-7.5 11.453125,-7.5 7.671875,0 11.5,7.5 3.84375,7.5 3.84375,22.484375 0,15.046875 -3.84375,22.53125 -3.828125,7.5 -11.5,7.5 z m 0,7.8125 q 12.265625,0 18.734375,-9.703125 6.46875,-9.6875 6.46875,-28.140625 0,-18.40625 -6.46875,-28.109375 -6.46875,-9.6875 -18.734375,-9.6875 -12.25,0 -18.71875,9.6875 Q 6.59375,17.96875 6.59375,36.375 q 0,18.453125 6.46875,28.140625 6.46875,9.703125 18.71875,9.703125 z"
       id="DejaVuSans-48" />
    <path
       d="M 10.59375,35.5 H 73.1875 V 27.203125 H 10.59375 Z"
       id="DejaVuSans-8722" />
    <path
       d="M 0,0 V 3.2"
       id="m60763830e0"
       style="stroke:#262626;stroke-width:0.8" />
    <path
       d="m 9.8125,72.90625 h 9.859375 V 8.296875 h 35.5 V 0 H 9.8125 Z"
       id="DejaVuSans-76" />
    <path
       d="m 30.609375,48.390625 q -7.21875,0 -11.421875,-5.640625 -4.203125,-5.640625 -4.203125,-15.453125 0,-9.8125 4.171875,-15.453125 4.1875,-5.640625 11.453125,-5.640625 7.1875,0 11.375,5.65625 4.203125,5.671875 4.203125,15.4375 0,9.71875 -4.203125,15.40625 -4.1875,5.6875 -11.375,5.6875 z m 0,7.609375 q 11.71875,0 18.40625,-7.625 6.703125,-7.609375 6.703125,-21.078125 0,-13.421875 -6.703125,-21.078125 -6.6875,-7.640625 -18.40625,-7.640625 -11.765625,0 -18.4375,7.640625 -6.65625,7.65625 -6.65625,21.078125 0,13.46875 6.65625,21.078125 Q 18.84375,56 30.609375,56 Z"
       id="DejaVuSans-111" />
    <path
       d="M 48.78125,52.59375 V 44.1875 q -3.8125,2.109375 -7.640625,3.15625 -3.828125,1.046875 -7.734375,1.046875 -8.75,0 -13.59375,-5.546875 -4.828125,-5.53125 -4.828125,-15.546875 0,-10.015625 4.828125,-15.5625 4.84375,-5.53125 13.59375,-5.53125 3.90625,0 7.734375,1.046875 3.828125,1.046875 7.640625,3.15625 v -8.3125 q -3.765625,-1.75 -7.796875,-2.625 -4.015625,-0.890625 -8.5625,-0.890625 -12.359375,0 -19.640625,7.765625 -7.265625,7.765625 -7.265625,20.953125 0,13.375 7.34375,21.03125 Q 20.21875,56 33.015625,56 q 4.140625,0 8.09375,-0.859375 3.953125,-0.84375 7.671875,-2.546875 z"
       id="DejaVuSans-99" />
    <path
       d="m 34.28125,27.484375 q -10.890625,0 -15.09375,-2.484375 -4.203125,-2.484375 -4.203125,-8.5 0,-4.78125 3.15625,-7.59375 3.15625,-2.796875 8.5625,-2.796875 7.484375,0 12,5.296875 4.515625,5.296875 4.515625,14.078125 v 2 z m 17.921875,3.71875 V 0 H 43.21875 v 8.296875 q -3.078125,-4.96875 -7.671875,-7.34375 -4.59375,-2.375 -11.234375,-2.375 -8.390625,0 -13.359375,4.71875 Q 6,8.015625 6,15.921875 q 0,9.21875 6.171875,13.90625 6.1875,4.6875 18.4375,4.6875 H 43.21875 v 0.890625 q 0,6.203125 -4.078125,9.59375 -4.078125,3.390625 -11.453125,3.390625 -4.6875,0 -9.140625,-1.125 -4.4375,-1.125 -8.53125,-3.375 v 8.3125 q 4.921875,1.90625 9.5625,2.84375 Q 24.21875,56 28.609375,56 q 11.875,0 17.734375,-6.15625 5.859375,-6.140625 5.859375,-18.640625 z"
       id="DejaVuSans-97" />
    <path
       d="M 9.421875,75.984375 H 18.40625 V 0 H 9.421875 Z"
       id="DejaVuSans-108" />
    <path
       id="DejaVuSans-32"
       d="" />
    <path
       d="m 44.28125,53.078125 v -8.5 Q 40.484375,46.53125 36.375,47.5 q -4.09375,0.984375 -8.5,0.984375 -6.6875,0 -10.03125,-2.046875 Q 14.5,44.390625 14.5,40.28125 q 0,-3.125 2.390625,-4.90625 2.390625,-1.78125 9.625,-3.390625 l 3.078125,-0.6875 Q 39.15625,29.25 43.1875,25.515625 47.21875,21.78125 47.21875,15.09375 q 0,-7.625 -6.03125,-12.078125 -6.03125,-4.4375 -16.578125,-4.4375 -4.390625,0 -9.15625,0.859375 Q 10.6875,0.296875 5.421875,2 v 9.28125 q 4.984375,-2.59375 9.8125,-3.890625 4.828125,-1.28125 9.578125,-1.28125 6.34375,0 9.75,2.171875 3.421875,2.171875 3.421875,6.125 0,3.65625 -2.46875,5.609375 -2.453125,1.953125 -10.8125,3.765625 l -3.125,0.734375 q -8.34375,1.75 -12.0625,5.390625 -3.703125,3.640625 -3.703125,9.984375 0,7.71875 5.46875,11.90625 Q 16.75,56 26.8125,56 q 4.96875,0 9.359375,-0.734375 4.40625,-0.71875 8.109375,-2.1875 z"
       id="DejaVuSans-115" />
    <path
       d="m 18.109375,8.203125 v -29 H 9.078125 V 54.6875 h 9.03125 v -8.296875 q 2.84375,4.875 7.15625,7.234375 Q 29.59375,56 35.59375,56 q 9.96875,0 16.1875,-7.90625 6.234375,-7.90625 6.234375,-20.796875 0,-12.890625 -6.234375,-20.8125 -6.21875,-7.90625 -16.1875,-7.90625 -6,0 -10.328125,2.375 -4.3125,2.375 -7.15625,7.25 z M 48.6875,27.296875 q 0,9.90625 -4.078125,15.546875 -4.078125,5.640625 -11.203125,5.640625 -7.140625,0 -11.21875,-5.640625 -4.078125,-5.640625 -4.078125,-15.546875 0,-9.90625 4.078125,-15.546875 4.078125,-5.640625 11.21875,-5.640625 7.125,0 11.203125,5.640625 4.078125,5.640625 4.078125,15.546875 z"
       id="DejaVuSans-112" />
    <path
       d="M 18.3125,70.21875 V 54.6875 h 18.5 v -6.984375 h -18.5 v -29.6875 q 0,-6.6875 1.828125,-8.59375 1.828125,-1.90625 7.453125,-1.90625 H 36.8125 V 0 H 27.59375 Q 17.1875,0 13.234375,3.875 9.28125,7.765625 9.28125,18.015625 v 29.6875 H 2.6875 V 54.6875 h 6.59375 v 15.53125 z"
       id="DejaVuSans-116" />
    <path
       d="M 9.421875,54.6875 H 18.40625 V 0 H 9.421875 Z m 0,21.296875 H 18.40625 V 64.59375 H 9.421875 Z"
       id="DejaVuSans-105" />
    <path
       d="M 37.109375,75.984375 V 68.5 h -8.59375 q -4.828125,0 -6.71875,-1.953125 -1.875,-1.953125 -1.875,-7.03125 V 54.6875 H 34.71875 V 47.703125 H 19.921875 V 0 h -9.03125 V 47.703125 H 2.296875 V 54.6875 h 8.59375 V 58.5 q 0,9.125 4.25,13.296875 4.25,4.1875 13.46875,4.1875 z"
       id="DejaVuSans-102" />
    <path
       d="m 41.109375,46.296875 q -1.515625,0.875 -3.296875,1.28125 Q 36.03125,48 33.890625,48 26.265625,48 22.1875,43.046875 18.109375,38.09375 18.109375,28.8125 V 0 h -9.03125 v 54.6875 h 9.03125 v -8.5 q 2.84375,4.984375 7.375,7.390625 Q 30.03125,56 36.53125,56 q 0.921875,0 2.046875,-0.125 1.125,-0.109375 2.484375,-0.359375 z"
       id="DejaVuSans-114" />
    <path
       d="m 56.203125,29.59375 v -4.390625 h -41.3125 q 0.59375,-9.28125 5.59375,-14.140625 5,-4.859375 13.9375,-4.859375 5.171875,0 10.03125,1.265625 4.859375,1.265625 9.65625,3.8125 v -8.5 q -4.84375,-2.046875 -9.921875,-3.125 -5.078125,-1.078125 -10.296875,-1.078125 -13.09375,0 -20.734375,7.609375 -7.640625,7.625 -7.640625,20.625 0,13.421875 7.25,21.296875 Q 20.015625,56 32.328125,56 q 11.03125,0 17.453125,-7.109375 6.421875,-7.09375 6.421875,-19.296875 z m -8.984375,2.640625 q -0.09375,7.359375 -4.125,11.75 -4.03125,4.40625 -10.671875,4.40625 -7.515625,0 -12.03125,-4.25 -4.515625,-4.25 -5.203125,-11.96875 z"
       id="DejaVuSans-101" />
    <path
       d="m 14.796875,27.296875 q 0,-9.90625 4.078125,-15.546875 4.078125,-5.640625 11.203125,-5.640625 7.125,0 11.21875,5.640625 4.109375,5.640625 4.109375,15.546875 0,9.90625 -4.109375,15.546875 -4.09375,5.640625 -11.21875,5.640625 -7.125,0 -11.203125,-5.640625 -4.078125,-5.640625 -4.078125,-15.546875 z M 45.40625,8.203125 q -2.828125,-4.875 -7.15625,-7.25 -4.3125,-2.375 -10.375,-2.375 -9.90625,0 -16.140625,7.90625 -6.21875,7.921875 -6.21875,20.8125 0,12.890625 6.21875,20.796875 Q 17.96875,56 27.875,56 q 6.0625,0 10.375,-2.375 4.328125,-2.359375 7.15625,-7.234375 V 54.6875 h 8.984375 V -20.796875 H 45.40625 Z"
       id="DejaVuSans-113" />
    <path
       d="M 8.5,21.578125 V 54.6875 h 8.984375 V 21.921875 q 0,-7.765625 3.015625,-11.65625 3.03125,-3.875 9.09375,-3.875 7.265625,0 11.484375,4.640625 4.234375,4.640625 4.234375,12.65625 v 31 h 8.984375 V 0 H 45.3125 V 8.40625 Q 42.046875,3.421875 37.71875,1 33.40625,-1.421875 27.6875,-1.421875 18.265625,-1.421875 13.375,4.4375 8.5,10.296875 8.5,21.578125 Z M 31.109375,56 Z"
       id="DejaVuSans-117" />
    <path
       d="M 54.890625,33.015625 V 0 H 45.90625 v 32.71875 q 0,7.765625 -3.03125,11.609375 -3.03125,3.859375 -9.078125,3.859375 -7.28125,0 -11.484375,-4.640625 -4.203125,-4.625 -4.203125,-12.640625 V 0 h -9.03125 v 54.6875 h 9.03125 v -8.5 q 3.234375,4.9375 7.59375,7.375 4.375,2.4375 10.09375,2.4375 9.421875,0 14.25,-5.828125 4.84375,-5.828125 4.84375,-17.15625 z"
       id="DejaVuSans-110" />
    <path
       d="M 32.171875,-5.078125 Q 28.375,-14.84375 24.75,-17.8125 q -3.609375,-2.984375 -9.65625,-2.984375 h -7.1875 v 7.515625 h 5.28125 q 3.703125,0 5.75,1.765625 2.0625,1.75 4.546875,8.296875 L 25.09375,0.875 2.984375,54.6875 H 12.5 L 29.59375,11.921875 46.6875,54.6875 h 9.515625 z"
       id="DejaVuSans-121" />
    <path
       d="M 31,75.875 Q 24.46875,64.65625 21.28125,53.65625 18.109375,42.671875 18.109375,31.390625 18.109375,20.125 21.3125,9.0625 24.515625,-2 31,-13.1875 H 23.1875 Q 15.875,-1.703125 12.234375,9.375 8.59375,20.453125 8.59375,31.390625 q 0,10.890625 3.609375,21.921875 3.625,11.046875 10.984375,22.5625 z"
       id="DejaVuSans-40" />
    <path
       d="m 45.40625,46.390625 v 29.59375 h 8.984375 V 0 H 45.40625 v 8.203125 q -2.828125,-4.875 -7.15625,-7.25 -4.3125,-2.375 -10.375,-2.375 -9.90625,0 -16.140625,7.90625 -6.21875,7.921875 -6.21875,20.8125 0,12.890625 6.21875,20.796875 Q 17.96875,56 27.875,56 q 6.0625,0 10.375,-2.375 4.328125,-2.359375 7.15625,-7.234375 z M 14.796875,27.296875 q 0,-9.90625 4.078125,-15.546875 4.078125,-5.640625 11.203125,-5.640625 7.125,0 11.21875,5.640625 4.109375,5.640625 4.109375,15.546875 0,9.90625 -4.109375,15.546875 -4.09375,5.640625 -11.21875,5.640625 -7.125,0 -11.203125,-5.640625 -4.078125,-5.640625 -4.078125,-15.546875 z"
       id="DejaVuSans-100" />
    <path
       d="m 8.015625,75.875 h 7.8125 q 7.3125,-11.515625 10.953125,-22.5625 3.640625,-11.03125 3.640625,-21.921875 0,-10.9375 -3.640625,-22.015625 -3.640625,-11.078125 -10.953125,-22.5625 h -7.8125 Q 14.5,-2 17.703125,9.0625 20.90625,20.125 20.90625,31.390625 q 0,11.28125 -3.203125,22.265625 -3.203125,11 -9.6875,22.21875 z"
       id="DejaVuSans-41" />
    <path
       d="M 0,0 H -4.8"
       id="mba3544325f"
       style="stroke:#262626" />
    <path
       d="M 10.6875,12.40625 H 21 V 0 H 10.6875 Z"
       id="DejaVuSans-46" />
    <path
       d="m 10.796875,72.90625 h 38.71875 v -8.3125 h -29.6875 V 46.734375 q 2.140625,0.734375 4.28125,1.09375 2.15625,0.359375 4.3125,0.359375 Q 40.625,48.1875 47.75,41.5 54.890625,34.8125 54.890625,23.390625 54.890625,11.625 47.5625,5.09375 40.234375,-1.421875 26.90625,-1.421875 q -4.59375,0 -9.359375,0.78125 -4.75,0.78125 -9.828125,2.34375 V 11.625 q 4.390625,-2.390625 9.078125,-3.5625 4.6875,-1.171875 9.90625,-1.171875 8.453125,0 13.375,4.4375 4.9375,4.4375 4.9375,12.0625 0,7.609375 -4.9375,12.046875 -4.921875,4.453125 -13.375,4.453125 -3.953125,0 -7.890625,-0.875 -3.921875,-0.875 -8.015625,-2.734375 z"
       id="DejaVuSans-53" />
    <path
       d="M 19.1875,8.296875 H 53.609375 V 0 H 7.328125 v 8.296875 q 5.609375,5.8125 15.296875,15.59375 9.703125,9.796875 12.1875,12.640625 4.734375,5.3125 6.609375,9 1.890625,3.6875 1.890625,7.25 0,5.8125 -4.078125,9.46875 -4.078125,3.671875 -10.625,3.671875 -4.640625,0 -9.796875,-1.609375 -5.140625,-1.609375 -11,-4.890625 v 9.96875 Q 13.765625,71.78125 18.9375,73 q 5.1875,1.21875 9.484375,1.21875 11.328125,0 18.0625,-5.671875 6.734375,-5.65625 6.734375,-15.125 0,-4.5 -1.6875,-8.53125 Q 49.859375,40.875 45.40625,35.40625 44.1875,33.984375 37.640625,27.21875 31.109375,20.453125 19.1875,8.296875 Z"
       id="DejaVuSans-50" />
    <path
       d="M 40.578125,39.3125 Q 47.65625,37.796875 51.625,33 q 3.984375,-4.78125 3.984375,-11.8125 0,-10.78125 -7.421875,-16.703125 -7.421875,-5.90625 -21.09375,-5.90625 -4.578125,0 -9.4375,0.90625 -4.859375,0.90625 -10.03125,2.71875 v 9.515625 q 4.09375,-2.390625 8.96875,-3.609375 4.890625,-1.21875 10.21875,-1.21875 9.265625,0 14.125,3.65625 4.859375,3.65625 4.859375,10.640625 0,6.453125 -4.515625,10.078125 -4.515625,3.640625 -12.5625,3.640625 h -8.5 v 8.109375 h 8.890625 q 7.265625,0 11.125,2.90625 3.859375,2.90625 3.859375,8.375 0,5.609375 -3.984375,8.609375 -3.96875,3.015625 -11.390625,3.015625 -4.0625,0 -8.703125,-0.890625 Q 15.375,64.15625 9.8125,62.3125 v 8.78125 q 5.625,1.5625 10.53125,2.34375 4.90625,0.78125 9.25,0.78125 11.234375,0 17.765625,-5.109375 6.546875,-5.09375 6.546875,-13.78125 0,-6.0625 -3.46875,-10.234375 -3.46875,-4.171875 -9.859375,-5.78125 z"
       id="DejaVuSans-51" />
    <path
       d="m 44.390625,34.1875 q 3.171875,-1.078125 6.171875,-4.59375 3,-3.515625 6.03125,-9.671875 L 66.609375,0 H 56 l -9.3125,18.703125 q -3.625,7.328125 -7.015625,9.71875 -3.390625,2.390625 -9.25,2.390625 h -10.75 V 0 H 9.8125 v 72.90625 h 22.265625 q 12.5,0 18.65625,-5.234375 6.15625,-5.21875 6.15625,-15.765625 0,-6.890625 -3.203125,-11.4375 -3.203125,-4.53125 -9.296875,-6.28125 z m -24.71875,30.609375 v -25.875 h 12.40625 q 7.125,0 10.765625,3.296875 3.640625,3.296875 3.640625,9.6875 0,6.390625 -3.640625,9.640625 -3.640625,3.25 -10.765625,3.25 z"
       id="DejaVuSans-82" />
    <path
       d="m 72.703125,32.078125 q -4.25,0 -6.671875,-3.609375 -2.40625,-3.609375 -2.40625,-10.0625 0,-6.34375 2.40625,-9.984375 2.421875,-3.640625 6.671875,-3.640625 4.15625,0 6.5625,3.640625 2.421875,3.640625 2.421875,9.984375 0,6.40625 -2.421875,10.03125 -2.40625,3.640625 -6.5625,3.640625 z m 0,6.203125 q 7.71875,0 12.25,-5.375 Q 89.5,27.546875 89.5,18.40625 q 0,-9.125 -4.5625,-14.484375 -4.5625,-5.34375 -12.234375,-5.34375 -7.8125,0 -12.359375,5.34375 -4.53125,5.359375 -4.53125,14.484375 0,9.1875 4.5625,14.53125 4.5625,5.34375 12.328125,5.34375 z M 22.3125,68.015625 q -4.203125,0 -6.625,-3.640625 -2.40625,-3.625 -2.40625,-9.984375 0,-6.4375 2.390625,-10.0625 2.390625,-3.609375 6.640625,-3.609375 4.25,0 6.65625,3.609375 2.421875,3.625 2.421875,10.0625 0,6.296875 -2.4375,9.953125 -2.4375,3.671875 -6.640625,3.671875 z m 44.09375,6.203125 h 7.8125 L 28.609375,-1.421875 h -7.8125 z m -44.09375,0 q 7.71875,0 12.296875,-5.34375 4.59375,-5.34375 4.59375,-14.484375 0,-9.21875 -4.5625,-14.546875 -4.5625,-5.328125 -12.328125,-5.328125 -7.765625,0 -12.28125,5.34375 -4.515625,5.359375 -4.515625,14.53125 0,9.09375 4.53125,14.453125 4.546875,5.375 12.265625,5.375 z"
       id="DejaVuSans-37" />
    <path
       d="M 19.671875,34.8125 V 8.109375 H 35.5 q 7.953125,0 11.78125,3.296875 3.84375,3.296875 3.84375,10.078125 0,6.84375 -3.84375,10.078125 -3.828125,3.25 -11.78125,3.25 z m 0,29.984375 V 42.828125 H 34.28125 q 7.21875,0 10.75,2.703125 3.546875,2.71875 3.546875,8.28125 0,5.515625 -3.546875,8.25 -3.53125,2.734375 -10.75,2.734375 z M 9.8125,72.90625 h 25.203125 q 11.28125,0 17.375,-4.6875 Q 58.5,63.53125 58.5,54.890625 58.5,48.1875 55.375,44.234375 52.25,40.28125 46.1875,39.3125 53.46875,37.75 57.5,32.78125 q 4.03125,-4.953125 4.03125,-12.375 0,-9.765625 -6.640625,-15.09375 Q 48.25,0 35.984375,0 H 9.8125 Z"
       id="DejaVuSans-66" />
    <path
       d="m 39.40625,66.21875 q -10.75,0 -17.078125,-8.015625 -6.3125,-8 -6.3125,-21.828125 0,-13.765625 6.3125,-21.78125 6.328125,-8 17.078125,-8 10.734375,0 17.015625,8 6.28125,8.015625 6.28125,21.78125 0,13.828125 -6.28125,21.828125 -6.28125,8.015625 -17.015625,8.015625 z m 0,8 q 15.328125,0 24.5,-10.28125 9.1875,-10.28125 9.1875,-27.5625 0,-17.234375 -9.1875,-27.515625 -9.171875,-10.28125 -24.5,-10.28125 -15.375,0 -24.59375,10.25 Q 5.609375,19.09375 5.609375,36.375 q 0,17.28125 9.203125,27.5625 9.21875,10.28125 24.59375,10.28125 z"
       id="DejaVuSans-79" />
    <path
       d="M 19.671875,64.796875 V 8.109375 H 31.59375 q 15.09375,0 22.09375,6.828125 7,6.84375 7,21.59375 0,14.640625 -7,21.453125 -7,6.8125 -22.09375,6.8125 z M 9.8125,72.90625 h 20.265625 q 21.1875,0 31.09375,-8.8125 9.921875,-8.8125 9.921875,-27.5625 0,-18.859375 -9.96875,-27.703125 Q 51.171875,0 30.078125,0 H 9.8125 Z"
       id="DejaVuSans-68" />
    <path
       d="m 45.40625,27.984375 q 0,9.765625 -4.03125,15.125 -4.015625,5.375 -11.296875,5.375 -7.21875,0 -11.25,-5.375 -4.03125,-5.359375 -4.03125,-15.125 0,-9.71875 4.03125,-15.09375 4.03125,-5.375 11.25,-5.375 7.28125,0 11.296875,5.375 4.03125,5.375 4.03125,15.09375 z M 54.390625,6.78125 q 0,-13.953125 -6.203125,-20.765625 -6.1875,-6.8125 -18.984375,-6.8125 -4.734375,0 -8.9375,0.703125 -4.203125,0.703125 -8.15625,2.171875 V -9.1875 q 3.953125,-2.140625 7.8125,-3.15625 3.859375,-1.03125 7.859375,-1.03125 8.84375,0 13.234375,4.609375 4.390625,4.609375 4.390625,13.9375 V 9.625 Q 42.625,4.78125 38.28125,2.390625 33.9375,0 27.875,0 17.828125,0 11.671875,7.65625 q -6.15625,7.671875 -6.15625,20.328125 0,12.6875 6.15625,20.34375 Q 17.828125,56 27.875,56 q 6.0625,0 10.40625,-2.390625 4.34375,-2.390625 7.125,-7.21875 V 54.6875 h 8.984375 z"
       id="DejaVuSans-103" />
    <path
       d="M 54.890625,33.015625 V 0 H 45.90625 v 32.71875 q 0,7.765625 -3.03125,11.609375 -3.03125,3.859375 -9.078125,3.859375 -7.28125,0 -11.484375,-4.640625 -4.203125,-4.625 -4.203125,-12.640625 V 0 h -9.03125 v 75.984375 h 9.03125 V 46.1875 q 3.234375,4.9375 7.59375,7.375 4.375,2.4375 10.09375,2.4375 9.421875,0 14.25,-5.828125 4.84375,-5.828125 4.84375,-17.15625 z"
       id="DejaVuSans-104" />
    <path
       d="M 0,2.4 C 0.636487,2.4 1.246992,2.147121 1.697056,1.697056 2.147121,1.246992 2.4,0.636487 2.4,0 2.4,-0.636487 2.147121,-1.246992 1.697056,-1.697056 1.246992,-2.147121 0.636487,-2.4 0,-2.4 c -0.636487,0 -1.246992,0.252879 -1.697056,0.702944 C -2.147121,-1.246992 -2.4,-0.636487 -2.4,0 c 0,0.636487 0.252879,1.246992 0.702944,1.697056 C -1.246992,2.147121 -0.636487,2.4 0,2.4 Z"
       id="mb77a58283f"
       style="stroke:#55a868;stroke-width:1.2" />
    <path
       d="M 0,2.4 C 0.636487,2.4 1.246992,2.147121 1.697056,1.697056 2.147121,1.246992 2.4,0.636487 2.4,0 2.4,-0.636487 2.147121,-1.246992 1.697056,-1.697056 1.246992,-2.147121 0.636487,-2.4 0,-2.4 c -0.636487,0 -1.246992,0.252879 -1.697056,0.702944 C -2.147121,-1.246992 -2.4,-0.636487 -2.4,0 c 0,0.636487 0.252879,1.246992 0.702944,1.697056 C -1.246992,2.147121 -0.636487,2.4 0,2.4 Z"
       id="m2736e4d366"
       style="stroke:#55a868;stroke-width:1.2" />
    <path
       d="M 0,2.4 C 0.636487,2.4 1.246992,2.147121 1.697056,1.697056 2.147121,1.246992 2.4,0.636487 2.4,0 2.4,-0.636487 2.147121,-1.246992 1.697056,-1.697056 1.246992,-2.147121 0.636487,-2.4 0,-2.4 c -0.636487,0 -1.246992,0.252879 -1.697056,0.702944 C -2.147121,-1.246992 -2.4,-0.636487 -2.4,0 c 0,0.636487 0.252879,1.246992 0.702944,1.697056 C -1.246992,2.147121 -0.636487,2.4 0,2.4 Z"
       id="m0d98de753a"
       style="stroke:#4c72b0;stroke-width:1.2" />
    <path
       d="M 0,2.4 C 0.636487,2.4 1.246992,2.147121 1.697056,1.697056 2.147121,1.246992 2.4,0.636487 2.4,0 2.4,-0.636487 2.147121,-1.246992 1.697056,-1.697056 1.246992,-2.147121 0.636487,-2.4 0,-2.4 c -0.636487,0 -1.246992,0.252879 -1.697056,0.702944 C -2.147121,-1.246992 -2.4,-0.636487 -2.4,0 c 0,0.636487 0.252879,1.246992 0.702944,1.697056 C -1.246992,2.147121 -0.636487,2.4 0,2.4 Z"
       id="m6522406f1d"
       style="stroke:#4c72b0;stroke-width:1.2" />
    <path
       d="M 0,0 C 0,0 0,0 0,0 0,0 0,0 0,0 0,0 0,0 0,0 0,0 0,0 0,0 0,0 0,0 0,0 0,0 0,0 0,0 0,0 0,0 0,0 0,0 0,0 0,0 Z"
       id="m072e2bfd13"
       style="stroke:#1f77b4;stroke-width:1.2" />
    <path
       d="m 9.8125,72.90625 h 46.09375 v -8.3125 H 19.671875 V 43.015625 h 34.71875 V 34.71875 H 19.671875 V 8.296875 H 56.78125 V 0 H 9.8125 Z"
       id="DejaVuSans-69" />
    <path
       d="m 48.6875,27.296875 q 0,9.90625 -4.078125,15.546875 -4.078125,5.640625 -11.203125,5.640625 -7.140625,0 -11.21875,-5.640625 -4.078125,-5.640625 -4.078125,-15.546875 0,-9.90625 4.078125,-15.546875 4.078125,-5.640625 11.21875,-5.640625 7.125,0 11.203125,5.640625 4.078125,5.640625 4.078125,15.546875 z m -30.578125,19.09375 q 2.84375,4.875 7.15625,7.234375 Q 29.59375,56 35.59375,56 q 9.96875,0 16.1875,-7.90625 6.234375,-7.90625 6.234375,-20.796875 0,-12.890625 -6.234375,-20.8125 -6.21875,-7.90625 -16.1875,-7.90625 -6,0 -10.328125,2.375 -4.3125,2.375 -7.15625,7.25 V 0 h -9.03125 v 75.984375 h 9.03125 z"
       id="DejaVuSans-98" />
    <path
       d="M 0,2.4 C 0.636487,2.4 1.246992,2.147121 1.697056,1.697056 2.147121,1.246992 2.4,0.636487 2.4,0 2.4,-0.636487 2.147121,-1.246992 1.697056,-1.697056 1.246992,-2.147121 0.636487,-2.4 0,-2.4 c -0.636487,0 -1.246992,0.252879 -1.697056,0.702944 C -2.147121,-1.246992 -2.4,-0.636487 -2.4,0 c 0,0.636487 0.252879,1.246992 0.702944,1.697056 C -1.246992,2.147121 -0.636487,2.4 0,2.4 Z"
       id="mab303aaac4"
       style="stroke:#000000" />
    <path
       d="m 4.890625,31.390625 h 26.3125 v -8 h -26.3125 z"
       id="DejaVuSans-45" />
    <path
       d="M 0,2.4 C 0.636487,2.4 1.246992,2.147121 1.697056,1.697056 2.147121,1.246992 2.4,0.636487 2.4,0 2.4,-0.636487 2.147121,-1.246992 1.697056,-1.697056 1.246992,-2.147121 0.636487,-2.4 0,-2.4 c -0.636487,0 -1.246992,0.252879 -1.697056,0.702944 C -2.147121,-1.246992 -2.4,-0.636487 -2.4,0 c 0,0.636487 0.252879,1.246992 0.702944,1.697056 C -1.246992,2.147121 -0.636487,2.4 0,2.4 Z"
       id="ma23159b92b"
       style="stroke:#000000" />
    <path
       d="M 10.984375,1.515625 V 10.5 Q 14.703125,8.734375 18.5,7.8125 q 3.8125,-0.921875 7.484375,-0.921875 9.765625,0 14.90625,6.5625 5.15625,6.5625 5.890625,19.953125 -2.828125,-4.203125 -7.1875,-6.453125 -4.34375,-2.25 -9.609375,-2.25 -10.9375,0 -17.3125,6.609375 -6.375,6.625 -6.375,18.109375 0,11.21875 6.640625,18 6.640625,6.796875 17.671875,6.796875 12.65625,0 19.3125,-9.703125 6.671875,-9.6875 6.671875,-28.140625 0,-17.234375 -8.1875,-27.515625 -8.171875,-10.28125 -21.984375,-10.28125 -3.71875,0 -7.53125,0.734375 -3.796875,0.734375 -7.90625,2.203125 z m 19.625,30.90625 q 6.640625,0 10.515625,4.53125 3.890625,4.546875 3.890625,12.46875 0,7.859375 -3.890625,12.421875 -3.875,4.5625 -10.515625,4.5625 -6.640625,0 -10.515625,-4.5625 -3.875,-4.5625 -3.875,-12.421875 0,-7.921875 3.875,-12.46875 3.875,-4.53125 10.515625,-4.53125 z"
       id="DejaVuSans-57" />
    <clipPath
       id="clipPath5459">
      <rect
         height="167.18401"
         width="98.31086"
         x="53.098438"
         y="12"
         id="rect5457" />
    </clipPath>
    <clipPath
       id="clipPath5463">
      <rect
         height="167.18401"
         width="98.31086"
         x="161.24039"
         y="12"
         id="rect5461" />
    </clipPath>
    <defs
       id="defs3368">
      <style
         type="text/css"
         id="style6197">
*{stroke-linecap:butt;stroke-linejoin:round;}
  </style>
    </defs>
    <defs
       id="defs4258">
      <clipPath
         id="clipPath6793">
        <rect
           height="167.18401"
           width="98.31086"
           x="53.098438"
           y="12"
           id="rect6791" />
      </clipPath>
      <clipPath
         id="clipPath6797">
        <rect
           height="167.18401"
           width="98.31086"
           x="161.24039"
           y="12"
           id="rect6795" />
      </clipPath>
    </defs>
    <path
       d="M 0,0 C 0,0 0,0 0,0 0,0 0,0 0,0 0,0 0,0 0,0 0,0 0,0 0,0 0,0 0,0 0,0 0,0 0,0 0,0 0,0 0,0 0,0 0,0 0,0 0,0 Z"
       id="path6718"
       style="stroke:#1f77b4;stroke-width:1.2" />
    <path
       d="m 9.8125,72.90625 h 46.09375 v -8.3125 H 19.671875 V 43.015625 h 34.71875 V 34.71875 H 19.671875 V 8.296875 H 56.78125 V 0 H 9.8125 Z"
       id="path6724" />
    <path
       d="m 48.6875,27.296875 q 0,9.90625 -4.078125,15.546875 -4.078125,5.640625 -11.203125,5.640625 -7.140625,0 -11.21875,-5.640625 -4.078125,-5.640625 -4.078125,-15.546875 0,-9.90625 4.078125,-15.546875 4.078125,-5.640625 11.21875,-5.640625 7.125,0 11.203125,5.640625 4.078125,5.640625 4.078125,15.546875 z m -30.578125,19.09375 q 2.84375,4.875 7.15625,7.234375 Q 29.59375,56 35.59375,56 q 9.96875,0 16.1875,-7.90625 6.234375,-7.90625 6.234375,-20.796875 0,-12.890625 -6.234375,-20.8125 -6.21875,-7.90625 -16.1875,-7.90625 -6,0 -10.328125,2.375 -4.3125,2.375 -7.15625,7.25 V 0 h -9.03125 v 75.984375 h 9.03125 z"
       id="path6726" />
    <path
       d="M 0,2.4 C 0.636487,2.4 1.246992,2.147121 1.697056,1.697056 2.147121,1.246992 2.4,0.636487 2.4,0 2.4,-0.636487 2.147121,-1.246992 1.697056,-1.697056 1.246992,-2.147121 0.636487,-2.4 0,-2.4 c -0.636487,0 -1.246992,0.252879 -1.697056,0.702944 C -2.147121,-1.246992 -2.4,-0.636487 -2.4,0 c 0,0.636487 0.252879,1.246992 0.702944,1.697056 C -1.246992,2.147121 -0.636487,2.4 0,2.4 Z"
       id="path6750"
       style="stroke:#000000" />
    <path
       d="m 4.890625,31.390625 h 26.3125 v -8 h -26.3125 z"
       id="path6756" />
    <path
       d="M 0,2.4 C 0.636487,2.4 1.246992,2.147121 1.697056,1.697056 2.147121,1.246992 2.4,0.636487 2.4,0 2.4,-0.636487 2.147121,-1.246992 1.697056,-1.697056 1.246992,-2.147121 0.636487,-2.4 0,-2.4 c -0.636487,0 -1.246992,0.252879 -1.697056,0.702944 C -2.147121,-1.246992 -2.4,-0.636487 -2.4,0 c 0,0.636487 0.252879,1.246992 0.702944,1.697056 C -1.246992,2.147121 -0.636487,2.4 0,2.4 Z"
       id="path6770"
       style="stroke:#000000" />
    <path
       d="M 10.984375,1.515625 V 10.5 Q 14.703125,8.734375 18.5,7.8125 q 3.8125,-0.921875 7.484375,-0.921875 9.765625,0 14.90625,6.5625 5.15625,6.5625 5.890625,19.953125 -2.828125,-4.203125 -7.1875,-6.453125 -4.34375,-2.25 -9.609375,-2.25 -10.9375,0 -17.3125,6.609375 -6.375,6.625 -6.375,18.109375 0,11.21875 6.640625,18 6.640625,6.796875 17.671875,6.796875 12.65625,0 19.3125,-9.703125 6.671875,-9.6875 6.671875,-28.140625 0,-17.234375 -8.1875,-27.515625 -8.171875,-10.28125 -21.984375,-10.28125 -3.71875,0 -7.53125,0.734375 -3.796875,0.734375 -7.90625,2.203125 z m 19.625,30.90625 q 6.640625,0 10.515625,4.53125 3.890625,4.546875 3.890625,12.46875 0,7.859375 -3.890625,12.421875 -3.875,4.5625 -10.515625,4.5625 -6.640625,0 -10.515625,-4.5625 -3.875,-4.5625 -3.875,-12.421875 0,-7.921875 3.875,-12.46875 3.875,-4.53125 10.515625,-4.53125 z"
       id="path6776" />
  </defs>
  <sodipodi:namedview
     id="base"
     pagecolor="#ffffff"
     bordercolor="#666666"
     borderopacity="1.0"
     inkscape:pageopacity="0.0"
     inkscape:pageshadow="2"
     inkscape:zoom="1"
     inkscape:cx="976.80357"
     inkscape:cy="600.24636"
     inkscape:document-units="px"
     inkscape:current-layer="layer1"
     showgrid="false"
     units="px"
     inkscape:window-width="3840"
     inkscape:window-height="2122"
     inkscape:window-x="1920"
     inkscape:window-y="38"
     inkscape:window-maximized="1"
     inkscape:document-rotation="0" />
  <metadata
     id="metadata5">
    <rdf:RDF>
      <cc:Work
         rdf:about="">
        <dc:format>image/svg+xml</dc:format>
        <dc:type
           rdf:resource="http://purl.org/dc/dcmitype/StillImage" />
        <dc:title />
      </cc:Work>
    </rdf:RDF>
  </metadata>
  <g
     inkscape:label="Layer 1"
     inkscape:groupmode="layer"
     id="layer1"
     transform="translate(0,-11.249983)">
    <g
       id="patch_2"
       transform="matrix(3.9036329,0,0,3.9036329,180.92406,129.45343)">
      <path
         d="M 53.098438,179.184 H 151.40929 V 12 H 53.098438 Z"
         style="fill:#ffffff"
         id="path3373" />
    </g>
    <g
       id="matplotlib.axis_1"
       transform="matrix(3.9036329,0,0,3.9036329,180.92406,129.45343)">
      <g
         id="xtick_1">
        <g
           id="line2d_1">
          <defs
             id="defs3377">
            <path
               d="M 0,0 V 4.8"
               id="path6204"
               style="stroke:#262626" />
          </defs>
          <g
             id="g3381">
            <use
               style="fill:#262626;stroke:#262626"
               x="58.789482"
               xlink:href="#m7861fa3402"
               y="179.18401"
               id="use3379"
               width="100%"
               height="100%" />
          </g>
        </g>
        <g
           id="text_1">
          <!-- $\mathdefault{10^{-1}}$ -->
          <defs
             id="defs3387">
            <path
               d="m 12.40625,8.296875 h 16.109375 v 55.625 L 10.984375,60.40625 v 8.984375 l 17.4375,3.515625 H 38.28125 V 8.296875 H 54.390625 V 0 H 12.40625 Z"
               id="path6210" />
            <path
               d="m 31.78125,66.40625 q -7.609375,0 -11.453125,-7.5 Q 16.5,51.421875 16.5,36.375 q 0,-14.984375 3.828125,-22.484375 3.84375,-7.5 11.453125,-7.5 7.671875,0 11.5,7.5 3.84375,7.5 3.84375,22.484375 0,15.046875 -3.84375,22.53125 -3.828125,7.5 -11.5,7.5 z m 0,7.8125 q 12.265625,0 18.734375,-9.703125 6.46875,-9.6875 6.46875,-28.140625 0,-18.40625 -6.46875,-28.109375 -6.46875,-9.6875 -18.734375,-9.6875 -12.25,0 -18.71875,9.6875 Q 6.59375,17.96875 6.59375,36.375 q 0,18.453125 6.46875,28.140625 6.46875,9.703125 18.71875,9.703125 z"
               id="path6212" />
            <path
               d="M 10.59375,35.5 H 73.1875 V 27.203125 H 10.59375 Z"
               id="path6214" />
          </defs>
          <g
             style="fill:#262626"
             transform="matrix(0.08,0,0,-0.08,49.389482,193.56275)"
             id="g3397">
            <use
               transform="translate(0,0.684375)"
               xlink:href="#DejaVuSans-49"
               id="use3389"
               x="0"
               y="0"
               width="100%"
               height="100%" />
            <use
               transform="translate(63.623047,0.684375)"
               xlink:href="#DejaVuSans-48"
               id="use3391"
               x="0"
               y="0"
               width="100%"
               height="100%" />
            <use
               transform="matrix(0.7,0,0,0.7,128.20312,38.965625)"
               xlink:href="#DejaVuSans-8722"
               id="use3393"
               x="0"
               y="0"
               width="100%"
               height="100%" />
            <use
               transform="matrix(0.7,0,0,0.7,186.85547,38.965625)"
               xlink:href="#DejaVuSans-49"
               id="use3395"
               x="0"
               y="0"
               width="100%"
               height="100%" />
          </g>
        </g>
      </g>
      <g
         id="xtick_2">
        <g
           id="line2d_2">
          <g
             id="g3403">
            <use
               style="fill:#262626;stroke:#262626"
               x="104.81383"
               xlink:href="#m7861fa3402"
               y="179.18401"
               id="use3401"
               width="100%"
               height="100%" />
          </g>
        </g>
        <g
           id="text_2">
          <!-- $\mathdefault{10^{0}}$ -->
          <g
             style="fill:#262626"
             transform="matrix(0.08,0,0,-0.08,97.773825,193.56275)"
             id="g3412">
            <use
               transform="translate(0,0.765625)"
               xlink:href="#DejaVuSans-49"
               id="use3406"
               x="0"
               y="0"
               width="100%"
               height="100%" />
            <use
               transform="translate(63.623047,0.765625)"
               xlink:href="#DejaVuSans-48"
               id="use3408"
               x="0"
               y="0"
               width="100%"
               height="100%" />
            <use
               transform="matrix(0.7,0,0,0.7,128.20312,39.046875)"
               xlink:href="#DejaVuSans-48"
               id="use3410"
               x="0"
               y="0"
               width="100%"
               height="100%" />
          </g>
        </g>
      </g>
      <g
         id="xtick_3">
        <g
           id="line2d_3">
          <g
             id="g3418">
            <use
               style="fill:#262626;stroke:#262626"
               x="150.83817"
               xlink:href="#m7861fa3402"
               y="179.18401"
               id="use3416"
               width="100%"
               height="100%" />
          </g>
        </g>
        <g
           id="text_3">
          <!-- $\mathdefault{10^{1}}$ -->
          <g
             style="fill:#262626"
             transform="matrix(0.08,0,0,-0.08,143.79817,193.56275)"
             id="g3427">
            <use
               transform="translate(0,0.684375)"
               xlink:href="#DejaVuSans-49"
               id="use3421"
               x="0"
               y="0"
               width="100%"
               height="100%" />
            <use
               transform="translate(63.623047,0.684375)"
               xlink:href="#DejaVuSans-48"
               id="use3423"
               x="0"
               y="0"
               width="100%"
               height="100%" />
            <use
               transform="matrix(0.7,0,0,0.7,128.20312,38.965625)"
               xlink:href="#DejaVuSans-49"
               id="use3425"
               x="0"
               y="0"
               width="100%"
               height="100%" />
          </g>
        </g>
      </g>
      <g
         id="xtick_4">
        <g
           id="line2d_4">
          <defs
             id="defs3432">
            <path
               d="M 0,0 V 3.2"
               id="path6242"
               style="stroke:#262626;stroke-width:0.8" />
          </defs>
          <g
             id="g3436">
            <use
               style="fill:#262626;stroke:#262626;stroke-width:0.8"
               x="54.329262"
               xlink:href="#m60763830e0"
               y="179.18401"
               id="use3434"
               width="100%"
               height="100%" />
          </g>
        </g>
      </g>
      <g
         id="xtick_5">
        <g
           id="line2d_5">
          <g
             id="g3442">
            <use
               style="fill:#262626;stroke:#262626;stroke-width:0.8"
               x="56.683521"
               xlink:href="#m60763830e0"
               y="179.18401"
               id="use3440"
               width="100%"
               height="100%" />
          </g>
        </g>
      </g>
      <g
         id="xtick_6">
        <g
           id="line2d_6">
          <g
             id="g3448">
            <use
               style="fill:#262626;stroke:#262626;stroke-width:0.8"
               x="72.644188"
               xlink:href="#m60763830e0"
               y="179.18401"
               id="use3446"
               width="100%"
               height="100%" />
          </g>
        </g>
      </g>
      <g
         id="xtick_7">
        <g
           id="line2d_7">
          <g
             id="g3454">
            <use
               style="fill:#262626;stroke:#262626;stroke-width:0.8"
               x="80.748672"
               xlink:href="#m60763830e0"
               y="179.18401"
               id="use3452"
               width="100%"
               height="100%" />
          </g>
        </g>
      </g>
      <g
         id="xtick_8">
        <g
           id="line2d_8">
          <g
             id="g3460">
            <use
               style="fill:#262626;stroke:#262626;stroke-width:0.8"
               x="86.498901"
               xlink:href="#m60763830e0"
               y="179.18401"
               id="use3458"
               width="100%"
               height="100%" />
          </g>
        </g>
      </g>
      <g
         id="xtick_9">
        <g
           id="line2d_9">
          <g
             id="g3466">
            <use
               style="fill:#262626;stroke:#262626;stroke-width:0.8"
               x="90.959114"
               xlink:href="#m60763830e0"
               y="179.18401"
               id="use3464"
               width="100%"
               height="100%" />
          </g>
        </g>
      </g>
      <g
         id="xtick_10">
        <g
           id="line2d_10">
          <g
             id="g3472">
            <use
               style="fill:#262626;stroke:#262626;stroke-width:0.8"
               x="94.603378"
               xlink:href="#m60763830e0"
               y="179.18401"
               id="use3470"
               width="100%"
               height="100%" />
          </g>
        </g>
      </g>
      <g
         id="xtick_11">
        <g
           id="line2d_11">
          <g
             id="g3478">
            <use
               style="fill:#262626;stroke:#262626;stroke-width:0.8"
               x="97.684563"
               xlink:href="#m60763830e0"
               y="179.18401"
               id="use3476"
               width="100%"
               height="100%" />
          </g>
        </g>
      </g>
      <g
         id="xtick_12">
        <g
           id="line2d_12">
          <g
             id="g3484">
            <use
               style="fill:#262626;stroke:#262626;stroke-width:0.8"
               x="100.35361"
               xlink:href="#m60763830e0"
               y="179.18401"
               id="use3482"
               width="100%"
               height="100%" />
          </g>
        </g>
      </g>
      <g
         id="xtick_13">
        <g
           id="line2d_13">
          <g
             id="g3490">
            <use
               style="fill:#262626;stroke:#262626;stroke-width:0.8"
               x="102.70787"
               xlink:href="#m60763830e0"
               y="179.18401"
               id="use3488"
               width="100%"
               height="100%" />
          </g>
        </g>
      </g>
      <g
         id="xtick_14">
        <g
           id="line2d_14">
          <g
             id="g3496">
            <use
               style="fill:#262626;stroke:#262626;stroke-width:0.8"
               x="118.66853"
               xlink:href="#m60763830e0"
               y="179.18401"
               id="use3494"
               width="100%"
               height="100%" />
          </g>
        </g>
      </g>
      <g
         id="xtick_15">
        <g
           id="line2d_15">
          <g
             id="g3502">
            <use
               style="fill:#262626;stroke:#262626;stroke-width:0.8"
               x="126.77302"
               xlink:href="#m60763830e0"
               y="179.18401"
               id="use3500"
               width="100%"
               height="100%" />
          </g>
        </g>
      </g>
      <g
         id="xtick_16">
        <g
           id="line2d_16">
          <g
             id="g3508">
            <use
               style="fill:#262626;stroke:#262626;stroke-width:0.8"
               x="132.52324"
               xlink:href="#m60763830e0"
               y="179.18401"
               id="use3506"
               width="100%"
               height="100%" />
          </g>
        </g>
      </g>
      <g
         id="xtick_17">
        <g
           id="line2d_17">
          <g
             id="g3514">
            <use
               style="fill:#262626;stroke:#262626;stroke-width:0.8"
               x="136.98346"
               xlink:href="#m60763830e0"
               y="179.18401"
               id="use3512"
               width="100%"
               height="100%" />
          </g>
        </g>
      </g>
      <g
         id="xtick_18">
        <g
           id="line2d_18">
          <g
             id="g3520">
            <use
               style="fill:#262626;stroke:#262626;stroke-width:0.8"
               x="140.62773"
               xlink:href="#m60763830e0"
               y="179.18401"
               id="use3518"
               width="100%"
               height="100%" />
          </g>
        </g>
      </g>
      <g
         id="xtick_19">
        <g
           id="line2d_19">
          <g
             id="g3526">
            <use
               style="fill:#262626;stroke:#262626;stroke-width:0.8"
               x="143.70891"
               xlink:href="#m60763830e0"
               y="179.18401"
               id="use3524"
               width="100%"
               height="100%" />
          </g>
        </g>
      </g>
      <g
         id="xtick_20">
        <g
           id="line2d_20">
          <g
             id="g3532">
            <use
               style="fill:#262626;stroke:#262626;stroke-width:0.8"
               x="146.37794"
               xlink:href="#m60763830e0"
               y="179.18401"
               id="use3530"
               width="100%"
               height="100%" />
          </g>
        </g>
      </g>
      <g
         id="xtick_21">
        <g
           id="line2d_21">
          <g
             id="g3538">
            <use
               style="fill:#262626;stroke:#262626;stroke-width:0.8"
               x="148.73221"
               xlink:href="#m60763830e0"
               y="179.18401"
               id="use3536"
               width="100%"
               height="100%" />
          </g>
        </g>
      </g>
      <g
         id="text_4">
        <!-- Local spatial frequency (cpd) -->
        <defs
           id="defs3562">
          <path
             d="m 9.8125,72.90625 h 9.859375 V 8.296875 h 35.5 V 0 H 9.8125 Z"
             id="path6317" />
          <path
             d="m 30.609375,48.390625 q -7.21875,0 -11.421875,-5.640625 -4.203125,-5.640625 -4.203125,-15.453125 0,-9.8125 4.171875,-15.453125 4.1875,-5.640625 11.453125,-5.640625 7.1875,0 11.375,5.65625 4.203125,5.671875 4.203125,15.4375 0,9.71875 -4.203125,15.40625 -4.1875,5.6875 -11.375,5.6875 z m 0,7.609375 q 11.71875,0 18.40625,-7.625 6.703125,-7.609375 6.703125,-21.078125 0,-13.421875 -6.703125,-21.078125 -6.6875,-7.640625 -18.40625,-7.640625 -11.765625,0 -18.4375,7.640625 -6.65625,7.65625 -6.65625,21.078125 0,13.46875 6.65625,21.078125 Q 18.84375,56 30.609375,56 Z"
             id="path6319" />
          <path
             d="M 48.78125,52.59375 V 44.1875 q -3.8125,2.109375 -7.640625,3.15625 -3.828125,1.046875 -7.734375,1.046875 -8.75,0 -13.59375,-5.546875 -4.828125,-5.53125 -4.828125,-15.546875 0,-10.015625 4.828125,-15.5625 4.84375,-5.53125 13.59375,-5.53125 3.90625,0 7.734375,1.046875 3.828125,1.046875 7.640625,3.15625 v -8.3125 q -3.765625,-1.75 -7.796875,-2.625 -4.015625,-0.890625 -8.5625,-0.890625 -12.359375,0 -19.640625,7.765625 -7.265625,7.765625 -7.265625,20.953125 0,13.375 7.34375,21.03125 Q 20.21875,56 33.015625,56 q 4.140625,0 8.09375,-0.859375 3.953125,-0.84375 7.671875,-2.546875 z"
             id="path6321" />
          <path
             d="m 34.28125,27.484375 q -10.890625,0 -15.09375,-2.484375 -4.203125,-2.484375 -4.203125,-8.5 0,-4.78125 3.15625,-7.59375 3.15625,-2.796875 8.5625,-2.796875 7.484375,0 12,5.296875 4.515625,5.296875 4.515625,14.078125 v 2 z m 17.921875,3.71875 V 0 H 43.21875 v 8.296875 q -3.078125,-4.96875 -7.671875,-7.34375 -4.59375,-2.375 -11.234375,-2.375 -8.390625,0 -13.359375,4.71875 Q 6,8.015625 6,15.921875 q 0,9.21875 6.171875,13.90625 6.1875,4.6875 18.4375,4.6875 H 43.21875 v 0.890625 q 0,6.203125 -4.078125,9.59375 -4.078125,3.390625 -11.453125,3.390625 -4.6875,0 -9.140625,-1.125 -4.4375,-1.125 -8.53125,-3.375 v 8.3125 q 4.921875,1.90625 9.5625,2.84375 Q 24.21875,56 28.609375,56 q 11.875,0 17.734375,-6.15625 5.859375,-6.140625 5.859375,-18.640625 z"
             id="path6323" />
          <path
             d="M 9.421875,75.984375 H 18.40625 V 0 H 9.421875 Z"
             id="path6325" />
          <path
             id="path6327"
             d="" />
          <path
             d="m 44.28125,53.078125 v -8.5 Q 40.484375,46.53125 36.375,47.5 q -4.09375,0.984375 -8.5,0.984375 -6.6875,0 -10.03125,-2.046875 Q 14.5,44.390625 14.5,40.28125 q 0,-3.125 2.390625,-4.90625 2.390625,-1.78125 9.625,-3.390625 l 3.078125,-0.6875 Q 39.15625,29.25 43.1875,25.515625 47.21875,21.78125 47.21875,15.09375 q 0,-7.625 -6.03125,-12.078125 -6.03125,-4.4375 -16.578125,-4.4375 -4.390625,0 -9.15625,0.859375 Q 10.6875,0.296875 5.421875,2 v 9.28125 q 4.984375,-2.59375 9.8125,-3.890625 4.828125,-1.28125 9.578125,-1.28125 6.34375,0 9.75,2.171875 3.421875,2.171875 3.421875,6.125 0,3.65625 -2.46875,5.609375 -2.453125,1.953125 -10.8125,3.765625 l -3.125,0.734375 q -8.34375,1.75 -12.0625,5.390625 -3.703125,3.640625 -3.703125,9.984375 0,7.71875 5.46875,11.90625 Q 16.75,56 26.8125,56 q 4.96875,0 9.359375,-0.734375 4.40625,-0.71875 8.109375,-2.1875 z"
             id="path6329" />
          <path
             d="m 18.109375,8.203125 v -29 H 9.078125 V 54.6875 h 9.03125 v -8.296875 q 2.84375,4.875 7.15625,7.234375 Q 29.59375,56 35.59375,56 q 9.96875,0 16.1875,-7.90625 6.234375,-7.90625 6.234375,-20.796875 0,-12.890625 -6.234375,-20.8125 -6.21875,-7.90625 -16.1875,-7.90625 -6,0 -10.328125,2.375 -4.3125,2.375 -7.15625,7.25 z M 48.6875,27.296875 q 0,9.90625 -4.078125,15.546875 -4.078125,5.640625 -11.203125,5.640625 -7.140625,0 -11.21875,-5.640625 -4.078125,-5.640625 -4.078125,-15.546875 0,-9.90625 4.078125,-15.546875 4.078125,-5.640625 11.21875,-5.640625 7.125,0 11.203125,5.640625 4.078125,5.640625 4.078125,15.546875 z"
             id="path6331" />
          <path
             d="M 18.3125,70.21875 V 54.6875 h 18.5 v -6.984375 h -18.5 v -29.6875 q 0,-6.6875 1.828125,-8.59375 1.828125,-1.90625 7.453125,-1.90625 H 36.8125 V 0 H 27.59375 Q 17.1875,0 13.234375,3.875 9.28125,7.765625 9.28125,18.015625 v 29.6875 H 2.6875 V 54.6875 h 6.59375 v 15.53125 z"
             id="path6333" />
          <path
             d="M 9.421875,54.6875 H 18.40625 V 0 H 9.421875 Z m 0,21.296875 H 18.40625 V 64.59375 H 9.421875 Z"
             id="path6335" />
          <path
             d="M 37.109375,75.984375 V 68.5 h -8.59375 q -4.828125,0 -6.71875,-1.953125 -1.875,-1.953125 -1.875,-7.03125 V 54.6875 H 34.71875 V 47.703125 H 19.921875 V 0 h -9.03125 V 47.703125 H 2.296875 V 54.6875 h 8.59375 V 58.5 q 0,9.125 4.25,13.296875 4.25,4.1875 13.46875,4.1875 z"
             id="path6337" />
          <path
             d="m 41.109375,46.296875 q -1.515625,0.875 -3.296875,1.28125 Q 36.03125,48 33.890625,48 26.265625,48 22.1875,43.046875 18.109375,38.09375 18.109375,28.8125 V 0 h -9.03125 v 54.6875 h 9.03125 v -8.5 q 2.84375,4.984375 7.375,7.390625 Q 30.03125,56 36.53125,56 q 0.921875,0 2.046875,-0.125 1.125,-0.109375 2.484375,-0.359375 z"
             id="path6339" />
          <path
             d="m 56.203125,29.59375 v -4.390625 h -41.3125 q 0.59375,-9.28125 5.59375,-14.140625 5,-4.859375 13.9375,-4.859375 5.171875,0 10.03125,1.265625 4.859375,1.265625 9.65625,3.8125 v -8.5 q -4.84375,-2.046875 -9.921875,-3.125 -5.078125,-1.078125 -10.296875,-1.078125 -13.09375,0 -20.734375,7.609375 -7.640625,7.625 -7.640625,20.625 0,13.421875 7.25,21.296875 Q 20.015625,56 32.328125,56 q 11.03125,0 17.453125,-7.109375 6.421875,-7.09375 6.421875,-19.296875 z m -8.984375,2.640625 q -0.09375,7.359375 -4.125,11.75 -4.03125,4.40625 -10.671875,4.40625 -7.515625,0 -12.03125,-4.25 -4.515625,-4.25 -5.203125,-11.96875 z"
             id="path6341" />
          <path
             d="m 14.796875,27.296875 q 0,-9.90625 4.078125,-15.546875 4.078125,-5.640625 11.203125,-5.640625 7.125,0 11.21875,5.640625 4.109375,5.640625 4.109375,15.546875 0,9.90625 -4.109375,15.546875 -4.09375,5.640625 -11.21875,5.640625 -7.125,0 -11.203125,-5.640625 -4.078125,-5.640625 -4.078125,-15.546875 z M 45.40625,8.203125 q -2.828125,-4.875 -7.15625,-7.25 -4.3125,-2.375 -10.375,-2.375 -9.90625,0 -16.140625,7.90625 -6.21875,7.921875 -6.21875,20.8125 0,12.890625 6.21875,20.796875 Q 17.96875,56 27.875,56 q 6.0625,0 10.375,-2.375 4.328125,-2.359375 7.15625,-7.234375 V 54.6875 h 8.984375 V -20.796875 H 45.40625 Z"
             id="path6343" />
          <path
             d="M 8.5,21.578125 V 54.6875 h 8.984375 V 21.921875 q 0,-7.765625 3.015625,-11.65625 3.03125,-3.875 9.09375,-3.875 7.265625,0 11.484375,4.640625 4.234375,4.640625 4.234375,12.65625 v 31 h 8.984375 V 0 H 45.3125 V 8.40625 Q 42.046875,3.421875 37.71875,1 33.40625,-1.421875 27.6875,-1.421875 18.265625,-1.421875 13.375,4.4375 8.5,10.296875 8.5,21.578125 Z M 31.109375,56 Z"
             id="path6345" />
          <path
             d="M 54.890625,33.015625 V 0 H 45.90625 v 32.71875 q 0,7.765625 -3.03125,11.609375 -3.03125,3.859375 -9.078125,3.859375 -7.28125,0 -11.484375,-4.640625 -4.203125,-4.625 -4.203125,-12.640625 V 0 h -9.03125 v 54.6875 h 9.03125 v -8.5 q 3.234375,4.9375 7.59375,7.375 4.375,2.4375 10.09375,2.4375 9.421875,0 14.25,-5.828125 4.84375,-5.828125 4.84375,-17.15625 z"
             id="path6347" />
          <path
             d="M 32.171875,-5.078125 Q 28.375,-14.84375 24.75,-17.8125 q -3.609375,-2.984375 -9.65625,-2.984375 h -7.1875 v 7.515625 h 5.28125 q 3.703125,0 5.75,1.765625 2.0625,1.75 4.546875,8.296875 L 25.09375,0.875 2.984375,54.6875 H 12.5 L 29.59375,11.921875 46.6875,54.6875 h 9.515625 z"
             id="path6349" />
          <path
             d="M 31,75.875 Q 24.46875,64.65625 21.28125,53.65625 18.109375,42.671875 18.109375,31.390625 18.109375,20.125 21.3125,9.0625 24.515625,-2 31,-13.1875 H 23.1875 Q 15.875,-1.703125 12.234375,9.375 8.59375,20.453125 8.59375,31.390625 q 0,10.890625 3.609375,21.921875 3.625,11.046875 10.984375,22.5625 z"
             id="path6351" />
          <path
             d="m 45.40625,46.390625 v 29.59375 h 8.984375 V 0 H 45.40625 v 8.203125 q -2.828125,-4.875 -7.15625,-7.25 -4.3125,-2.375 -10.375,-2.375 -9.90625,0 -16.140625,7.90625 -6.21875,7.921875 -6.21875,20.8125 0,12.890625 6.21875,20.796875 Q 17.96875,56 27.875,56 q 6.0625,0 10.375,-2.375 4.328125,-2.359375 7.15625,-7.234375 z M 14.796875,27.296875 q 0,-9.90625 4.078125,-15.546875 4.078125,-5.640625 11.203125,-5.640625 7.125,0 11.21875,5.640625 4.109375,5.640625 4.109375,15.546875 0,9.90625 -4.109375,15.546875 -4.09375,5.640625 -11.21875,5.640625 -7.125,0 -11.203125,-5.640625 -4.078125,-5.640625 -4.078125,-15.546875 z"
             id="path6353" />
          <path
             d="m 8.015625,75.875 h 7.8125 q 7.3125,-11.515625 10.953125,-22.5625 3.640625,-11.03125 3.640625,-21.921875 0,-10.9375 -3.640625,-22.015625 -3.640625,-11.078125 -10.953125,-22.5625 h -7.8125 Q 14.5,-2 17.703125,9.0625 20.90625,20.125 20.90625,31.390625 q 0,11.28125 -3.203125,22.265625 -3.203125,11 -9.6875,22.21875 z"
             id="path6355" />
        </defs>
        <g
           style="fill:#262626"
           transform="matrix(0.1,0,0,-0.1,78.763201,206.82494)"
           id="g3622">
          <use
             xlink:href="#DejaVuSans-76"
             id="use3564"
             x="0"
             y="0"
             width="100%"
             height="100%" />
          <use
             x="55.697266"
             xlink:href="#DejaVuSans-111"
             id="use3566"
             y="0"
             width="100%"
             height="100%" />
          <use
             x="116.87891"
             xlink:href="#DejaVuSans-99"
             id="use3568"
             y="0"
             width="100%"
             height="100%" />
          <use
             x="171.85938"
             xlink:href="#DejaVuSans-97"
             id="use3570"
             y="0"
             width="100%"
             height="100%" />
          <use
             x="233.13867"
             xlink:href="#DejaVuSans-108"
             id="use3572"
             y="0"
             width="100%"
             height="100%" />
          <use
             x="260.92188"
             xlink:href="#DejaVuSans-32"
             id="use3574"
             y="0"
             width="100%"
             height="100%" />
          <use
             x="292.70898"
             xlink:href="#DejaVuSans-115"
             id="use3576"
             y="0"
             width="100%"
             height="100%" />
          <use
             x="344.80859"
             xlink:href="#DejaVuSans-112"
             id="use3578"
             y="0"
             width="100%"
             height="100%" />
          <use
             x="408.28516"
             xlink:href="#DejaVuSans-97"
             id="use3580"
             y="0"
             width="100%"
             height="100%" />
          <use
             x="469.56445"
             xlink:href="#DejaVuSans-116"
             id="use3582"
             y="0"
             width="100%"
             height="100%" />
          <use
             x="508.77344"
             xlink:href="#DejaVuSans-105"
             id="use3584"
             y="0"
             width="100%"
             height="100%" />
          <use
             x="536.55664"
             xlink:href="#DejaVuSans-97"
             id="use3586"
             y="0"
             width="100%"
             height="100%" />
          <use
             x="597.83594"
             xlink:href="#DejaVuSans-108"
             id="use3588"
             y="0"
             width="100%"
             height="100%" />
          <use
             x="625.61914"
             xlink:href="#DejaVuSans-32"
             id="use3590"
             y="0"
             width="100%"
             height="100%" />
          <use
             x="657.40625"
             xlink:href="#DejaVuSans-102"
             id="use3592"
             y="0"
             width="100%"
             height="100%" />
          <use
             x="692.61133"
             xlink:href="#DejaVuSans-114"
             id="use3594"
             y="0"
             width="100%"
             height="100%" />
          <use
             x="733.69336"
             xlink:href="#DejaVuSans-101"
             id="use3596"
             y="0"
             width="100%"
             height="100%" />
          <use
             x="795.2168"
             xlink:href="#DejaVuSans-113"
             id="use3598"
             y="0"
             width="100%"
             height="100%" />
          <use
             x="858.69336"
             xlink:href="#DejaVuSans-117"
             id="use3600"
             y="0"
             width="100%"
             height="100%" />
          <use
             x="922.07227"
             xlink:href="#DejaVuSans-101"
             id="use3602"
             y="0"
             width="100%"
             height="100%" />
          <use
             x="983.5957"
             xlink:href="#DejaVuSans-110"
             id="use3604"
             y="0"
             width="100%"
             height="100%" />
          <use
             x="1046.9746"
             xlink:href="#DejaVuSans-99"
             id="use3606"
             y="0"
             width="100%"
             height="100%" />
          <use
             x="1101.9551"
             xlink:href="#DejaVuSans-121"
             id="use3608"
             y="0"
             width="100%"
             height="100%" />
          <use
             x="1161.1348"
             xlink:href="#DejaVuSans-32"
             id="use3610"
             y="0"
             width="100%"
             height="100%" />
          <use
             x="1192.9219"
             xlink:href="#DejaVuSans-40"
             id="use3612"
             y="0"
             width="100%"
             height="100%" />
          <use
             x="1231.9355"
             xlink:href="#DejaVuSans-99"
             id="use3614"
             y="0"
             width="100%"
             height="100%" />
          <use
             x="1286.916"
             xlink:href="#DejaVuSans-112"
             id="use3616"
             y="0"
             width="100%"
             height="100%" />
          <use
             x="1350.3926"
             xlink:href="#DejaVuSans-100"
             id="use3618"
             y="0"
             width="100%"
             height="100%" />
          <use
             x="1413.8691"
             xlink:href="#DejaVuSans-41"
             id="use3620"
             y="0"
             width="100%"
             height="100%" />
        </g>
      </g>
    </g>
    <g
       id="matplotlib.axis_2"
       transform="matrix(3.9036329,0,0,3.9036329,180.92406,129.45343)">
      <g
         id="ytick_1">
        <g
           id="line2d_22">
          <defs
             id="defs3627">
            <path
               d="M 0,0 H -4.8"
               id="path6390"
               style="stroke:#262626" />
          </defs>
          <g
             id="g3631">
            <use
               style="fill:#262626;stroke:#262626"
               x="53.098438"
               xlink:href="#mba3544325f"
               y="179.18401"
               id="use3629"
               width="100%"
               height="100%" />
          </g>
        </g>
        <g
           id="text_5">
          <!-- 1.0 -->
          <defs
             id="defs3635">
            <path
               d="M 10.6875,12.40625 H 21 V 0 H 10.6875 Z"
               id="path6396" />
          </defs>
          <g
             style="fill:#262626"
             transform="matrix(0.08,0,0,-0.08,32.075938,182.22337)"
             id="g3643">
            <use
               xlink:href="#DejaVuSans-49"
               id="use3637"
               x="0"
               y="0"
               width="100%"
               height="100%" />
            <use
               x="63.623047"
               xlink:href="#DejaVuSans-46"
               id="use3639"
               y="0"
               width="100%"
               height="100%" />
            <use
               x="95.410156"
               xlink:href="#DejaVuSans-48"
               id="use3641"
               y="0"
               width="100%"
               height="100%" />
          </g>
        </g>
      </g>
      <g
         id="ytick_2">
        <g
           id="line2d_23">
          <g
             id="g3649">
            <use
               style="fill:#262626;stroke:#262626"
               x="53.098438"
               xlink:href="#mba3544325f"
               y="145.74719"
               id="use3647"
               width="100%"
               height="100%" />
          </g>
        </g>
        <g
           id="text_6">
          <!-- 1.5 -->
          <defs
             id="defs3653">
            <path
               d="m 10.796875,72.90625 h 38.71875 v -8.3125 h -29.6875 V 46.734375 q 2.140625,0.734375 4.28125,1.09375 2.15625,0.359375 4.3125,0.359375 Q 40.625,48.1875 47.75,41.5 54.890625,34.8125 54.890625,23.390625 54.890625,11.625 47.5625,5.09375 40.234375,-1.421875 26.90625,-1.421875 q -4.59375,0 -9.359375,0.78125 -4.75,0.78125 -9.828125,2.34375 V 11.625 q 4.390625,-2.390625 9.078125,-3.5625 4.6875,-1.171875 9.90625,-1.171875 8.453125,0 13.375,4.4375 4.9375,4.4375 4.9375,12.0625 0,7.609375 -4.9375,12.046875 -4.921875,4.453125 -13.375,4.453125 -3.953125,0 -7.890625,-0.875 -3.921875,-0.875 -8.015625,-2.734375 z"
               id="path6408" />
          </defs>
          <g
             style="fill:#262626"
             transform="matrix(0.08,0,0,-0.08,32.075938,148.78657)"
             id="g3661">
            <use
               xlink:href="#DejaVuSans-49"
               id="use3655"
               x="0"
               y="0"
               width="100%"
               height="100%" />
            <use
               x="63.623047"
               xlink:href="#DejaVuSans-46"
               id="use3657"
               y="0"
               width="100%"
               height="100%" />
            <use
               x="95.410156"
               xlink:href="#DejaVuSans-53"
               id="use3659"
               y="0"
               width="100%"
               height="100%" />
          </g>
        </g>
      </g>
      <g
         id="ytick_3">
        <g
           id="line2d_24">
          <g
             id="g3667">
            <use
               style="fill:#262626;stroke:#262626"
               x="53.098438"
               xlink:href="#mba3544325f"
               y="112.3104"
               id="use3665"
               width="100%"
               height="100%" />
          </g>
        </g>
        <g
           id="text_7">
          <!-- 2.0 -->
          <defs
             id="defs3671">
            <path
               d="M 19.1875,8.296875 H 53.609375 V 0 H 7.328125 v 8.296875 q 5.609375,5.8125 15.296875,15.59375 9.703125,9.796875 12.1875,12.640625 4.734375,5.3125 6.609375,9 1.890625,3.6875 1.890625,7.25 0,5.8125 -4.078125,9.46875 -4.078125,3.671875 -10.625,3.671875 -4.640625,0 -9.796875,-1.609375 -5.140625,-1.609375 -11,-4.890625 v 9.96875 Q 13.765625,71.78125 18.9375,73 q 5.1875,1.21875 9.484375,1.21875 11.328125,0 18.0625,-5.671875 6.734375,-5.65625 6.734375,-15.125 0,-4.5 -1.6875,-8.53125 Q 49.859375,40.875 45.40625,35.40625 44.1875,33.984375 37.640625,27.21875 31.109375,20.453125 19.1875,8.296875 Z"
               id="path6420" />
          </defs>
          <g
             style="fill:#262626"
             transform="matrix(0.08,0,0,-0.08,32.075938,115.34977)"
             id="g3679">
            <use
               xlink:href="#DejaVuSans-50"
               id="use3673"
               x="0"
               y="0"
               width="100%"
               height="100%" />
            <use
               x="63.623047"
               xlink:href="#DejaVuSans-46"
               id="use3675"
               y="0"
               width="100%"
               height="100%" />
            <use
               x="95.410156"
               xlink:href="#DejaVuSans-48"
               id="use3677"
               y="0"
               width="100%"
               height="100%" />
          </g>
        </g>
      </g>
      <g
         id="ytick_4">
        <g
           id="line2d_25">
          <g
             id="g3685">
            <use
               style="fill:#262626;stroke:#262626"
               x="53.098438"
               xlink:href="#mba3544325f"
               y="78.873596"
               id="use3683"
               width="100%"
               height="100%" />
          </g>
        </g>
        <g
           id="text_8">
          <!-- 2.5 -->
          <g
             style="fill:#262626"
             transform="matrix(0.08,0,0,-0.08,32.075938,81.912975)"
             id="g3694">
            <use
               xlink:href="#DejaVuSans-50"
               id="use3688"
               x="0"
               y="0"
               width="100%"
               height="100%" />
            <use
               x="63.623047"
               xlink:href="#DejaVuSans-46"
               id="use3690"
               y="0"
               width="100%"
               height="100%" />
            <use
               x="95.410156"
               xlink:href="#DejaVuSans-53"
               id="use3692"
               y="0"
               width="100%"
               height="100%" />
          </g>
        </g>
      </g>
      <g
         id="ytick_5">
        <g
           id="line2d_26">
          <g
             id="g3700">
            <use
               style="fill:#262626;stroke:#262626"
               x="53.098438"
               xlink:href="#mba3544325f"
               y="45.436798"
               id="use3698"
               width="100%"
               height="100%" />
          </g>
        </g>
        <g
           id="text_9">
          <!-- 3.0 -->
          <defs
             id="defs3704">
            <path
               d="M 40.578125,39.3125 Q 47.65625,37.796875 51.625,33 q 3.984375,-4.78125 3.984375,-11.8125 0,-10.78125 -7.421875,-16.703125 -7.421875,-5.90625 -21.09375,-5.90625 -4.578125,0 -9.4375,0.90625 -4.859375,0.90625 -10.03125,2.71875 v 9.515625 q 4.09375,-2.390625 8.96875,-3.609375 4.890625,-1.21875 10.21875,-1.21875 9.265625,0 14.125,3.65625 4.859375,3.65625 4.859375,10.640625 0,6.453125 -4.515625,10.078125 -4.515625,3.640625 -12.5625,3.640625 h -8.5 v 8.109375 h 8.890625 q 7.265625,0 11.125,2.90625 3.859375,2.90625 3.859375,8.375 0,5.609375 -3.984375,8.609375 -3.96875,3.015625 -11.390625,3.015625 -4.0625,0 -8.703125,-0.890625 Q 15.375,64.15625 9.8125,62.3125 v 8.78125 q 5.625,1.5625 10.53125,2.34375 4.90625,0.78125 9.25,0.78125 11.234375,0 17.765625,-5.109375 6.546875,-5.09375 6.546875,-13.78125 0,-6.0625 -3.46875,-10.234375 -3.46875,-4.171875 -9.859375,-5.78125 z"
               id="path6441" />
          </defs>
          <g
             style="fill:#262626"
             transform="matrix(0.08,0,0,-0.08,32.075938,48.476175)"
             id="g3712">
            <use
               xlink:href="#DejaVuSans-51"
               id="use3706"
               x="0"
               y="0"
               width="100%"
               height="100%" />
            <use
               x="63.623047"
               xlink:href="#DejaVuSans-46"
               id="use3708"
               y="0"
               width="100%"
               height="100%" />
            <use
               x="95.410156"
               xlink:href="#DejaVuSans-48"
               id="use3710"
               y="0"
               width="100%"
               height="100%" />
          </g>
        </g>
      </g>
      <g
         id="ytick_6">
        <g
           id="line2d_27">
          <g
             id="g3718">
            <use
               style="fill:#262626;stroke:#262626"
               x="53.098438"
               xlink:href="#mba3544325f"
               y="12"
               id="use3716"
               width="100%"
               height="100%" />
          </g>
        </g>
        <g
           id="text_10">
          <!-- 3.5 -->
          <g
             style="fill:#262626"
             transform="matrix(0.08,0,0,-0.08,32.075938,15.039375)"
             id="g3727">
            <use
               xlink:href="#DejaVuSans-51"
               id="use3721"
               x="0"
               y="0"
               width="100%"
               height="100%" />
            <use
               x="63.623047"
               xlink:href="#DejaVuSans-46"
               id="use3723"
               y="0"
               width="100%"
               height="100%" />
            <use
               x="95.410156"
               xlink:href="#DejaVuSans-53"
               id="use3725"
               y="0"
               width="100%"
               height="100%" />
          </g>
        </g>
      </g>
      <g
         id="text_11">
        <!-- Response -->
        <defs
           id="defs3732">
          <path
             d="m 44.390625,34.1875 q 3.171875,-1.078125 6.171875,-4.59375 3,-3.515625 6.03125,-9.671875 L 66.609375,0 H 56 l -9.3125,18.703125 q -3.625,7.328125 -7.015625,9.71875 -3.390625,2.390625 -9.25,2.390625 h -10.75 V 0 H 9.8125 v 72.90625 h 22.265625 q 12.5,0 18.65625,-5.234375 6.15625,-5.21875 6.15625,-15.765625 0,-6.890625 -3.203125,-11.4375 -3.203125,-4.53125 -9.296875,-6.28125 z m -24.71875,30.609375 v -25.875 h 12.40625 q 7.125,0 10.765625,3.296875 3.640625,3.296875 3.640625,9.6875 0,6.390625 -3.640625,9.640625 -3.640625,3.25 -10.765625,3.25 z"
             id="path6459" />
        </defs>
        <g
           style="fill:#262626"
           transform="matrix(0,-0.1,-0.1,0,14.798438,119.82794)"
           id="g3750">
          <use
             xlink:href="#DejaVuSans-82"
             id="use3734"
             x="0"
             y="0"
             width="100%"
             height="100%" />
          <use
             x="69.419922"
             xlink:href="#DejaVuSans-101"
             id="use3736"
             y="0"
             width="100%"
             height="100%" />
          <use
             x="130.94336"
             xlink:href="#DejaVuSans-115"
             id="use3738"
             y="0"
             width="100%"
             height="100%" />
          <use
             x="183.04297"
             xlink:href="#DejaVuSans-112"
             id="use3740"
             y="0"
             width="100%"
             height="100%" />
          <use
             x="246.51953"
             xlink:href="#DejaVuSans-111"
             id="use3742"
             y="0"
             width="100%"
             height="100%" />
          <use
             x="307.70117"
             xlink:href="#DejaVuSans-110"
             id="use3744"
             y="0"
             width="100%"
             height="100%" />
          <use
             x="371.08008"
             xlink:href="#DejaVuSans-115"
             id="use3746"
             y="0"
             width="100%"
             height="100%" />
          <use
             x="423.17969"
             xlink:href="#DejaVuSans-101"
             id="use3748"
             y="0"
             width="100%"
             height="100%" />
        </g>
        <!-- (% BOLD signal change) -->
        <defs
           id="defs3758">
          <path
             d="m 72.703125,32.078125 q -4.25,0 -6.671875,-3.609375 -2.40625,-3.609375 -2.40625,-10.0625 0,-6.34375 2.40625,-9.984375 2.421875,-3.640625 6.671875,-3.640625 4.15625,0 6.5625,3.640625 2.421875,3.640625 2.421875,9.984375 0,6.40625 -2.421875,10.03125 -2.40625,3.640625 -6.5625,3.640625 z m 0,6.203125 q 7.71875,0 12.25,-5.375 Q 89.5,27.546875 89.5,18.40625 q 0,-9.125 -4.5625,-14.484375 -4.5625,-5.34375 -12.234375,-5.34375 -7.8125,0 -12.359375,5.34375 -4.53125,5.359375 -4.53125,14.484375 0,9.1875 4.5625,14.53125 4.5625,5.34375 12.328125,5.34375 z M 22.3125,68.015625 q -4.203125,0 -6.625,-3.640625 -2.40625,-3.625 -2.40625,-9.984375 0,-6.4375 2.390625,-10.0625 2.390625,-3.609375 6.640625,-3.609375 4.25,0 6.65625,3.609375 2.421875,3.625 2.421875,10.0625 0,6.296875 -2.4375,9.953125 -2.4375,3.671875 -6.640625,3.671875 z m 44.09375,6.203125 h 7.8125 L 28.609375,-1.421875 h -7.8125 z m -44.09375,0 q 7.71875,0 12.296875,-5.34375 4.59375,-5.34375 4.59375,-14.484375 0,-9.21875 -4.5625,-14.546875 -4.5625,-5.328125 -12.328125,-5.328125 -7.765625,0 -12.28125,5.34375 -4.515625,5.359375 -4.515625,14.53125 0,9.09375 4.53125,14.453125 4.546875,5.375 12.265625,5.375 z"
             id="path6471" />
          <path
             d="M 19.671875,34.8125 V 8.109375 H 35.5 q 7.953125,0 11.78125,3.296875 3.84375,3.296875 3.84375,10.078125 0,6.84375 -3.84375,10.078125 -3.828125,3.25 -11.78125,3.25 z m 0,29.984375 V 42.828125 H 34.28125 q 7.21875,0 10.75,2.703125 3.546875,2.71875 3.546875,8.28125 0,5.515625 -3.546875,8.25 -3.53125,2.734375 -10.75,2.734375 z M 9.8125,72.90625 h 25.203125 q 11.28125,0 17.375,-4.6875 Q 58.5,63.53125 58.5,54.890625 58.5,48.1875 55.375,44.234375 52.25,40.28125 46.1875,39.3125 53.46875,37.75 57.5,32.78125 q 4.03125,-4.953125 4.03125,-12.375 0,-9.765625 -6.640625,-15.09375 Q 48.25,0 35.984375,0 H 9.8125 Z"
             id="path6473" />
          <path
             d="m 39.40625,66.21875 q -10.75,0 -17.078125,-8.015625 -6.3125,-8 -6.3125,-21.828125 0,-13.765625 6.3125,-21.78125 6.328125,-8 17.078125,-8 10.734375,0 17.015625,8 6.28125,8.015625 6.28125,21.78125 0,13.828125 -6.28125,21.828125 -6.28125,8.015625 -17.015625,8.015625 z m 0,8 q 15.328125,0 24.5,-10.28125 9.1875,-10.28125 9.1875,-27.5625 0,-17.234375 -9.1875,-27.515625 -9.171875,-10.28125 -24.5,-10.28125 -15.375,0 -24.59375,10.25 Q 5.609375,19.09375 5.609375,36.375 q 0,17.28125 9.203125,27.5625 9.21875,10.28125 24.59375,10.28125 z"
             id="path6475" />
          <path
             d="M 19.671875,64.796875 V 8.109375 H 31.59375 q 15.09375,0 22.09375,6.828125 7,6.84375 7,21.59375 0,14.640625 -7,21.453125 -7,6.8125 -22.09375,6.8125 z M 9.8125,72.90625 h 20.265625 q 21.1875,0 31.09375,-8.8125 9.921875,-8.8125 9.921875,-27.5625 0,-18.859375 -9.96875,-27.703125 Q 51.171875,0 30.078125,0 H 9.8125 Z"
             id="path6477" />
          <path
             d="m 45.40625,27.984375 q 0,9.765625 -4.03125,15.125 -4.015625,5.375 -11.296875,5.375 -7.21875,0 -11.25,-5.375 -4.03125,-5.359375 -4.03125,-15.125 0,-9.71875 4.03125,-15.09375 4.03125,-5.375 11.25,-5.375 7.28125,0 11.296875,5.375 4.03125,5.375 4.03125,15.09375 z M 54.390625,6.78125 q 0,-13.953125 -6.203125,-20.765625 -6.1875,-6.8125 -18.984375,-6.8125 -4.734375,0 -8.9375,0.703125 -4.203125,0.703125 -8.15625,2.171875 V -9.1875 q 3.953125,-2.140625 7.8125,-3.15625 3.859375,-1.03125 7.859375,-1.03125 8.84375,0 13.234375,4.609375 4.390625,4.609375 4.390625,13.9375 V 9.625 Q 42.625,4.78125 38.28125,2.390625 33.9375,0 27.875,0 17.828125,0 11.671875,7.65625 q -6.15625,7.671875 -6.15625,20.328125 0,12.6875 6.15625,20.34375 Q 17.828125,56 27.875,56 q 6.0625,0 10.40625,-2.390625 4.34375,-2.390625 7.125,-7.21875 V 54.6875 h 8.984375 z"
             id="path6479" />
          <path
             d="M 54.890625,33.015625 V 0 H 45.90625 v 32.71875 q 0,7.765625 -3.03125,11.609375 -3.03125,3.859375 -9.078125,3.859375 -7.28125,0 -11.484375,-4.640625 -4.203125,-4.625 -4.203125,-12.640625 V 0 h -9.03125 v 75.984375 h 9.03125 V 46.1875 q 3.234375,4.9375 7.59375,7.375 4.375,2.4375 10.09375,2.4375 9.421875,0 14.25,-5.828125 4.84375,-5.828125 4.84375,-17.15625 z"
             id="path6481" />
        </defs>
        <g
           style="fill:#262626"
           transform="matrix(0,-0.1,-0.1,0,25.99625,156.2045)"
           id="g3804">
          <use
             xlink:href="#DejaVuSans-40"
             id="use3760"
             x="0"
             y="0"
             width="100%"
             height="100%" />
          <use
             x="39.013672"
             xlink:href="#DejaVuSans-37"
             id="use3762"
             y="0"
             width="100%"
             height="100%" />
          <use
             x="134.0332"
             xlink:href="#DejaVuSans-32"
             id="use3764"
             y="0"
             width="100%"
             height="100%" />
          <use
             x="165.82031"
             xlink:href="#DejaVuSans-66"
             id="use3766"
             y="0"
             width="100%"
             height="100%" />
          <use
             x="234.4082"
             xlink:href="#DejaVuSans-79"
             id="use3768"
             y="0"
             width="100%"
             height="100%" />
          <use
             x="313.11914"
             xlink:href="#DejaVuSans-76"
             id="use3770"
             y="0"
             width="100%"
             height="100%" />
          <use
             x="368.83203"
             xlink:href="#DejaVuSans-68"
             id="use3772"
             y="0"
             width="100%"
             height="100%" />
          <use
             x="445.83398"
             xlink:href="#DejaVuSans-32"
             id="use3774"
             y="0"
             width="100%"
             height="100%" />
          <use
             x="477.62109"
             xlink:href="#DejaVuSans-115"
             id="use3776"
             y="0"
             width="100%"
             height="100%" />
          <use
             x="529.7207"
             xlink:href="#DejaVuSans-105"
             id="use3778"
             y="0"
             width="100%"
             height="100%" />
          <use
             x="557.50391"
             xlink:href="#DejaVuSans-103"
             id="use3780"
             y="0"
             width="100%"
             height="100%" />
          <use
             x="620.98047"
             xlink:href="#DejaVuSans-110"
             id="use3782"
             y="0"
             width="100%"
             height="100%" />
          <use
             x="684.35938"
             xlink:href="#DejaVuSans-97"
             id="use3784"
             y="0"
             width="100%"
             height="100%" />
          <use
             x="745.63867"
             xlink:href="#DejaVuSans-108"
             id="use3786"
             y="0"
             width="100%"
             height="100%" />
          <use
             x="773.42188"
             xlink:href="#DejaVuSans-32"
             id="use3788"
             y="0"
             width="100%"
             height="100%" />
          <use
             x="805.20898"
             xlink:href="#DejaVuSans-99"
             id="use3790"
             y="0"
             width="100%"
             height="100%" />
          <use
             x="860.18945"
             xlink:href="#DejaVuSans-104"
             id="use3792"
             y="0"
             width="100%"
             height="100%" />
          <use
             x="923.56836"
             xlink:href="#DejaVuSans-97"
             id="use3794"
             y="0"
             width="100%"
             height="100%" />
          <use
             x="984.84766"
             xlink:href="#DejaVuSans-110"
             id="use3796"
             y="0"
             width="100%"
             height="100%" />
          <use
             x="1048.2266"
             xlink:href="#DejaVuSans-103"
             id="use3798"
             y="0"
             width="100%"
             height="100%" />
          <use
             x="1111.7031"
             xlink:href="#DejaVuSans-101"
             id="use3800"
             y="0"
             width="100%"
             height="100%" />
          <use
             x="1173.2266"
             xlink:href="#DejaVuSans-41"
             id="use3802"
             y="0"
             width="100%"
             height="100%" />
        </g>
      </g>
    </g>
    <g
       id="PathCollection_1"
       transform="matrix(3.9036329,0,0,3.9036329,180.92406,129.45343)" />
    <g
       id="PathCollection_3"
       transform="matrix(3.9036329,0,0,3.9036329,180.92406,129.45343)">
      <defs
         id="defs3836">
        <path
           d="M 0,2.4 C 0.636487,2.4 1.246992,2.147121 1.697056,1.697056 2.147121,1.246992 2.4,0.636487 2.4,0 2.4,-0.636487 2.147121,-1.246992 1.697056,-1.697056 1.246992,-2.147121 0.636487,-2.4 0,-2.4 c -0.636487,0 -1.246992,0.252879 -1.697056,0.702944 C -2.147121,-1.246992 -2.4,-0.636487 -2.4,0 c 0,0.636487 0.252879,1.246992 0.702944,1.697056 C -1.246992,2.147121 -0.636487,2.4 0,2.4 Z"
           id="path6525"
           style="stroke:#55a868;stroke-width:1.2" />
      </defs>
      <g
         clip-path="url(#p3c34aa2679)"
         id="g3858">
        <use
           style="fill:#55a868;stroke:#55a868;stroke-width:1.2"
           x="58.883713"
           xlink:href="#m2736e4d366"
           y="145.20706"
           id="use3838"
           width="100%"
           height="100%" />
        <use
           style="fill:#55a868;stroke:#55a868;stroke-width:1.2"
           x="64.633934"
           xlink:href="#m2736e4d366"
           y="135.50047"
           id="use3840"
           width="100%"
           height="100%" />
        <use
           style="fill:#55a868;stroke:#55a868;stroke-width:1.2"
           x="70.999222"
           xlink:href="#m2736e4d366"
           y="102.08192"
           id="use3842"
           width="100%"
           height="100%" />
        <use
           style="fill:#55a868;stroke:#55a868;stroke-width:1.2"
           x="78.48864"
           xlink:href="#m2736e4d366"
           y="96.498192"
           id="use3844"
           width="100%"
           height="100%" />
        <use
           style="fill:#55a868;stroke:#55a868;stroke-width:1.2"
           x="85.742439"
           xlink:href="#m2736e4d366"
           y="80.398781"
           id="use3846"
           width="100%"
           height="100%" />
        <use
           style="fill:#55a868;stroke:#55a868;stroke-width:1.2"
           x="92.343353"
           xlink:href="#m2736e4d366"
           y="61.040482"
           id="use3848"
           width="100%"
           height="100%" />
        <use
           style="fill:#55a868;stroke:#55a868;stroke-width:1.2"
           x="99.157829"
           xlink:href="#m2736e4d366"
           y="74.715675"
           id="use3850"
           width="100%"
           height="100%" />
        <use
           style="fill:#55a868;stroke:#55a868;stroke-width:1.2"
           x="106.19806"
           xlink:href="#m2736e4d366"
           y="91.177322"
           id="use3852"
           width="100%"
           height="100%" />
        <use
           style="fill:#55a868;stroke:#55a868;stroke-width:1.2"
           x="113.23341"
           xlink:href="#m2736e4d366"
           y="83.048706"
           id="use3854"
           width="100%"
           height="100%" />
        <use
           style="fill:#55a868;stroke:#55a868;stroke-width:1.2"
           x="120.05276"
           xlink:href="#m2736e4d366"
           y="83.162354"
           id="use3856"
           width="100%"
           height="100%" />
      </g>
    </g>
    <g
       id="line2d_29"
       transform="matrix(3.9036329,0,0,3.9036329,180.92406,129.45343)">
      <path
         clip-path="url(#p3c34aa2679)"
         d="m 58.883711,142.96226 1.248348,-3.33022 1.248348,-3.32919 1.248348,-3.32145 1.248348,-3.30679 1.248349,-3.2851 1.248348,-3.25618 1.248348,-3.21997 1.248348,-3.17635 1.248348,-3.12528 1.248348,-3.06671 1.248348,-3.00067 1.248348,-2.92716 1.248348,-2.84624 1.248348,-2.758021 1.248348,-2.662603 1.248348,-2.560148 1.248348,-2.450836 1.248348,-2.33488 1.248348,-2.212524 1.248348,-2.084038 1.248349,-1.949723 1.248348,-1.809909 1.248348,-1.664946 1.248348,-1.515214 1.248348,-1.361111 1.248348,-1.20306 1.248348,-1.041502 1.248348,-0.876893 1.248348,-0.709708 1.248348,-0.540428 1.248348,-0.369551 1.248348,-0.197581 1.248351,-0.02502 1.24835,0.147606 1.24834,0.3198 1.24835,0.491045 1.24835,0.660839 1.24835,0.828682 1.24835,0.994087 1.24834,1.156577 1.24835,1.31569 1.24835,1.470982 1.24835,1.622023 1.24835,1.768407 1.24834,1.909753 1.24835,2.045695 1.24835,2.175903 1.24835,2.300065 1.24835,2.417902"
         style="fill:none;stroke:#55a868;stroke-width:1.2;stroke-linecap:round"
         id="path3864" />
    </g>
    <g
       id="patch_3"
       transform="matrix(3.9036329,0,0,3.9036329,180.92406,129.45343)">
      <path
         d="M 53.098438,179.184 V 12"
         style="fill:none;stroke:#262626;stroke-linecap:square;stroke-linejoin:miter"
         id="path3867" />
    </g>
    <g
       id="patch_4"
       transform="matrix(3.9036329,0,0,3.9036329,180.92406,129.45343)">
      <path
         d="M 53.098438,179.184 H 151.40929"
         style="fill:none;stroke:#262626;stroke-linecap:square;stroke-linejoin:miter"
         id="path3870" />
    </g>
    <g
       id="PathCollection_6"
       transform="matrix(3.9036329,0,0,3.9036329,220.92411,129.45343)">
      <defs
         id="defs4138">
        <path
           d="M 0,0 C 0,0 0,0 0,0 0,0 0,0 0,0 0,0 0,0 0,0 0,0 0,0 0,0 0,0 0,0 0,0 0,0 0,0 0,0 0,0 0,0 0,0 0,0 0,0 0,0 Z"
           id="path36620"
           style="stroke:#1f77b4;stroke-width:1.2" />
      </defs>
      <g
         id="g4142">
        <use
           style="fill:#1f77b4;stroke:#1f77b4;stroke-width:1.2"
           x="282.88245"
           xlink:href="#m072e2bfd13"
           y="88.824249"
           id="use4140"
           width="100%"
           height="100%" />
      </g>
    </g>
    <g
       id="text_15"
       transform="matrix(3.9036329,0,0,3.9036329,220.92411,129.45343)">
      <!-- Eccentricity band -->
      <defs
         id="defs4147">
        <path
           d="m 9.8125,72.90625 h 46.09375 v -8.3125 H 19.671875 V 43.015625 h 34.71875 V 34.71875 H 19.671875 V 8.296875 H 56.78125 V 0 H 9.8125 Z"
           id="path36626" />
        <path
           d="m 48.6875,27.296875 q 0,9.90625 -4.078125,15.546875 -4.078125,5.640625 -11.203125,5.640625 -7.140625,0 -11.21875,-5.640625 -4.078125,-5.640625 -4.078125,-15.546875 0,-9.90625 4.078125,-15.546875 4.078125,-5.640625 11.21875,-5.640625 7.125,0 11.203125,5.640625 4.078125,5.640625 4.078125,15.546875 z m -30.578125,19.09375 q 2.84375,4.875 7.15625,7.234375 Q 29.59375,56 35.59375,56 q 9.96875,0 16.1875,-7.90625 6.234375,-7.90625 6.234375,-20.796875 0,-12.890625 -6.234375,-20.8125 -6.21875,-7.90625 -16.1875,-7.90625 -6,0 -10.328125,2.375 -4.3125,2.375 -7.15625,7.25 V 0 h -9.03125 v 75.984375 h 9.03125 z"
           id="path36628" />
      </defs>
      <g
         style="fill:#262626"
         transform="matrix(0.1,0,0,-0.1,300.88244,91.44925)"
         id="g4183">
        <use
           xlink:href="#DejaVuSans-69"
           id="use4149"
           x="0"
           y="0"
           width="100%"
           height="100%" />
        <use
           x="63.183594"
           xlink:href="#DejaVuSans-99"
           id="use4151"
           y="0"
           width="100%"
           height="100%" />
        <use
           x="118.16406"
           xlink:href="#DejaVuSans-99"
           id="use4153"
           y="0"
           width="100%"
           height="100%" />
        <use
           x="173.14453"
           xlink:href="#DejaVuSans-101"
           id="use4155"
           y="0"
           width="100%"
           height="100%" />
        <use
           x="234.66797"
           xlink:href="#DejaVuSans-110"
           id="use4157"
           y="0"
           width="100%"
           height="100%" />
        <use
           x="298.04688"
           xlink:href="#DejaVuSans-116"
           id="use4159"
           y="0"
           width="100%"
           height="100%" />
        <use
           x="337.25586"
           xlink:href="#DejaVuSans-114"
           id="use4161"
           y="0"
           width="100%"
           height="100%" />
        <use
           x="378.36914"
           xlink:href="#DejaVuSans-105"
           id="use4163"
           y="0"
           width="100%"
           height="100%" />
        <use
           x="406.15234"
           xlink:href="#DejaVuSans-99"
           id="use4165"
           y="0"
           width="100%"
           height="100%" />
        <use
           x="461.13281"
           xlink:href="#DejaVuSans-105"
           id="use4167"
           y="0"
           width="100%"
           height="100%" />
        <use
           x="488.91602"
           xlink:href="#DejaVuSans-116"
           id="use4169"
           y="0"
           width="100%"
           height="100%" />
        <use
           x="528.125"
           xlink:href="#DejaVuSans-121"
           id="use4171"
           y="0"
           width="100%"
           height="100%" />
        <use
           x="587.30469"
           xlink:href="#DejaVuSans-32"
           id="use4173"
           y="0"
           width="100%"
           height="100%" />
        <use
           x="619.0918"
           xlink:href="#DejaVuSans-98"
           id="use4175"
           y="0"
           width="100%"
           height="100%" />
        <use
           x="682.56836"
           xlink:href="#DejaVuSans-97"
           id="use4177"
           y="0"
           width="100%"
           height="100%" />
        <use
           x="743.84766"
           xlink:href="#DejaVuSans-110"
           id="use4179"
           y="0"
           width="100%"
           height="100%" />
        <use
           x="807.22656"
           xlink:href="#DejaVuSans-100"
           id="use4181"
           y="0"
           width="100%"
           height="100%" />
      </g>
    </g>
    <g
       id="line2d_63"
       transform="matrix(3.9036329,0,0,3.9036329,220.92411,129.45343)">
      <path
         d="m 272.88244,117.3055 h 20"
         style="fill:none;stroke:#000000;stroke-width:1.2;stroke-linecap:round"
         id="path4217" />
    </g>
    <g
       id="line2d_64"
       transform="matrix(3.9036329,0,0,3.9036329,220.92411,129.45343)">
      <defs
         id="defs4221">
        <path
           d="M 0,2.4 C 0.636487,2.4 1.246992,2.147121 1.697056,1.697056 2.147121,1.246992 2.4,0.636487 2.4,0 2.4,-0.636487 2.147121,-1.246992 1.697056,-1.697056 1.246992,-2.147121 0.636487,-2.4 0,-2.4 c -0.636487,0 -1.246992,0.252879 -1.697056,0.702944 C -2.147121,-1.246992 -2.4,-0.636487 -2.4,0 c 0,0.636487 0.252879,1.246992 0.702944,1.697056 C -1.246992,2.147121 -0.636487,2.4 0,2.4 Z"
           id="path36672"
           style="stroke:#000000" />
      </defs>
      <g
         id="g4225">
        <use
           style="stroke:#000000"
           x="282.88245"
           xlink:href="#ma23159b92b"
           y="117.3055"
           id="use4223"
           width="100%"
           height="100%" />
      </g>
    </g>
    <g
       id="text_17"
       transform="matrix(3.9036329,0,0,3.9036329,220.92411,129.45343)">
      <!-- 9-10 deg -->
      <defs
         id="defs4229">
        <path
           d="M 10.984375,1.515625 V 10.5 Q 14.703125,8.734375 18.5,7.8125 q 3.8125,-0.921875 7.484375,-0.921875 9.765625,0 14.90625,6.5625 5.15625,6.5625 5.890625,19.953125 -2.828125,-4.203125 -7.1875,-6.453125 -4.34375,-2.25 -9.609375,-2.25 -10.9375,0 -17.3125,6.609375 -6.375,6.625 -6.375,18.109375 0,11.21875 6.640625,18 6.640625,6.796875 17.671875,6.796875 12.65625,0 19.3125,-9.703125 6.671875,-9.6875 6.671875,-28.140625 0,-17.234375 -8.1875,-27.515625 -8.171875,-10.28125 -21.984375,-10.28125 -3.71875,0 -7.53125,0.734375 -3.796875,0.734375 -7.90625,2.203125 z m 19.625,30.90625 q 6.640625,0 10.515625,4.53125 3.890625,4.546875 3.890625,12.46875 0,7.859375 -3.890625,12.421875 -3.875,4.5625 -10.515625,4.5625 -6.640625,0 -10.515625,-4.5625 -3.875,-4.5625 -3.875,-12.421875 0,-7.921875 3.875,-12.46875 3.875,-4.53125 10.515625,-4.53125 z"
           id="path36678" />
      </defs>
      <g
         style="fill:#262626"
         transform="matrix(0.1,0,0,-0.1,300.88244,120.8055)"
         id="g4247">
        <use
           xlink:href="#DejaVuSans-57"
           id="use4231"
           x="0"
           y="0"
           width="100%"
           height="100%" />
        <use
           x="63.623047"
           xlink:href="#DejaVuSans-45"
           id="use4233"
           y="0"
           width="100%"
           height="100%" />
        <use
           x="99.707031"
           xlink:href="#DejaVuSans-49"
           id="use4235"
           y="0"
           width="100%"
           height="100%" />
        <use
           x="163.33008"
           xlink:href="#DejaVuSans-48"
           id="use4237"
           y="0"
           width="100%"
           height="100%" />
        <use
           x="226.95312"
           xlink:href="#DejaVuSans-32"
           id="use4239"
           y="0"
           width="100%"
           height="100%" />
        <use
           x="258.74023"
           xlink:href="#DejaVuSans-100"
           id="use4241"
           y="0"
           width="100%"
           height="100%" />
        <use
           x="322.2168"
           xlink:href="#DejaVuSans-101"
           id="use4243"
           y="0"
           width="100%"
           height="100%" />
        <use
           x="383.74023"
           xlink:href="#DejaVuSans-103"
           id="use4245"
           y="0"
           width="100%"
           height="100%" />
      </g>
    </g>
  </g>
</svg>
