<?xml version="1.0" encoding="UTF-8" standalone="no"?>
<svg
   xmlns:dc="http://purl.org/dc/elements/1.1/"
   xmlns:cc="http://creativecommons.org/ns#"
   xmlns:rdf="http://www.w3.org/1999/02/22-rdf-syntax-ns#"
   xmlns:svg="http://www.w3.org/2000/svg"
   xmlns="http://www.w3.org/2000/svg"
   xmlns:xlink="http://www.w3.org/1999/xlink"
   xmlns:sodipodi="http://sodipodi.sourceforge.net/DTD/sodipodi-0.dtd"
   xmlns:inkscape="http://www.inkscape.org/namespaces/inkscape"
   width="1920"
   height="1080"
   viewBox="0 0 1920 1080"
   version="1.1"
   id="svg8"
   inkscape:version="1.0.2 (1.0.2+r75+1)"
   sodipodi:docname="defense-sf-pref-scaling-2.svg">
  <defs
     id="defs2">
    <clipPath
       id="p2343a3e18f">
      <rect
         height="89.627899"
         width="90.039131"
         x="138.81696"
         y="82.432899"
         id="rect7282" />
    </clipPath>
    <clipPath
       id="clipPath8969">
      <rect
         height="89.627899"
         width="90.039131"
         x="138.81696"
         y="82.432899"
         id="rect8967" />
    </clipPath>
    <path
       d="m 9.8125,72.90625 h 46.09375 v -8.3125 H 19.671875 V 43.015625 h 34.71875 V 34.71875 H 19.671875 V 8.296875 H 56.78125 V 0 H 9.8125 Z"
       id="DejaVuSans-69" />
    <path
       d="M 19.671875,64.796875 V 37.40625 h 12.40625 q 6.890625,0 10.640625,3.5625 3.765625,3.5625 3.765625,10.15625 0,6.546875 -3.765625,10.109375 -3.75,3.5625 -10.640625,3.5625 z M 9.8125,72.90625 h 22.265625 q 12.265625,0 18.53125,-5.546875 6.28125,-5.546875 6.28125,-16.234375 0,-10.796875 -6.28125,-16.3125 -6.265625,-5.515625 -18.53125,-5.515625 H 19.671875 V 0 H 9.8125 Z"
       id="DejaVuSans-80" />
    <path
       d="M 31,75.875 Q 24.46875,64.65625 21.28125,53.65625 18.109375,42.671875 18.109375,31.390625 18.109375,20.125 21.3125,9.0625 24.515625,-2 31,-13.1875 H 23.1875 Q 15.875,-1.703125 12.234375,9.375 8.59375,20.453125 8.59375,31.390625 q 0,10.890625 3.609375,21.921875 3.625,11.046875 10.984375,22.5625 z"
       id="DejaVuSans-40" />
    <path
       d="m 8.015625,75.875 h 7.8125 q 7.3125,-11.515625 10.953125,-22.5625 3.640625,-11.03125 3.640625,-21.921875 0,-10.9375 -3.640625,-22.015625 -3.640625,-11.078125 -10.953125,-22.5625 h -7.8125 Q 14.5,-2 17.703125,9.0625 20.90625,20.125 20.90625,31.390625 q 0,11.28125 -3.203125,22.265625 -3.203125,11 -9.6875,22.21875 z"
       id="DejaVuSans-41" />
    <clipPath
       id="p2343a3e18f-3">
      <rect
         height="89.627899"
         width="90.039131"
         x="138.81696"
         y="82.432899"
         id="rect7282-5" />
    </clipPath>
    <clipPath
       id="p2343a3e18f-3-1">
      <rect
         height="89.627899"
         width="90.039131"
         x="138.81696"
         y="82.432899"
         id="rect7282-5-4" />
    </clipPath>
    <clipPath
       id="p2343a3e18f-1">
      <rect
         height="89.627899"
         width="90.039131"
         x="138.81696"
         y="82.432899"
         id="rect10236" />
    </clipPath>
    <clipPath
       id="p2343a3e18f-3-1-4">
      <rect
         height="89.627899"
         width="90.039131"
         x="138.81696"
         y="82.432899"
         id="rect7282-5-4-9" />
    </clipPath>
    <clipPath
       id="p7b6b0d456f">
      <rect
         height="89.627899"
         width="90.039131"
         x="246.86391"
         y="82.432899"
         id="rect2314" />
    </clipPath>
    <clipPath
       id="clipPath4868">
      <rect
         height="89.627899"
         width="90.039131"
         x="246.86391"
         y="82.432899"
         id="rect4866" />
    </clipPath>
    <path
       d="m 45.40625,27.984375 q 0,9.765625 -4.03125,15.125 -4.015625,5.375 -11.296875,5.375 -7.21875,0 -11.25,-5.375 -4.03125,-5.359375 -4.03125,-15.125 0,-9.71875 4.03125,-15.09375 4.03125,-5.375 11.25,-5.375 7.28125,0 11.296875,5.375 4.03125,5.375 4.03125,15.09375 z M 54.390625,6.78125 q 0,-13.953125 -6.203125,-20.765625 -6.1875,-6.8125 -18.984375,-6.8125 -4.734375,0 -8.9375,0.703125 -4.203125,0.703125 -8.15625,2.171875 V -9.1875 q 3.953125,-2.140625 7.8125,-3.15625 3.859375,-1.03125 7.859375,-1.03125 8.84375,0 13.234375,4.609375 4.390625,4.609375 4.390625,13.9375 V 9.625 Q 42.625,4.78125 38.28125,2.390625 33.9375,0 27.875,0 17.828125,0 11.671875,7.65625 q -6.15625,7.671875 -6.15625,20.328125 0,12.6875 6.15625,20.34375 Q 17.828125,56 27.875,56 q 6.0625,0 10.40625,-2.390625 4.34375,-2.390625 7.125,-7.21875 V 54.6875 h 8.984375 z"
       id="DejaVuSans-103" />
    <path
       d="m 12.40625,8.296875 h 16.109375 v 55.625 L 10.984375,60.40625 v 8.984375 l 17.4375,3.515625 H 38.28125 V 8.296875 H 54.390625 V 0 H 12.40625 Z"
       id="DejaVuSans-49" />
    <path
       d="M 47.796875,75.984375 46.390625,68.5 h -8.59375 q -4.890625,0 -7.109375,-1.921875 -2.21875,-1.921875 -3.296875,-7.0625 L 26.421875,54.6875 H 41.21875 L 39.890625,47.703125 H 25.09375 L 15.828125,0 H 6.78125 l 9.328125,47.703125 h -8.59375 l 1.28125,6.984375 h 8.59375 l 0.71875,3.8125 q 1.859375,9.671875 6.515625,13.578125 4.671875,3.90625 14.6875,3.90625 z"
       id="DejaVuSans-Oblique-102" />
    <path
       d="M 60.015625,54.6875 34.90625,27.875 50.296875,0 h -10.3125 L 28.421875,21.6875 8.296875,0 H -2.59375 L 24.3125,28.8125 10.015625,54.6875 H 20.3125 l 10.5,-19.78125 18.3125,19.78125 z"
       id="DejaVuSans-Oblique-120" />
    <clipPath
       id="pad6b736d29">
      <rect
         height="271.79999"
         width="279"
         x="45"
         y="43.200001"
         id="rect6619" />
    </clipPath>
    <style
       type="text/css"
       id="style7699">*{stroke-linecap:butt;stroke-linejoin:round;}</style>
    <path
       d="M 0 0  L 0 3.5  "
       id="m4ddb20547c"
       style="stroke:#000000;stroke-width:0.8;" />
    <path
       d="M 31.78125 66.40625  Q 24.171875 66.40625 20.328125 58.90625  Q 16.5 51.421875 16.5 36.375  Q 16.5 21.390625 20.328125 13.890625  Q 24.171875 6.390625 31.78125 6.390625  Q 39.453125 6.390625 43.28125 13.890625  Q 47.125 21.390625 47.125 36.375  Q 47.125 51.421875 43.28125 58.90625  Q 39.453125 66.40625 31.78125 66.40625  z M 31.78125 74.21875  Q 44.046875 74.21875 50.515625 64.515625  Q 56.984375 54.828125 56.984375 36.375  Q 56.984375 17.96875 50.515625 8.265625  Q 44.046875 -1.421875 31.78125 -1.421875  Q 19.53125 -1.421875 13.0625 8.265625  Q 6.59375 17.96875 6.59375 36.375  Q 6.59375 54.828125 13.0625 64.515625  Q 19.53125 74.21875 31.78125 74.21875  z "
       id="DejaVuSans-48" />
    <path
       d="M 10.6875 12.40625  L 21 12.40625  L 21 0  L 10.6875 0  z "
       id="DejaVuSans-46" />
    <path
       d="M 19.1875 8.296875  L 53.609375 8.296875  L 53.609375 0  L 7.328125 0  L 7.328125 8.296875  Q 12.9375 14.109375 22.625 23.890625  Q 32.328125 33.6875 34.8125 36.53125  Q 39.546875 41.84375 41.421875 45.53125  Q 43.3125 49.21875 43.3125 52.78125  Q 43.3125 58.59375 39.234375 62.25  Q 35.15625 65.921875 28.609375 65.921875  Q 23.96875 65.921875 18.8125 64.3125  Q 13.671875 62.703125 7.8125 59.421875  L 7.8125 69.390625  Q 13.765625 71.78125 18.9375 73  Q 24.125 74.21875 28.421875 74.21875  Q 39.75 74.21875 46.484375 68.546875  Q 53.21875 62.890625 53.21875 53.421875  Q 53.21875 48.921875 51.53125 44.890625  Q 49.859375 40.875 45.40625 35.40625  Q 44.1875 33.984375 37.640625 27.21875  Q 31.109375 20.453125 19.1875 8.296875  z "
       id="DejaVuSans-50" />
    <path
       d="M 37.796875 64.3125  L 12.890625 25.390625  L 37.796875 25.390625  z M 35.203125 72.90625  L 47.609375 72.90625  L 47.609375 25.390625  L 58.015625 25.390625  L 58.015625 17.1875  L 47.609375 17.1875  L 47.609375 0  L 37.796875 0  L 37.796875 17.1875  L 4.890625 17.1875  L 4.890625 26.703125  z "
       id="DejaVuSans-52" />
    <path
       d="M 33.015625 40.375  Q 26.375 40.375 22.484375 35.828125  Q 18.609375 31.296875 18.609375 23.390625  Q 18.609375 15.53125 22.484375 10.953125  Q 26.375 6.390625 33.015625 6.390625  Q 39.65625 6.390625 43.53125 10.953125  Q 47.40625 15.53125 47.40625 23.390625  Q 47.40625 31.296875 43.53125 35.828125  Q 39.65625 40.375 33.015625 40.375  z M 52.59375 71.296875  L 52.59375 62.3125  Q 48.875 64.0625 45.09375 64.984375  Q 41.3125 65.921875 37.59375 65.921875  Q 27.828125 65.921875 22.671875 59.328125  Q 17.53125 52.734375 16.796875 39.40625  Q 19.671875 43.65625 24.015625 45.921875  Q 28.375 48.1875 33.59375 48.1875  Q 44.578125 48.1875 50.953125 41.515625  Q 57.328125 34.859375 57.328125 23.390625  Q 57.328125 12.15625 50.6875 5.359375  Q 44.046875 -1.421875 33.015625 -1.421875  Q 20.359375 -1.421875 13.671875 8.265625  Q 6.984375 17.96875 6.984375 36.375  Q 6.984375 53.65625 15.1875 63.9375  Q 23.390625 74.21875 37.203125 74.21875  Q 40.921875 74.21875 44.703125 73.484375  Q 48.484375 72.75 52.59375 71.296875  z "
       id="DejaVuSans-54" />
    <path
       d="M 31.78125 34.625  Q 24.75 34.625 20.71875 30.859375  Q 16.703125 27.09375 16.703125 20.515625  Q 16.703125 13.921875 20.71875 10.15625  Q 24.75 6.390625 31.78125 6.390625  Q 38.8125 6.390625 42.859375 10.171875  Q 46.921875 13.96875 46.921875 20.515625  Q 46.921875 27.09375 42.890625 30.859375  Q 38.875 34.625 31.78125 34.625  z M 21.921875 38.8125  Q 15.578125 40.375 12.03125 44.71875  Q 8.5 49.078125 8.5 55.328125  Q 8.5 64.0625 14.71875 69.140625  Q 20.953125 74.21875 31.78125 74.21875  Q 42.671875 74.21875 48.875 69.140625  Q 55.078125 64.0625 55.078125 55.328125  Q 55.078125 49.078125 51.53125 44.71875  Q 48 40.375 41.703125 38.8125  Q 48.828125 37.15625 52.796875 32.3125  Q 56.78125 27.484375 56.78125 20.515625  Q 56.78125 9.90625 50.3125 4.234375  Q 43.84375 -1.421875 31.78125 -1.421875  Q 19.734375 -1.421875 13.25 4.234375  Q 6.78125 9.90625 6.78125 20.515625  Q 6.78125 27.484375 10.78125 32.3125  Q 14.796875 37.15625 21.921875 38.8125  z M 18.3125 54.390625  Q 18.3125 48.734375 21.84375 45.5625  Q 25.390625 42.390625 31.78125 42.390625  Q 38.140625 42.390625 41.71875 45.5625  Q 45.3125 48.734375 45.3125 54.390625  Q 45.3125 60.0625 41.71875 63.234375  Q 38.140625 66.40625 31.78125 66.40625  Q 25.390625 66.40625 21.84375 63.234375  Q 18.3125 60.0625 18.3125 54.390625  z "
       id="DejaVuSans-56" />
    <path
       d="M 12.40625 8.296875  L 28.515625 8.296875  L 28.515625 63.921875  L 10.984375 60.40625  L 10.984375 69.390625  L 28.421875 72.90625  L 38.28125 72.90625  L 38.28125 8.296875  L 54.390625 8.296875  L 54.390625 0  L 12.40625 0  z "
       id="DejaVuSans-49-1" />
    <path
       d="M 0 0  L -3.5 0  "
       id="m6688b5299a"
       style="stroke:#000000;stroke-width:0.8;" />
    <path
       d="M 40.578125 39.3125  Q 47.65625 37.796875 51.625 33  Q 55.609375 28.21875 55.609375 21.1875  Q 55.609375 10.40625 48.1875 4.484375  Q 40.765625 -1.421875 27.09375 -1.421875  Q 22.515625 -1.421875 17.65625 -0.515625  Q 12.796875 0.390625 7.625 2.203125  L 7.625 11.71875  Q 11.71875 9.328125 16.59375 8.109375  Q 21.484375 6.890625 26.8125 6.890625  Q 36.078125 6.890625 40.9375 10.546875  Q 45.796875 14.203125 45.796875 21.1875  Q 45.796875 27.640625 41.28125 31.265625  Q 36.765625 34.90625 28.71875 34.90625  L 20.21875 34.90625  L 20.21875 43.015625  L 29.109375 43.015625  Q 36.375 43.015625 40.234375 45.921875  Q 44.09375 48.828125 44.09375 54.296875  Q 44.09375 59.90625 40.109375 62.90625  Q 36.140625 65.921875 28.71875 65.921875  Q 24.65625 65.921875 20.015625 65.03125  Q 15.375 64.15625 9.8125 62.3125  L 9.8125 71.09375  Q 15.4375 72.65625 20.34375 73.4375  Q 25.25 74.21875 29.59375 74.21875  Q 40.828125 74.21875 47.359375 69.109375  Q 53.90625 64.015625 53.90625 55.328125  Q 53.90625 49.265625 50.4375 45.09375  Q 46.96875 40.921875 40.578125 39.3125  z "
       id="DejaVuSans-51" />
    <path
       d="M 10.796875 72.90625  L 49.515625 72.90625  L 49.515625 64.59375  L 19.828125 64.59375  L 19.828125 46.734375  Q 21.96875 47.46875 24.109375 47.828125  Q 26.265625 48.1875 28.421875 48.1875  Q 40.625 48.1875 47.75 41.5  Q 54.890625 34.8125 54.890625 23.390625  Q 54.890625 11.625 47.5625 5.09375  Q 40.234375 -1.421875 26.90625 -1.421875  Q 22.3125 -1.421875 17.546875 -0.640625  Q 12.796875 0.140625 7.71875 1.703125  L 7.71875 11.625  Q 12.109375 9.234375 16.796875 8.0625  Q 21.484375 6.890625 26.703125 6.890625  Q 35.15625 6.890625 40.078125 11.328125  Q 45.015625 15.765625 45.015625 23.390625  Q 45.015625 31 40.078125 35.4375  Q 35.15625 39.890625 26.703125 39.890625  Q 22.75 39.890625 18.8125 39.015625  Q 14.890625 38.140625 10.796875 36.28125  z "
       id="DejaVuSans-53" />
    <path
       d="M 8.203125 72.90625  L 55.078125 72.90625  L 55.078125 68.703125  L 28.609375 0  L 18.3125 0  L 43.21875 64.59375  L 8.203125 64.59375  z "
       id="DejaVuSans-55" />
    <clipPath
       id="pb2e93d09e4">
      <rect
         height="271.8"
         width="279"
         x="45"
         y="43.2"
         id="rect7975" />
    </clipPath>
  </defs>
  <sodipodi:namedview
     id="base"
     pagecolor="#ffffff"
     bordercolor="#666666"
     borderopacity="1.0"
     inkscape:pageopacity="0.0"
     inkscape:pageshadow="2"
     inkscape:zoom="0.35355339"
     inkscape:cx="1410.8824"
     inkscape:cy="643.75309"
     inkscape:document-units="px"
     inkscape:current-layer="layer1"
     showgrid="false"
     units="px"
     inkscape:window-width="1898"
     inkscape:window-height="1039"
     inkscape:window-x="1932"
     inkscape:window-y="1105"
     inkscape:window-maximized="1"
     inkscape:document-rotation="0"
     inkscape:snap-bbox="true"
     inkscape:snap-bbox-edge-midpoints="true" />
  <metadata
     id="metadata5">
    <rdf:RDF>
      <cc:Work
         rdf:about="">
        <dc:format>image/svg+xml</dc:format>
        <dc:type
           rdf:resource="http://purl.org/dc/dcmitype/StillImage" />
        <dc:title />
      </cc:Work>
    </rdf:RDF>
  </metadata>
  <g
     inkscape:label="Layer 1"
     inkscape:groupmode="layer"
     id="layer1"
     transform="translate(0,-11.249983)">
    <g
       id="axes_3"
       transform="matrix(7.076799,0,0,7.076799,-692.10003,-389.03086)"
       style="stroke-linecap:butt;stroke-linejoin:round">
      <g
         id="patch_2">
        <path
           d="m 138.81696,172.0608 h 90.03913 V 82.432901 h -90.03913 z"
           style="fill:#ffffff"
           id="path6742" />
      </g>
      <g
         id="matplotlib.axis_1">
        <g
           id="text_3">
          <!-- Eccentricity -->
          <defs
             id="defs6746">
            <path
               d="m 9.8125,72.90625 h 46.09375 v -8.3125 H 19.671875 V 43.015625 h 34.71875 V 34.71875 H 19.671875 V 8.296875 H 56.78125 V 0 H 9.8125 Z"
               id="path9147" />
          </defs>
          <g
             style="fill:#262626"
             transform="matrix(0.08,0,0,-0.08,160.34402,182.13955)"
             id="g6772">
            <use
               xlink:href="#DejaVuSans-69"
               id="use6748"
               x="0"
               y="0"
               width="100%"
               height="100%" />
            <path
               d="M 111.96484,52.59375 V 44.1875 q -3.8125,2.109375 -7.64062,3.15625 -3.82813,1.046875 -7.734376,1.046875 -8.75,0 -13.59375,-5.546875 -4.828125,-5.53125 -4.828125,-15.546875 0,-10.015625 4.828125,-15.5625 4.84375,-5.53125 13.59375,-5.53125 3.906246,0 7.734376,1.046875 3.82812,1.046875 7.64062,3.15625 v -8.3125 q -3.76562,-1.75 -7.79687,-2.625 -4.01563,-0.890625 -8.562501,-0.890625 -12.359375,0 -19.640625,7.765625 -7.265625,7.765625 -7.265625,20.953125 0,13.375 7.34375,21.03125 Q 83.402344,56 96.199219,56 q 4.140621,0 8.093751,-0.859375 3.95312,-0.84375 7.67187,-2.546875 z"
               id="use6750"
               style="stroke-linecap:butt;stroke-linejoin:round" />
            <path
               d="M 166.94531,52.59375 V 44.1875 q -3.8125,2.109375 -7.64062,3.15625 -3.82813,1.046875 -7.73438,1.046875 -8.75,0 -13.59375,-5.546875 -4.82812,-5.53125 -4.82812,-15.546875 0,-10.015625 4.82812,-15.5625 4.84375,-5.53125 13.59375,-5.53125 3.90625,0 7.73438,1.046875 3.82812,1.046875 7.64062,3.15625 v -8.3125 q -3.76562,-1.75 -7.79687,-2.625 -4.01563,-0.890625 -8.5625,-0.890625 -12.35938,0 -19.64063,7.765625 -7.26562,7.765625 -7.26562,20.953125 0,13.375 7.34375,21.03125 Q 138.38281,56 151.17969,56 q 4.14062,0 8.09375,-0.859375 3.95312,-0.84375 7.67187,-2.546875 z"
               id="use6752"
               style="stroke-linecap:butt;stroke-linejoin:round" />
            <path
               d="m 229.34766,29.59375 v -4.390625 h -41.3125 q 0.59375,-9.28125 5.59375,-14.140625 5,-4.859375 13.9375,-4.859375 5.17187,0 10.03125,1.265625 4.85937,1.265625 9.65625,3.8125 v -8.5 q -4.84375,-2.046875 -9.92188,-3.125 -5.07812,-1.078125 -10.29687,-1.078125 -13.09375,0 -20.73438,7.609375 -7.64062,7.625 -7.64062,20.625 0,13.421875 7.25,21.296875 Q 193.16016,56 205.47266,56 q 11.03125,0 17.45312,-7.109375 6.42188,-7.09375 6.42188,-19.296875 z m -8.98438,2.640625 q -0.0937,7.359375 -4.125,11.75 -4.03125,4.40625 -10.67187,4.40625 -7.51563,0 -12.03125,-4.25 -4.51563,-4.25 -5.20313,-11.96875 z"
               id="use6754"
               style="stroke-linecap:butt;stroke-linejoin:round" />
            <path
               d="M 289.55859,33.015625 V 0 h -8.98437 v 32.71875 q 0,7.765625 -3.03125,11.609375 -3.03125,3.859375 -9.07813,3.859375 -7.28125,0 -11.48437,-4.640625 -4.20313,-4.625 -4.20313,-12.640625 V 0 h -9.03125 v 54.6875 h 9.03125 v -8.5 q 3.23438,4.9375 7.59375,7.375 4.375,2.4375 10.09375,2.4375 9.42188,0 14.25,-5.828125 4.84375,-5.828125 4.84375,-17.15625 z"
               id="use6756"
               style="stroke-linecap:butt;stroke-linejoin:round" />
            <path
               d="M 316.35937,70.21875 V 54.6875 h 18.5 v -6.984375 h -18.5 v -29.6875 q 0,-6.6875 1.82813,-8.59375 1.82812,-1.90625 7.45312,-1.90625 h 9.21875 V 0 h -9.21875 q -10.40625,0 -14.35937,3.875 -3.95313,3.890625 -3.95313,14.140625 v 29.6875 h -6.59375 V 54.6875 h 6.59375 v 15.53125 z"
               id="use6758"
               style="stroke-linecap:butt;stroke-linejoin:round" />
            <path
               d="m 378.36523,46.296875 q -1.51562,0.875 -3.29687,1.28125 Q 373.28711,48 371.14648,48 363.52148,48 359.44336,43.046875 355.36523,38.09375 355.36523,28.8125 V 0 h -9.03125 v 54.6875 h 9.03125 v -8.5 q 2.84375,4.984375 7.375,7.390625 Q 367.28711,56 373.78711,56 q 0.92187,0 2.04687,-0.125 1.125,-0.109375 2.48438,-0.359375 z"
               id="use6760"
               style="stroke-linecap:butt;stroke-linejoin:round" />
            <path
               d="m 387.79102,54.6875 h 8.98437 V 0 h -8.98437 z m 0,21.296875 h 8.98437 V 64.59375 h -8.98437 z"
               id="use6762"
               style="stroke-linecap:butt;stroke-linejoin:round" />
            <path
               d="M 454.93359,52.59375 V 44.1875 q -3.8125,2.109375 -7.64062,3.15625 -3.82813,1.046875 -7.73438,1.046875 -8.75,0 -13.59375,-5.546875 -4.82812,-5.53125 -4.82812,-15.546875 0,-10.015625 4.82812,-15.5625 4.84375,-5.53125 13.59375,-5.53125 3.90625,0 7.73438,1.046875 3.82812,1.046875 7.64062,3.15625 v -8.3125 q -3.76562,-1.75 -7.79687,-2.625 -4.01563,-0.890625 -8.5625,-0.890625 -12.35938,0 -19.64063,7.765625 -7.26562,7.765625 -7.26562,20.953125 0,13.375 7.34375,21.03125 Q 426.37109,56 439.16797,56 q 4.14062,0 8.09375,-0.859375 3.95312,-0.84375 7.67187,-2.546875 z"
               id="use6764"
               style="stroke-linecap:butt;stroke-linejoin:round" />
            <path
               d="m 470.55469,54.6875 h 8.98437 V 0 h -8.98437 z m 0,21.296875 h 8.98437 V 64.59375 h -8.98437 z"
               id="use6766"
               style="stroke-linecap:butt;stroke-linejoin:round" />
            <path
               d="M 507.22852,70.21875 V 54.6875 h 18.5 v -6.984375 h -18.5 v -29.6875 q 0,-6.6875 1.82812,-8.59375 1.82813,-1.90625 7.45313,-1.90625 h 9.21875 V 0 h -9.21875 q -10.40625,0 -14.35938,3.875 -3.95312,3.890625 -3.95312,14.140625 v 29.6875 h -6.59375 V 54.6875 h 6.59375 v 15.53125 z"
               id="use6768"
               style="stroke-linecap:butt;stroke-linejoin:round" />
            <path
               d="M 560.29687,-5.078125 Q 556.5,-14.84375 552.875,-17.8125 q -3.60938,-2.984375 -9.65625,-2.984375 h -7.1875 v 7.515625 h 5.28125 q 3.70312,0 5.75,1.765625 2.0625,1.75 4.54687,8.296875 L 553.21875,0.875 531.10937,54.6875 H 540.625 L 557.71875,11.921875 574.8125,54.6875 h 9.51562 z"
               id="use6770"
               style="stroke-linecap:butt;stroke-linejoin:round" />
          </g>
        </g>
      </g>
      <g
         id="matplotlib.axis_2">
        <g
           id="text_4">
          <!-- Preferred SF (cpd) -->
          <defs
             id="defs6779">
            <path
               d="M 19.671875,64.796875 V 37.40625 h 12.40625 q 6.890625,0 10.640625,3.5625 3.765625,3.5625 3.765625,10.15625 0,6.546875 -3.765625,10.109375 -3.75,3.5625 -10.640625,3.5625 z M 9.8125,72.90625 h 22.265625 q 12.265625,0 18.53125,-5.546875 6.28125,-5.546875 6.28125,-16.234375 0,-10.796875 -6.28125,-16.3125 -6.265625,-5.515625 -18.53125,-5.515625 H 19.671875 V 0 H 9.8125 Z"
               id="path9165" />
            <path
               d="M 31,75.875 Q 24.46875,64.65625 21.28125,53.65625 18.109375,42.671875 18.109375,31.390625 18.109375,20.125 21.3125,9.0625 24.515625,-2 31,-13.1875 H 23.1875 Q 15.875,-1.703125 12.234375,9.375 8.59375,20.453125 8.59375,31.390625 q 0,10.890625 3.609375,21.921875 3.625,11.046875 10.984375,22.5625 z"
               id="path9167" />
            <path
               d="m 8.015625,75.875 h 7.8125 q 7.3125,-11.515625 10.953125,-22.5625 3.640625,-11.03125 3.640625,-21.921875 0,-10.9375 -3.640625,-22.015625 -3.640625,-11.078125 -10.953125,-22.5625 h -7.8125 Q 14.5,-2 17.703125,9.0625 20.90625,20.125 20.90625,31.390625 q 0,11.28125 -3.203125,22.265625 -3.203125,11 -9.6875,22.21875 z"
               id="path9169" />
          </defs>
          <g
             style="fill:#262626"
             transform="matrix(0,-0.08,-0.08,0,133.15321,163.70123)"
             id="g6817">
            <use
               xlink:href="#DejaVuSans-80"
               id="use6781"
               x="0"
               y="0"
               width="100%"
               height="100%" />
            <path
               d="m 101.39648,46.296875 q -1.515621,0.875 -3.296871,1.28125 Q 96.318359,48 94.177734,48 86.552734,48 82.474609,43.046875 78.396484,38.09375 78.396484,28.8125 V 0 h -9.03125 v 54.6875 h 9.03125 v -8.5 q 2.84375,4.984375 7.375,7.390625 Q 90.318359,56 96.818359,56 q 0.921875,0 2.046875,-0.125 1.125,-0.109375 2.484376,-0.359375 z"
               id="use6783"
               style="stroke-linecap:butt;stroke-linejoin:round" />
            <path
               d="m 157.57227,29.59375 v -4.390625 h -41.3125 q 0.59375,-9.28125 5.59375,-14.140625 5,-4.859375 13.9375,-4.859375 5.17187,0 10.03125,1.265625 4.85937,1.265625 9.65625,3.8125 v -8.5 q -4.84375,-2.046875 -9.92188,-3.125 -5.07812,-1.078125 -10.29687,-1.078125 -13.09375,0 -20.73438,7.609375 -7.64062,7.625 -7.64062,20.625 0,13.421875 7.25,21.296875 Q 121.38477,56 133.69727,56 q 11.03125,0 17.45312,-7.109375 6.42188,-7.09375 6.42188,-19.296875 z m -8.98438,2.640625 q -0.0937,7.359375 -4.125,11.75 -4.03125,4.40625 -10.67187,4.40625 -7.51563,0 -12.03125,-4.25 -4.51563,-4.25 -5.20313,-11.96875 z"
               id="use6785"
               style="stroke-linecap:butt;stroke-linejoin:round" />
            <path
               d="M 200.00195,75.984375 V 68.5 h -8.59375 q -4.82812,0 -6.71875,-1.953125 -1.875,-1.953125 -1.875,-7.03125 V 54.6875 h 14.79688 V 47.703125 H 182.81445 V 0 h -9.03125 v 47.703125 h -8.59375 V 54.6875 h 8.59375 V 58.5 q 0,9.125 4.25,13.296875 4.25,4.1875 13.46875,4.1875 z"
               id="use6787"
               style="stroke-linecap:butt;stroke-linejoin:round" />
            <path
               d="m 254.30078,29.59375 v -4.390625 h -41.3125 q 0.59375,-9.28125 5.59375,-14.140625 5,-4.859375 13.9375,-4.859375 5.17188,0 10.03125,1.265625 4.85938,1.265625 9.65625,3.8125 v -8.5 q -4.84375,-2.046875 -9.92187,-3.125 -5.07813,-1.078125 -10.29688,-1.078125 -13.09375,0 -20.73437,7.609375 -7.64063,7.625 -7.64063,20.625 0,13.421875 7.25,21.296875 Q 218.11328,56 230.42578,56 q 11.03125,0 17.45313,-7.109375 6.42187,-7.09375 6.42187,-19.296875 z m -8.98437,2.640625 q -0.0937,7.359375 -4.125,11.75 -4.03125,4.40625 -10.67188,4.40625 -7.51562,0 -12.03125,-4.25 -4.51562,-4.25 -5.20312,-11.96875 z"
               id="use6789"
               style="stroke-linecap:butt;stroke-linejoin:round" />
            <path
               d="m 300.73047,46.296875 q -1.51563,0.875 -3.29688,1.28125 Q 295.65234,48 293.51172,48 285.88672,48 281.80859,43.046875 277.73047,38.09375 277.73047,28.8125 V 0 h -9.03125 v 54.6875 h 9.03125 v -8.5 q 2.84375,4.984375 7.375,7.390625 Q 289.65234,56 296.15234,56 q 0.92188,0 2.04688,-0.125 1.125,-0.109375 2.48437,-0.359375 z"
               id="use6791"
               style="stroke-linecap:butt;stroke-linejoin:round" />
            <path
               d="m 341.82812,46.296875 q -1.51562,0.875 -3.29687,1.28125 Q 336.75,48 334.60937,48 326.98437,48 322.90625,43.046875 318.82812,38.09375 318.82812,28.8125 V 0 h -9.03125 v 54.6875 h 9.03125 v -8.5 q 2.84375,4.984375 7.375,7.390625 Q 330.75,56 337.25,56 q 0.92187,0 2.04687,-0.125 1.125,-0.109375 2.48438,-0.359375 z"
               id="use6793"
               style="stroke-linecap:butt;stroke-linejoin:round" />
            <path
               d="m 398.00391,29.59375 v -4.390625 h -41.3125 q 0.59375,-9.28125 5.59375,-14.140625 5,-4.859375 13.9375,-4.859375 5.17187,0 10.03125,1.265625 4.85937,1.265625 9.65625,3.8125 v -8.5 q -4.84375,-2.046875 -9.92188,-3.125 -5.07812,-1.078125 -10.29687,-1.078125 -13.09375,0 -20.73438,7.609375 -7.64062,7.625 -7.64062,20.625 0,13.421875 7.25,21.296875 Q 361.81641,56 374.12891,56 q 11.03125,0 17.45312,-7.109375 6.42188,-7.09375 6.42188,-19.296875 z m -8.98438,2.640625 q -0.0937,7.359375 -4.125,11.75 -4.03125,4.40625 -10.67187,4.40625 -7.51563,0 -12.03125,-4.25 -4.51563,-4.25 -5.20313,-11.96875 z"
               id="use6795"
               style="stroke-linecap:butt;stroke-linejoin:round" />
            <path
               d="m 448.73047,46.390625 v 29.59375 h 8.98437 V 0 h -8.98437 v 8.203125 q -2.82813,-4.875 -7.15625,-7.25 -4.3125,-2.375 -10.375,-2.375 -9.90625,0 -16.14063,7.90625 -6.21875,7.921875 -6.21875,20.8125 0,12.890625 6.21875,20.796875 Q 421.29297,56 431.19922,56 q 6.0625,0 10.375,-2.375 4.32812,-2.359375 7.15625,-7.234375 z m -30.60938,-19.09375 q 0,-9.90625 4.07813,-15.546875 4.07812,-5.640625 11.20312,-5.640625 7.125,0 11.21875,5.640625 4.10938,5.640625 4.10938,15.546875 0,9.90625 -4.10938,15.546875 -4.09375,5.640625 -11.21875,5.640625 -7.125,0 -11.20312,-5.640625 -4.07813,-5.640625 -4.07813,-15.546875 z"
               id="use6797"
               style="stroke-linecap:butt;stroke-linejoin:round" />
            <path
               id="use6799"
               d=""
               style="stroke-linecap:butt;stroke-linejoin:round" />
            <path
               d="m 552.10352,70.515625 v -9.625 q -5.60938,2.6875 -10.59375,4 -4.98438,1.328125 -9.625,1.328125 -8.04688,0 -12.42188,-3.125 -4.375,-3.125 -4.375,-8.890625 0,-4.84375 2.90625,-7.3125 2.90625,-2.453125 11.01563,-3.96875 l 5.95312,-1.21875 q 11.03125,-2.109375 16.28125,-7.40625 5.25,-5.296875 5.25,-14.171875 0,-10.609375 -7.10937,-16.078125 -7.09375,-5.46875 -20.8125,-5.46875 -5.17188,0 -11.01563,1.171875 -5.82812,1.171875 -12.07812,3.46875 V 13.375 q 6,-3.359375 11.76562,-5.078125 5.76563,-1.703125 11.32813,-1.703125 8.4375,0 13.03125,3.3125 4.59375,3.328125 4.59375,9.484375 0,5.359375 -3.29688,8.390625 -3.29687,3.03125 -10.8125,4.546875 L 526.07227,33.5 q -11.03125,2.1875 -15.96875,6.875 -4.92188,4.6875 -4.92188,13.046875 0,9.671875 6.8125,15.234375 6.8125,5.5625 18.76563,5.5625 5.14062,0 10.45312,-0.9375 5.32813,-0.921875 10.89063,-2.765625 z"
               id="use6801"
               style="stroke-linecap:butt;stroke-linejoin:round" />
            <path
               d="m 571.87695,72.90625 h 41.89063 v -8.3125 H 581.73633 V 43.109375 h 28.90625 V 34.8125 H 581.73633 V 0 h -9.85938 z"
               id="use6803"
               style="stroke-linecap:butt;stroke-linejoin:round" />
            <path
               id="use6805"
               d=""
               style="stroke-linecap:butt;stroke-linejoin:round" />
            <use
               x="651.37109"
               xlink:href="#DejaVuSans-40"
               id="use6807"
               y="0"
               width="100%"
               height="100%" />
            <path
               d="M 739.16602,52.59375 V 44.1875 q -3.8125,2.109375 -7.64063,3.15625 -3.82812,1.046875 -7.73437,1.046875 -8.75,0 -13.59375,-5.546875 -4.82813,-5.53125 -4.82813,-15.546875 0,-10.015625 4.82813,-15.5625 4.84375,-5.53125 13.59375,-5.53125 3.90625,0 7.73437,1.046875 3.82813,1.046875 7.64063,3.15625 v -8.3125 q -3.76563,-1.75 -7.79688,-2.625 -4.01562,-0.890625 -8.5625,-0.890625 -12.35937,0 -19.64062,7.765625 -7.26563,7.765625 -7.26563,20.953125 0,13.375 7.34375,21.03125 Q 710.60352,56 723.40039,56 q 4.14063,0 8.09375,-0.859375 3.95313,-0.84375 7.67188,-2.546875 z"
               id="use6809"
               style="stroke-linecap:butt;stroke-linejoin:round" />
            <path
               d="m 763.47461,8.203125 v -29 h -9.03125 V 54.6875 h 9.03125 v -8.296875 q 2.84375,4.875 7.15625,7.234375 4.32812,2.375 10.32812,2.375 9.96875,0 16.1875,-7.90625 6.23438,-7.90625 6.23438,-20.796875 0,-12.890625 -6.23438,-20.8125 -6.21875,-7.90625 -16.1875,-7.90625 -6,0 -10.32812,2.375 -4.3125,2.375 -7.15625,7.25 z m 30.57812,19.09375 q 0,9.90625 -4.07812,15.546875 -4.07813,5.640625 -11.20313,5.640625 -7.14062,0 -11.21875,-5.640625 -4.07812,-5.640625 -4.07812,-15.546875 0,-9.90625 4.07812,-15.546875 4.07813,-5.640625 11.21875,-5.640625 7.125,0 11.20313,5.640625 4.07812,5.640625 4.07812,15.546875 z"
               id="use6811"
               style="stroke-linecap:butt;stroke-linejoin:round" />
            <path
               d="m 854.24805,46.390625 v 29.59375 h 8.98437 V 0 h -8.98437 v 8.203125 q -2.82813,-4.875 -7.15625,-7.25 -4.3125,-2.375 -10.375,-2.375 -9.90625,0 -16.14063,7.90625 -6.21875,7.921875 -6.21875,20.8125 0,12.890625 6.21875,20.796875 Q 826.81055,56 836.7168,56 q 6.0625,0 10.375,-2.375 4.32812,-2.359375 7.15625,-7.234375 z m -30.60938,-19.09375 q 0,-9.90625 4.07813,-15.546875 4.07812,-5.640625 11.20312,-5.640625 7.125,0 11.21875,5.640625 4.10938,5.640625 4.10938,15.546875 0,9.90625 -4.10938,15.546875 -4.09375,5.640625 -11.21875,5.640625 -7.125,0 -11.20312,-5.640625 -4.07813,-5.640625 -4.07813,-15.546875 z"
               id="use6813"
               style="stroke-linecap:butt;stroke-linejoin:round" />
            <use
               x="872.31836"
               xlink:href="#DejaVuSans-41"
               id="use6815"
               y="0"
               width="100%"
               height="100%" />
          </g>
        </g>
      </g>
      <g
         id="line2d_1" />
      <g
         id="line2d_2" />
      <g
         id="patch_3">
        <path
           d="M 138.81696,172.0608 V 82.432901"
           style="fill:none;stroke:#262626;stroke-linecap:square;stroke-linejoin:miter"
           id="path6827" />
      </g>
      <g
         id="patch_4">
        <path
           d="m 138.81696,172.0608 h 90.03913"
           style="fill:none;stroke:#262626;stroke-linecap:square;stroke-linejoin:miter"
           id="path6830" />
      </g>
    </g>
    <g
       id="patch_5"
       style="stroke-linecap:butt;stroke-linejoin:round"
       transform="matrix(7.076799,0,0,7.076799,-674.91383,-389.03088)">
      <path
         d="m 246.86391,172.0608 h 90.03913 V 82.432901 h -90.03913 z"
         style="fill:#ffffff"
         id="path1863" />
    </g>
    <g
       id="matplotlib.axis_3"
       style="stroke-linecap:butt;stroke-linejoin:round"
       transform="matrix(7.076799,0,0,7.076799,-674.91383,-389.03088)">
      <g
         id="text_5">
        <!-- Eccentricity -->
        <g
           style="fill:#262626"
           transform="matrix(0.08,0,0,-0.08,268.39098,182.13955)"
           id="g1890">
          <use
             xlink:href="#DejaVuSans-69"
             id="use1866"
             x="0"
             y="0"
             width="100%"
             height="100%" />
          <path
             d="M 111.96484,52.59375 V 44.1875 q -3.8125,2.109375 -7.64062,3.15625 -3.82813,1.046875 -7.734376,1.046875 -8.75,0 -13.59375,-5.546875 -4.828125,-5.53125 -4.828125,-15.546875 0,-10.015625 4.828125,-15.5625 4.84375,-5.53125 13.59375,-5.53125 3.906246,0 7.734376,1.046875 3.82812,1.046875 7.64062,3.15625 v -8.3125 q -3.76562,-1.75 -7.79687,-2.625 -4.01563,-0.890625 -8.562501,-0.890625 -12.359375,0 -19.640625,7.765625 -7.265625,7.765625 -7.265625,20.953125 0,13.375 7.34375,21.03125 Q 83.402344,56 96.199219,56 q 4.140621,0 8.093751,-0.859375 3.95312,-0.84375 7.67187,-2.546875 z"
             id="use1868"
             style="stroke-linecap:butt;stroke-linejoin:round" />
          <path
             d="M 166.94531,52.59375 V 44.1875 q -3.8125,2.109375 -7.64062,3.15625 -3.82813,1.046875 -7.73438,1.046875 -8.75,0 -13.59375,-5.546875 -4.82812,-5.53125 -4.82812,-15.546875 0,-10.015625 4.82812,-15.5625 4.84375,-5.53125 13.59375,-5.53125 3.90625,0 7.73438,1.046875 3.82812,1.046875 7.64062,3.15625 v -8.3125 q -3.76562,-1.75 -7.79687,-2.625 -4.01563,-0.890625 -8.5625,-0.890625 -12.35938,0 -19.64063,7.765625 -7.26562,7.765625 -7.26562,20.953125 0,13.375 7.34375,21.03125 Q 138.38281,56 151.17969,56 q 4.14062,0 8.09375,-0.859375 3.95312,-0.84375 7.67187,-2.546875 z"
             id="use1870"
             style="stroke-linecap:butt;stroke-linejoin:round" />
          <path
             d="m 229.34766,29.59375 v -4.390625 h -41.3125 q 0.59375,-9.28125 5.59375,-14.140625 5,-4.859375 13.9375,-4.859375 5.17187,0 10.03125,1.265625 4.85937,1.265625 9.65625,3.8125 v -8.5 q -4.84375,-2.046875 -9.92188,-3.125 -5.07812,-1.078125 -10.29687,-1.078125 -13.09375,0 -20.73438,7.609375 -7.64062,7.625 -7.64062,20.625 0,13.421875 7.25,21.296875 Q 193.16016,56 205.47266,56 q 11.03125,0 17.45312,-7.109375 6.42188,-7.09375 6.42188,-19.296875 z m -8.98438,2.640625 q -0.0937,7.359375 -4.125,11.75 -4.03125,4.40625 -10.67187,4.40625 -7.51563,0 -12.03125,-4.25 -4.51563,-4.25 -5.20313,-11.96875 z"
             id="use1872"
             style="stroke-linecap:butt;stroke-linejoin:round" />
          <path
             d="M 289.55859,33.015625 V 0 h -8.98437 v 32.71875 q 0,7.765625 -3.03125,11.609375 -3.03125,3.859375 -9.07813,3.859375 -7.28125,0 -11.48437,-4.640625 -4.20313,-4.625 -4.20313,-12.640625 V 0 h -9.03125 v 54.6875 h 9.03125 v -8.5 q 3.23438,4.9375 7.59375,7.375 4.375,2.4375 10.09375,2.4375 9.42188,0 14.25,-5.828125 4.84375,-5.828125 4.84375,-17.15625 z"
             id="use1874"
             style="stroke-linecap:butt;stroke-linejoin:round" />
          <path
             d="M 316.35937,70.21875 V 54.6875 h 18.5 v -6.984375 h -18.5 v -29.6875 q 0,-6.6875 1.82813,-8.59375 1.82812,-1.90625 7.45312,-1.90625 h 9.21875 V 0 h -9.21875 q -10.40625,0 -14.35937,3.875 -3.95313,3.890625 -3.95313,14.140625 v 29.6875 h -6.59375 V 54.6875 h 6.59375 v 15.53125 z"
             id="use1876"
             style="stroke-linecap:butt;stroke-linejoin:round" />
          <path
             d="m 378.36523,46.296875 q -1.51562,0.875 -3.29687,1.28125 Q 373.28711,48 371.14648,48 363.52148,48 359.44336,43.046875 355.36523,38.09375 355.36523,28.8125 V 0 h -9.03125 v 54.6875 h 9.03125 v -8.5 q 2.84375,4.984375 7.375,7.390625 Q 367.28711,56 373.78711,56 q 0.92187,0 2.04687,-0.125 1.125,-0.109375 2.48438,-0.359375 z"
             id="use1878"
             style="stroke-linecap:butt;stroke-linejoin:round" />
          <path
             d="m 387.79102,54.6875 h 8.98437 V 0 h -8.98437 z m 0,21.296875 h 8.98437 V 64.59375 h -8.98437 z"
             id="use1880"
             style="stroke-linecap:butt;stroke-linejoin:round" />
          <path
             d="M 454.93359,52.59375 V 44.1875 q -3.8125,2.109375 -7.64062,3.15625 -3.82813,1.046875 -7.73438,1.046875 -8.75,0 -13.59375,-5.546875 -4.82812,-5.53125 -4.82812,-15.546875 0,-10.015625 4.82812,-15.5625 4.84375,-5.53125 13.59375,-5.53125 3.90625,0 7.73438,1.046875 3.82812,1.046875 7.64062,3.15625 v -8.3125 q -3.76562,-1.75 -7.79687,-2.625 -4.01563,-0.890625 -8.5625,-0.890625 -12.35938,0 -19.64063,7.765625 -7.26562,7.765625 -7.26562,20.953125 0,13.375 7.34375,21.03125 Q 426.37109,56 439.16797,56 q 4.14062,0 8.09375,-0.859375 3.95312,-0.84375 7.67187,-2.546875 z"
             id="use1882"
             style="stroke-linecap:butt;stroke-linejoin:round" />
          <path
             d="m 470.55469,54.6875 h 8.98437 V 0 h -8.98437 z m 0,21.296875 h 8.98437 V 64.59375 h -8.98437 z"
             id="use1884"
             style="stroke-linecap:butt;stroke-linejoin:round" />
          <path
             d="M 507.22852,70.21875 V 54.6875 h 18.5 v -6.984375 h -18.5 v -29.6875 q 0,-6.6875 1.82812,-8.59375 1.82813,-1.90625 7.45313,-1.90625 h 9.21875 V 0 h -9.21875 q -10.40625,0 -14.35938,3.875 -3.95312,3.890625 -3.95312,14.140625 v 29.6875 h -6.59375 V 54.6875 h 6.59375 v 15.53125 z"
             id="use1886"
             style="stroke-linecap:butt;stroke-linejoin:round" />
          <path
             d="M 560.29687,-5.078125 Q 556.5,-14.84375 552.875,-17.8125 q -3.60938,-2.984375 -9.65625,-2.984375 h -7.1875 v 7.515625 h 5.28125 q 3.70312,0 5.75,1.765625 2.0625,1.75 4.54687,8.296875 L 553.21875,0.875 531.10937,54.6875 H 540.625 L 557.71875,11.921875 574.8125,54.6875 h 9.51562 z"
             id="use1888"
             style="stroke-linecap:butt;stroke-linejoin:round" />
        </g>
      </g>
    </g>
    <g
       id="matplotlib.axis_4"
       style="stroke-linecap:butt;stroke-linejoin:round"
       transform="matrix(7.076799,0,0,7.076799,-674.91383,-389.03088)">
      <g
         id="text_6">
        <!-- Preferred period (deg) -->
        <defs
           id="defs1895">
          <path
             d="m 45.40625,27.984375 q 0,9.765625 -4.03125,15.125 -4.015625,5.375 -11.296875,5.375 -7.21875,0 -11.25,-5.375 -4.03125,-5.359375 -4.03125,-15.125 0,-9.71875 4.03125,-15.09375 4.03125,-5.375 11.25,-5.375 7.28125,0 11.296875,5.375 4.03125,5.375 4.03125,15.09375 z M 54.390625,6.78125 q 0,-13.953125 -6.203125,-20.765625 -6.1875,-6.8125 -18.984375,-6.8125 -4.734375,0 -8.9375,0.703125 -4.203125,0.703125 -8.15625,2.171875 V -9.1875 q 3.953125,-2.140625 7.8125,-3.15625 3.859375,-1.03125 7.859375,-1.03125 8.84375,0 13.234375,4.609375 4.390625,4.609375 4.390625,13.9375 V 9.625 Q 42.625,4.78125 38.28125,2.390625 33.9375,0 27.875,0 17.828125,0 11.671875,7.65625 q -6.15625,7.671875 -6.15625,20.328125 0,12.6875 6.15625,20.34375 Q 17.828125,56 27.875,56 q 6.0625,0 10.40625,-2.390625 4.34375,-2.390625 7.125,-7.21875 V 54.6875 h 8.984375 z"
             id="path5117" />
        </defs>
        <g
           style="fill:#262626"
           transform="matrix(0,-0.08,-0.08,0,241.20016,171.86623)"
           id="g1941">
          <use
             xlink:href="#DejaVuSans-80"
             id="use1897"
             x="0"
             y="0"
             width="100%"
             height="100%" />
          <path
             d="m 101.39648,46.296875 q -1.515621,0.875 -3.296871,1.28125 Q 96.318359,48 94.177734,48 86.552734,48 82.474609,43.046875 78.396484,38.09375 78.396484,28.8125 V 0 h -9.03125 v 54.6875 h 9.03125 v -8.5 q 2.84375,4.984375 7.375,7.390625 Q 90.318359,56 96.818359,56 q 0.921875,0 2.046875,-0.125 1.125,-0.109375 2.484376,-0.359375 z"
             id="use1899"
             style="stroke-linecap:butt;stroke-linejoin:round" />
          <path
             d="m 157.57227,29.59375 v -4.390625 h -41.3125 q 0.59375,-9.28125 5.59375,-14.140625 5,-4.859375 13.9375,-4.859375 5.17187,0 10.03125,1.265625 4.85937,1.265625 9.65625,3.8125 v -8.5 q -4.84375,-2.046875 -9.92188,-3.125 -5.07812,-1.078125 -10.29687,-1.078125 -13.09375,0 -20.73438,7.609375 -7.64062,7.625 -7.64062,20.625 0,13.421875 7.25,21.296875 Q 121.38477,56 133.69727,56 q 11.03125,0 17.45312,-7.109375 6.42188,-7.09375 6.42188,-19.296875 z m -8.98438,2.640625 q -0.0937,7.359375 -4.125,11.75 -4.03125,4.40625 -10.67187,4.40625 -7.51563,0 -12.03125,-4.25 -4.51563,-4.25 -5.20313,-11.96875 z"
             id="use1901"
             style="stroke-linecap:butt;stroke-linejoin:round" />
          <path
             d="M 200.00195,75.984375 V 68.5 h -8.59375 q -4.82812,0 -6.71875,-1.953125 -1.875,-1.953125 -1.875,-7.03125 V 54.6875 h 14.79688 V 47.703125 H 182.81445 V 0 h -9.03125 v 47.703125 h -8.59375 V 54.6875 h 8.59375 V 58.5 q 0,9.125 4.25,13.296875 4.25,4.1875 13.46875,4.1875 z"
             id="use1903"
             style="stroke-linecap:butt;stroke-linejoin:round" />
          <path
             d="m 254.30078,29.59375 v -4.390625 h -41.3125 q 0.59375,-9.28125 5.59375,-14.140625 5,-4.859375 13.9375,-4.859375 5.17188,0 10.03125,1.265625 4.85938,1.265625 9.65625,3.8125 v -8.5 q -4.84375,-2.046875 -9.92187,-3.125 -5.07813,-1.078125 -10.29688,-1.078125 -13.09375,0 -20.73437,7.609375 -7.64063,7.625 -7.64063,20.625 0,13.421875 7.25,21.296875 Q 218.11328,56 230.42578,56 q 11.03125,0 17.45313,-7.109375 6.42187,-7.09375 6.42187,-19.296875 z m -8.98437,2.640625 q -0.0937,7.359375 -4.125,11.75 -4.03125,4.40625 -10.67188,4.40625 -7.51562,0 -12.03125,-4.25 -4.51562,-4.25 -5.20312,-11.96875 z"
             id="use1905"
             style="stroke-linecap:butt;stroke-linejoin:round" />
          <path
             d="m 300.73047,46.296875 q -1.51563,0.875 -3.29688,1.28125 Q 295.65234,48 293.51172,48 285.88672,48 281.80859,43.046875 277.73047,38.09375 277.73047,28.8125 V 0 h -9.03125 v 54.6875 h 9.03125 v -8.5 q 2.84375,4.984375 7.375,7.390625 Q 289.65234,56 296.15234,56 q 0.92188,0 2.04688,-0.125 1.125,-0.109375 2.48437,-0.359375 z"
             id="use1907"
             style="stroke-linecap:butt;stroke-linejoin:round" />
          <path
             d="m 341.82812,46.296875 q -1.51562,0.875 -3.29687,1.28125 Q 336.75,48 334.60937,48 326.98437,48 322.90625,43.046875 318.82812,38.09375 318.82812,28.8125 V 0 h -9.03125 v 54.6875 h 9.03125 v -8.5 q 2.84375,4.984375 7.375,7.390625 Q 330.75,56 337.25,56 q 0.92187,0 2.04687,-0.125 1.125,-0.109375 2.48438,-0.359375 z"
             id="use1909"
             style="stroke-linecap:butt;stroke-linejoin:round" />
          <path
             d="m 398.00391,29.59375 v -4.390625 h -41.3125 q 0.59375,-9.28125 5.59375,-14.140625 5,-4.859375 13.9375,-4.859375 5.17187,0 10.03125,1.265625 4.85937,1.265625 9.65625,3.8125 v -8.5 q -4.84375,-2.046875 -9.92188,-3.125 -5.07812,-1.078125 -10.29687,-1.078125 -13.09375,0 -20.73438,7.609375 -7.64062,7.625 -7.64062,20.625 0,13.421875 7.25,21.296875 Q 361.81641,56 374.12891,56 q 11.03125,0 17.45312,-7.109375 6.42188,-7.09375 6.42188,-19.296875 z m -8.98438,2.640625 q -0.0937,7.359375 -4.125,11.75 -4.03125,4.40625 -10.67187,4.40625 -7.51563,0 -12.03125,-4.25 -4.51563,-4.25 -5.20313,-11.96875 z"
             id="use1911"
             style="stroke-linecap:butt;stroke-linejoin:round" />
          <path
             d="m 448.73047,46.390625 v 29.59375 h 8.98437 V 0 h -8.98437 v 8.203125 q -2.82813,-4.875 -7.15625,-7.25 -4.3125,-2.375 -10.375,-2.375 -9.90625,0 -16.14063,7.90625 -6.21875,7.921875 -6.21875,20.8125 0,12.890625 6.21875,20.796875 Q 421.29297,56 431.19922,56 q 6.0625,0 10.375,-2.375 4.32812,-2.359375 7.15625,-7.234375 z m -30.60938,-19.09375 q 0,-9.90625 4.07813,-15.546875 4.07812,-5.640625 11.20312,-5.640625 7.125,0 11.21875,5.640625 4.10938,5.640625 4.10938,15.546875 0,9.90625 -4.10938,15.546875 -4.09375,5.640625 -11.21875,5.640625 -7.125,0 -11.20312,-5.640625 -4.07813,-5.640625 -4.07813,-15.546875 z"
             id="use1913"
             style="stroke-linecap:butt;stroke-linejoin:round" />
          <path
             id="use1915"
             d=""
             style="stroke-linecap:butt;stroke-linejoin:round" />
          <path
             d="m 516.69727,8.203125 v -29 h -9.03125 V 54.6875 h 9.03125 v -8.296875 q 2.84375,4.875 7.15625,7.234375 4.32812,2.375 10.32812,2.375 9.96875,0 16.1875,-7.90625 6.23438,-7.90625 6.23438,-20.796875 0,-12.890625 -6.23438,-20.8125 -6.21875,-7.90625 -16.1875,-7.90625 -6,0 -10.32812,2.375 -4.3125,2.375 -7.15625,7.25 z m 30.57812,19.09375 q 0,9.90625 -4.07812,15.546875 -4.07813,5.640625 -11.20313,5.640625 -7.14062,0 -11.21875,-5.640625 -4.07812,-5.640625 -4.07812,-15.546875 0,-9.90625 4.07812,-15.546875 4.07813,-5.640625 11.21875,-5.640625 7.125,0 11.20313,5.640625 4.07812,5.640625 4.07812,15.546875 z"
             id="use1917"
             style="stroke-linecap:butt;stroke-linejoin:round" />
          <path
             d="m 618.26758,29.59375 v -4.390625 h -41.3125 q 0.59375,-9.28125 5.59375,-14.140625 5,-4.859375 13.9375,-4.859375 5.17187,0 10.03125,1.265625 4.85937,1.265625 9.65625,3.8125 v -8.5 q -4.84375,-2.046875 -9.92188,-3.125 -5.07812,-1.078125 -10.29687,-1.078125 -13.09375,0 -20.73438,7.609375 -7.64062,7.625 -7.64062,20.625 0,13.421875 7.25,21.296875 Q 582.08008,56 594.39258,56 q 11.03125,0 17.45312,-7.109375 6.42188,-7.09375 6.42188,-19.296875 z m -8.98438,2.640625 q -0.0937,7.359375 -4.125,11.75 -4.03125,4.40625 -10.67187,4.40625 -7.51563,0 -12.03125,-4.25 -4.51563,-4.25 -5.20313,-11.96875 z"
             id="use1919"
             style="stroke-linecap:butt;stroke-linejoin:round" />
          <path
             d="m 664.69727,46.296875 q -1.51563,0.875 -3.29688,1.28125 Q 659.61914,48 657.47852,48 649.85352,48 645.77539,43.046875 641.69727,38.09375 641.69727,28.8125 V 0 h -9.03125 v 54.6875 h 9.03125 v -8.5 q 2.84375,4.984375 7.375,7.390625 Q 653.61914,56 660.11914,56 q 0.92188,0 2.04688,-0.125 1.125,-0.109375 2.48437,-0.359375 z"
             id="use1921"
             style="stroke-linecap:butt;stroke-linejoin:round" />
          <path
             d="m 674.12305,54.6875 h 8.98437 V 0 h -8.98437 z m 0,21.296875 h 8.98437 V 64.59375 h -8.98437 z"
             id="use1923"
             style="stroke-linecap:butt;stroke-linejoin:round" />
          <path
             d="m 723.09375,48.390625 q -7.21875,0 -11.42188,-5.640625 -4.20312,-5.640625 -4.20312,-15.453125 0,-9.8125 4.17187,-15.453125 4.1875,-5.640625 11.45313,-5.640625 7.1875,0 11.375,5.65625 4.20312,5.671875 4.20312,15.4375 0,9.71875 -4.20312,15.40625 -4.1875,5.6875 -11.375,5.6875 z m 0,7.609375 q 11.71875,0 18.40625,-7.625 6.70312,-7.609375 6.70312,-21.078125 0,-13.421875 -6.70312,-21.078125 -6.6875,-7.640625 -18.40625,-7.640625 -11.76563,0 -18.4375,7.640625 Q 698,13.875 698,27.296875 698,40.765625 704.65625,48.375 711.32812,56 723.09375,56 Z"
             id="use1925"
             style="stroke-linecap:butt;stroke-linejoin:round" />
          <path
             d="m 799.07227,46.390625 v 29.59375 h 8.98437 V 0 h -8.98437 v 8.203125 q -2.82813,-4.875 -7.15625,-7.25 -4.3125,-2.375 -10.375,-2.375 -9.90625,0 -16.14063,7.90625 -6.21875,7.921875 -6.21875,20.8125 0,12.890625 6.21875,20.796875 Q 771.63477,56 781.54102,56 q 6.0625,0 10.375,-2.375 4.32812,-2.359375 7.15625,-7.234375 z m -30.60938,-19.09375 q 0,-9.90625 4.07813,-15.546875 4.07812,-5.640625 11.20312,-5.640625 7.125,0 11.21875,5.640625 4.10938,5.640625 4.10938,15.546875 0,9.90625 -4.10938,15.546875 -4.09375,5.640625 -11.21875,5.640625 -7.125,0 -11.20312,-5.640625 -4.07813,-5.640625 -4.07813,-15.546875 z"
             id="use1927"
             style="stroke-linecap:butt;stroke-linejoin:round" />
          <path
             id="use1929"
             d=""
             style="stroke-linecap:butt;stroke-linejoin:round" />
          <use
             x="848.92969"
             xlink:href="#DejaVuSans-40"
             id="use1931"
             y="0"
             width="100%"
             height="100%" />
          <path
             d="m 933.34961,46.390625 v 29.59375 h 8.98437 V 0 h -8.98437 v 8.203125 q -2.82813,-4.875 -7.15625,-7.25 -4.3125,-2.375 -10.375,-2.375 -9.90625,0 -16.14063,7.90625 -6.21875,7.921875 -6.21875,20.8125 0,12.890625 6.21875,20.796875 Q 905.91211,56 915.81836,56 q 6.0625,0 10.375,-2.375 4.32812,-2.359375 7.15625,-7.234375 z m -30.60938,-19.09375 q 0,-9.90625 4.07813,-15.546875 4.07812,-5.640625 11.20312,-5.640625 7.125,0 11.21875,5.640625 4.10938,5.640625 4.10938,15.546875 0,9.90625 -4.10938,15.546875 -4.09375,5.640625 -11.21875,5.640625 -7.125,0 -11.20312,-5.640625 -4.07813,-5.640625 -4.07813,-15.546875 z"
             id="use1933"
             style="stroke-linecap:butt;stroke-linejoin:round" />
          <path
             d="m 1007.623,29.59375 v -4.390625 h -41.31245 q 0.59375,-9.28125 5.59375,-14.140625 5,-4.859375 13.9375,-4.859375 5.17187,0 10.03125,1.265625 4.85935,1.265625 9.65625,3.8125 v -8.5 q -4.8438,-2.046875 -9.92188,-3.125 -5.07812,-1.078125 -10.29687,-1.078125 -13.09375,0 -20.73438,7.609375 -7.64062,7.625 -7.64062,20.625 0,13.421875 7.25,21.296875 Q 971.43555,56 983.74805,56 q 11.03125,0 17.45315,-7.109375 6.4218,-7.09375 6.4218,-19.296875 z m -8.98433,2.640625 q -0.0937,7.359375 -4.125,11.75 -4.03125,4.40625 -10.67187,4.40625 -7.51563,0 -12.03125,-4.25 -4.51563,-4.25 -5.20313,-11.96875 z"
             id="use1935"
             style="stroke-linecap:butt;stroke-linejoin:round" />
          <use
             x="1012.9434"
             xlink:href="#DejaVuSans-103"
             id="use1937"
             y="0"
             width="100%"
             height="100%" />
          <use
             x="1076.4199"
             xlink:href="#DejaVuSans-41"
             id="use1939"
             y="0"
             width="100%"
             height="100%" />
        </g>
      </g>
    </g>
    <g
       id="patch_6"
       style="stroke-linecap:butt;stroke-linejoin:round"
       transform="matrix(7.076799,0,0,7.076799,-674.91383,-389.03088)">
      <path
         d="M 246.86391,172.0608 V 82.432901"
         style="fill:none;stroke:#262626;stroke-linecap:square;stroke-linejoin:miter"
         id="path1951" />
    </g>
    <g
       id="patch_7"
       style="stroke-linecap:butt;stroke-linejoin:round"
       transform="matrix(7.076799,0,0,7.076799,-674.91383,-389.03088)">
      <path
         d="m 246.86391,172.0608 h 90.03913"
         style="fill:none;stroke:#262626;stroke-linecap:square;stroke-linejoin:miter"
         id="path1954" />
    </g>
    <g
       id="g8856"
       transform="matrix(2.0412418,0,0,2.0412418,-3273.2708,-324.67023)"
       style="stroke-width:0.489897">
      <path
         clip-path="url(#pb2e93d09e4)"
         d="m 57.681818,256.75714 5.176253,-0.16172 5.176252,-0.48515 5.176252,-0.80859 5.176252,-1.13203 5.176253,-1.45547 5.176252,-1.7789 5.176252,-2.10234 5.176253,-2.42577 5.176253,-2.74921 5.17625,-3.07265 5.17625,-3.39609 5.17626,-3.71952 5.17625,-4.04296 5.17625,-4.36639 5.17625,-4.68983 5.17625,-5.01327 5.17626,-5.33671 5.17625,-5.66014 5.17625,-5.98358 5.17625,-6.30701 5.17626,-6.63045 5.17625,-6.95389 5.17625,-7.27733 5.17625,-7.60076 5.17626,-7.92419 5.17625,-8.24764 5.17625,-8.57107 5.17625,-8.89451 5.17625,-9.21794 5.17626,-9.54139 5.17625,-9.86481 5.17625,-10.188259 5.17625,-10.511691 5.17626,-10.835129 5.17625,-11.158564 5.17625,-11.482002 5.17625,-11.805438 5.17626,-12.128875 L 259.55566,10.78356 264.32991,-1"
         style="fill:none;stroke:#cccccc;stroke-width:5.24573;stroke-linecap:square;stroke-miterlimit:4;stroke-dasharray:none;stroke-opacity:1"
         id="path7958"
         transform="matrix(1.3333333,0,0,1.3333333,2066.8991,207.68699)" />
    </g>
    <g
       id="g5878"
       transform="matrix(5.6614392,0,0,5.6614392,-9141.8351,-2670.3215)">
      <g
         id="patch_8"
         style="stroke-linecap:butt;stroke-linejoin:round"
         transform="matrix(1.25,0,0,1.25,1503.9849,411.14629)">
        <path
           d="m 191.22119,80.743624 q 48.88857,-28.357403 97.77714,-0.0014"
           style="fill:none;stroke:#000000;stroke-width:1.2;stroke-linecap:round"
           id="path1957" />
        <path
           d="m 195.68474,80.466676 -4.46355,0.276948 2.45657,-3.737011"
           style="fill:none;stroke:#000000;stroke-width:1.2;stroke-linecap:round"
           id="path1959" />
        <path
           d="m 286.54167,77.00528 2.45666,3.736959 -4.46356,-0.276854"
           style="fill:none;stroke:#000000;stroke-width:1.2;stroke-linecap:round"
           id="path1961" />
      </g>
      <g
         id="text_7"
         style="stroke-linecap:butt;stroke-linejoin:round"
         transform="matrix(1.25,0,0,1.25,1503.9849,411.14629)">
        <!-- $\frac{1}{f(x)}$ -->
        <defs
           id="defs1967">
          <path
             d="m 12.40625,8.296875 h 16.109375 v 55.625 L 10.984375,60.40625 v 8.984375 l 17.4375,3.515625 H 38.28125 V 8.296875 H 54.390625 V 0 H 12.40625 Z"
             id="path5157" />
          <path
             d="M 47.796875,75.984375 46.390625,68.5 h -8.59375 q -4.890625,0 -7.109375,-1.921875 -2.21875,-1.921875 -3.296875,-7.0625 L 26.421875,54.6875 H 41.21875 L 39.890625,47.703125 H 25.09375 L 15.828125,0 H 6.78125 l 9.328125,47.703125 h -8.59375 l 1.28125,6.984375 h 8.59375 l 0.71875,3.8125 q 1.859375,9.671875 6.515625,13.578125 4.671875,3.90625 14.6875,3.90625 z"
             id="path5159" />
          <path
             d="M 60.015625,54.6875 34.90625,27.875 50.296875,0 h -10.3125 L 28.421875,21.6875 8.296875,0 H -2.59375 L 24.3125,28.8125 10.015625,54.6875 H 20.3125 l 10.5,-19.78125 18.3125,19.78125 z"
             id="path5161" />
        </defs>
        <g
           style="fill:#262626"
           transform="matrix(0.1,0,0,-0.1,233.41098,59.507321)"
           id="g1981">
          <use
             transform="matrix(0.7,0,0,0.7,38,43.965625)"
             xlink:href="#DejaVuSans-49"
             id="use1969"
             x="0"
             y="0"
             width="100%"
             height="100%" />
          <use
             transform="matrix(0.7,0,0,0.7,0,-40.473437)"
             xlink:href="#DejaVuSans-Oblique-102"
             id="use1971"
             x="0"
             y="0"
             width="100%"
             height="100%" />
          <use
             transform="matrix(0.7,0,0,0.7,24.643555,-40.473437)"
             xlink:href="#DejaVuSans-40"
             id="use1973"
             x="0"
             y="0"
             width="100%"
             height="100%" />
          <use
             transform="matrix(0.7,0,0,0.7,51.953125,-40.473437)"
             xlink:href="#DejaVuSans-Oblique-120"
             id="use1975"
             x="0"
             y="0"
             width="100%"
             height="100%" />
          <use
             transform="matrix(0.7,0,0,0.7,93.378906,-40.473437)"
             xlink:href="#DejaVuSans-41"
             id="use1977"
             x="0"
             y="0"
             width="100%"
             height="100%" />
          <path
             d="m 0,18.965625 v 6.25 h 120.68848 v -6.25 z"
             id="path1979" />
        </g>
      </g>
    </g>
    <path
       clip-path="url(#pad6b736d29)"
       d="m 95.291534,-1 3.800303,8.282542 5.176253,11.85809 5.17625,12.216295 5.17625,12.379725 5.17626,12.375398 5.17625,12.231312 5.17625,11.9747 5.17625,11.630823 5.17625,11.222245 5.17626,10.76847 5.17625,10.28592 5.17625,9.78806 5.17625,9.28562 5.17626,8.78704 5.17625,8.29863 5.17625,7.82509 5.17625,7.36969 5.17626,6.93458 5.17625,6.52103 5.17625,6.12968 5.17625,5.76054 5.17625,5.41335 5.17626,5.0875 5.17625,4.78219 5.17625,4.49653 5.17625,4.22949 5.17626,3.98007 5.17625,3.74721 5.17625,3.52988 5.17625,3.32707 5.17626,3.13782 5.17625,2.96119 5.17625,2.79632 5.17625,2.64236 5.17626,2.49856 5.17625,2.36417 5.17625,2.23855 5.17625,2.12102 5.17625,2.01104 5.17626,1.90804 5.17625,1.81154 5.17625,1.72105"
       style="fill:none;stroke:#cccccc;stroke-width:6.01764425;stroke-linecap:square;stroke-linejoin:round;stroke-miterlimit:4;stroke-dasharray:none"
       id="path6602"
       transform="matrix(2.3725231,0,0,2.3725231,134.16658,88.298818)" />
    <path
       clip-path="url(#p2343a3e18f-1)"
       d="m 143.63714,-1 0.94299,51.197437 1.67048,16.548833 1.67049,9.75324 1.67048,6.94047 1.67049,5.392055 1.67048,4.410063 1.67049,3.731239 1.67048,3.233783 1.67049,2.8535 1.67048,2.55332 1.67049,2.31033 1.67048,2.1096 1.67049,1.94097 1.67048,1.79731 1.67049,1.67348 1.67048,1.5656 1.67049,1.47079 1.67048,1.38683 1.67048,1.31192 1.67049,1.24469 1.67048,1.18403 1.67049,1.129 1.67048,1.07886 1.67049,1.03298 1.67048,0.99085 1.67049,0.95203 1.67048,0.91612 1.67049,0.88283 1.67048,0.85187 1.67049,0.82301 1.67048,0.79605 1.67049,0.77079 1.67048,0.74709 1.67049,0.7248 1.67048,0.70381 1.67049,0.68399 1.67048,0.66526 1.67049,0.64753 1.67048,0.63071 1.67049,0.61476 1.67048,0.59959 1.67049,0.58515 1.67048,0.57138 1.67048,0.55826 1.67049,0.54572 1.67048,0.53373 1.67049,0.52225 1.67048,0.51127 1.67049,0.50073"
       style="fill:none;stroke:#000000;stroke-width:2;stroke-linecap:round;stroke-linejoin:round;stroke-opacity:1"
       id="path9775"
       transform="matrix(7.1387331,0,0,7.1387331,-721.86291,-397.67466)" />
    <g
       id="line2d_3"
       style="stroke-linecap:butt;stroke-linejoin:round"
       transform="matrix(7.076799,0,0,7.076799,-674.91383,-389.03088)">
      <path
         clip-path="url(#p7b6b0d456f)"
         d="m 250.9566,167.9868 1.67049,-1.66285 1.67048,-1.66286 1.67048,-1.66285 1.67049,-1.66286 1.67049,-1.66285 1.67048,-1.66286 1.67048,-1.66285 1.67049,-1.66286 1.67048,-1.66285 1.67049,-1.66286 1.67048,-1.66285 1.67049,-1.66286 1.67048,-1.66285 1.67049,-1.66286 1.67048,-1.66285 1.67049,-1.66286 1.67048,-1.66286 1.67049,-1.66285 1.67048,-1.66286 1.67049,-1.66285 1.67048,-1.66286 1.67049,-1.66285 1.67048,-1.66286 1.67049,-1.66285 1.67048,-1.66286 1.67048,-1.66285 1.67049,-1.66286 1.67048,-1.66285 1.67049,-1.66286 1.67048,-1.66285 1.67049,-1.66286 1.67048,-1.66285 1.67049,-1.66286 1.67048,-1.66285 1.67049,-1.66286 1.67048,-1.66285 1.67049,-1.66286 1.67048,-1.66285 1.67049,-1.66286 1.67048,-1.66286 1.67049,-1.662851 1.67048,-1.662855 1.67049,-1.662856 1.67048,-1.662855 1.67049,-1.662855 1.67048,-1.662856 1.67049,-1.662855 1.67048,-1.662855 1.67049,-1.662855"
         style="fill:none;stroke:#000000;stroke-width:2;stroke-linecap:round;stroke-opacity:1"
         id="path1945" />
    </g>
  </g>
</svg>
