<?xml version="1.0" encoding="UTF-8" standalone="no"?>
<svg
   width="1920"
   height="1080"
   viewBox="0 0 1920 1080"
   version="1.1"
   id="svg8"
   inkscape:version="1.2.2 (b0a8486541, 2022-12-01)"
   sodipodi:docname="plen-metamer-cones.svg"
   xml:space="preserve"
   xmlns:inkscape="http://www.inkscape.org/namespaces/inkscape"
   xmlns:sodipodi="http://sodipodi.sourceforge.net/DTD/sodipodi-0.dtd"
   xmlns="http://www.w3.org/2000/svg"
   xmlns:svg="http://www.w3.org/2000/svg"
   xmlns:rdf="http://www.w3.org/1999/02/22-rdf-syntax-ns#"
   xmlns:cc="http://creativecommons.org/ns#"
   xmlns:dc="http://purl.org/dc/elements/1.1/"><defs
     id="defs2"><clipPath
       clipPathUnits="userSpaceOnUse"
       id="clipPath289203"><path
         d="M 16,511 H 744 V 164 H 16 Z"
         id="path289201"
         inkscape:connector-curvature="0" /></clipPath><clipPath
       clipPathUnits="userSpaceOnUse"
       id="clipPath289209"><path
         d="M 0,9 H 792 V 603 H 0 Z"
         id="path289207"
         inkscape:connector-curvature="0" /></clipPath><linearGradient
       id="spectrum"
       gradientTransform="scale(1.2649111,0.79056942)"
       x1="0"
       y1="0"
       x2="379.47332"
       y2="0"
       gradientUnits="userSpaceOnUse"><stop
         offset="0%"
         stop-color="#000001"
         id="stop5212" /><stop
         offset="3%"
         stop-color="#010002"
         id="stop5214" /><stop
         offset="6%"
         stop-color="#020007"
         id="stop5216" /><stop
         offset="9%"
         stop-color="#060013"
         id="stop5218" /><stop
         offset="16%"
         stop-color="#170039"
         id="stop5220" /><stop
         offset="19%"
         stop-color="#1D004E"
         id="stop5222" /><stop
         offset="20%"
         stop-color="#1D005B"
         id="stop5224" /><stop
         offset="22%"
         stop-color="#18006B"
         id="stop5226" /><stop
         offset="23%"
         stop-color="#000879"
         id="stop5228" /><stop
         offset="25%"
         stop-color="#002061"
         id="stop5230" /><stop
         offset="28%"
         stop-color="#00334D"
         id="stop5232" /><stop
         offset="31%"
         stop-color="#004245"
         id="stop5234" /><stop
         offset="34%"
         stop-color="#005446"
         id="stop5236" /><stop
         offset="41%"
         stop-color="#007C4F"
         id="stop5238" /><stop
         offset="44%"
         stop-color="#00884D"
         id="stop5240" /><stop
         offset="45%"
         stop-color="#008C48"
         id="stop5242" /><stop
         offset="48%"
         stop-color="#00912F"
         id="stop5244" /><stop
         offset="50%"
         stop-color="#159300"
         id="stop5246" /><stop
         offset="52%"
         stop-color="#409000"
         id="stop5248" /><stop
         offset="56%"
         stop-color="#7E8000"
         id="stop5250" /><stop
         offset="61%"
         stop-color="#A56400"
         id="stop5252" /><stop
         offset="64%"
         stop-color="#B44A00"
         id="stop5254" /><stop
         offset="67%"
         stop-color="#BA2700"
         id="stop5256" /><stop
         offset="69%"
         stop-color="#B90C00"
         id="stop5258" /><stop
         offset="70%"
         stop-color="#B00016"
         id="stop5260" /><stop
         offset="72%"
         stop-color="#A4001F"
         id="stop5262" /><stop
         offset="75%"
         stop-color="#8B0021"
         id="stop5264" /><stop
         offset="78%"
         stop-color="#72001D"
         id="stop5266" /><stop
         offset="88%"
         stop-color="#310009"
         id="stop5268" /><stop
         offset="91%"
         stop-color="#220005"
         id="stop5270" /><stop
         offset="97%"
         stop-color="#0D0001"
         id="stop5272" /><stop
         offset="100%"
         stop-color="#070001"
         id="stop5274" /></linearGradient></defs><sodipodi:namedview
     id="base"
     pagecolor="#ffffff"
     bordercolor="#666666"
     borderopacity="1.0"
     inkscape:pageopacity="0.0"
     inkscape:pageshadow="2"
     inkscape:zoom="0.58459042"
     inkscape:cx="946.81675"
     inkscape:cy="692.79274"
     inkscape:document-units="px"
     inkscape:current-layer="layer1"
     showgrid="false"
     units="px"
     inkscape:window-width="3812"
     inkscape:window-height="2080"
     inkscape:window-x="2892"
     inkscape:window-y="64"
     inkscape:window-maximized="1"
     inkscape:document-rotation="0"
     inkscape:showpageshadow="2"
     inkscape:pagecheckerboard="0"
     inkscape:deskcolor="#d1d1d1" /><metadata
     id="metadata5"><rdf:RDF><cc:Work
         rdf:about=""><dc:format>image/svg+xml</dc:format><dc:type
           rdf:resource="http://purl.org/dc/dcmitype/StillImage" /></cc:Work></rdf:RDF></metadata><g
     inkscape:label="Layer 1"
     inkscape:groupmode="layer"
     id="layer1"
     transform="translate(0,-11.249983)"><g
       style="fill:none"
       id="g5783"
       transform="matrix(2.1711338,0,0,2.1711338,373.79387,138.73456)"><rect
         width="540"
         height="380"
         fill="#ffffff"
         id="rect5713"
         x="0"
         y="0" /><g
         stroke="#ffffff"
         stroke-width="3"
         stroke-linecap="square"
         transform="translate(40,20)"
         id="g5725"><rect
           x="0"
           y="0"
           width="480"
           height="300"
           stroke="none"
           fill="url(#spectrum)"
           id="rect5715"
           style="fill:url(#spectrum)" /><path
           d="m 0,300 c 24,-1 46,-5 69,-10 11,-3 22,-3 32,-7 8,-3 16,-9 23,-15 10,-7 21,-16 28,-26 14,-21 21,-47 28,-71 3,-11 6,-22 9,-33 7,-25 15,-50 27,-74 5,-10 9,-22 17,-31 2,-2 5,-3 7,-6 3,-2 5,-5 8,-7 2,-2 4,-3 7,-4 5,-3 10,-6 15,-6 7,0 10,5 15,9 3,2 7,3 9,5 8,7 13,17 17,26 9,18 16,37 23,56 7,20 14,40 20,60 8,24 16,47 27,69 10,19 21,40 41,52 18,10 38,11 58,12"
           id="path5717" /><path
           d="m 0,300 c 20,-1 39,-4 58,-11 7,-2 13,-6 19,-9 9,-3 19,-6 26,-12 7,-6 13,-14 19,-21 10,-11 21,-22 28,-35 12,-21 18,-46 24,-69 5,-17 9,-34 14,-52 4,-17 8,-35 16,-52 4,-8 9,-15 15,-22 3,-3 6,-6 10,-7 5,0 8,4 11,7 3,2 5,3 8,5 3,5 6,10 9,15 13,21 19,44 26,67 5,16 10,32 15,47 7,21 13,42 21,62 5,16 12,31 20,45 8,12 18,23 30,30 13,7 29,9 44,11 22,1 45,1 67,1"
           id="path5719" /><path
           d="m 0,297 c 3,-1 5,-2 8,-4 6,-6 10,-14 13,-23 4,-12 6,-25 9,-38 6,-29 10,-60 15,-90 4,-22 9,-44 13,-66 3,-15 7,-30 11,-45 1,-4 3,-10 4,-14 1,-2 2,-5 4,-6 2,-2 4,0 6,1 3,3 5,7 7,11 3,7 4,14 6,21 2,9 5,19 9,28 2,5 6,9 8,14 6,17 9,36 13,55 4,23 8,46 15,68 3,12 6,23 11,34 4,9 10,18 17,26 4,6 8,11 13,15 22,17 50,15 77,16 25,1 50,0 75,0 49,0 97,0 146,0"
           id="path5721" /><line
           x1="0"
           y1="300"
           x2="480"
           y2="300"
           stroke="#ffffff"
           id="line5723" /></g><g
         font-family="'Nimbus Roman No9 L', Times, serif"
         font-size="20px"
         text-anchor="middle"
         stroke="none"
         fill="#000000"
         id="g5753"><text
           x="55.5"
           y="350"
           id="text5727">400</text><text
           x="130.5"
           y="350"
           id="text5729">450</text><text
           x="205.5"
           y="350"
           id="text5731">500</text><text
           x="280.5"
           y="350"
           id="text5733">550</text><text
           x="355.5"
           y="350"
           id="text5735">600</text><text
           x="430.5"
           y="350"
           id="text5737">650</text><text
           x="505.5"
           y="350"
           id="text5739">700</text><text
           x="280"
           y="370"
           id="text5741">Wavelength (nm)</text><text
           transform="rotate(-90,95,75)"
           id="text5743">Normalized cone response (linear energy)</text><g
           fill="#ffffff"
           id="g5751"><text
             x="145"
             y="50"
             id="text5745">S</text><text
             x="230"
             y="50"
             id="text5747">M</text><text
             x="355"
             y="50"
             id="text5749">L</text></g></g><path
         stroke="#000000"
         stroke-width="1"
         d="m 30.5,10.5 h 499 v 319 h -499 v -319 m 10,0 v 3 m 0,313 v 3 m 15,-319 v 6 m 0,307 v 6 m 15,-319 v 3 m 0,313 v 3 m 15,-319 v 3 m 0,313 v 3 m 15,-319 v 3 m 0,313 v 3 m 15,-319 v 3 m 0,313 v 3 m 15,-319 v 6 m 0,307 v 6 m 15,-319 v 3 m 0,313 v 3 m 15,-319 v 3 m 0,313 v 3 m 15,-319 v 3 m 0,313 v 3 m 15,-319 v 3 m 0,313 v 3 m 15,-319 v 6 m 0,307 v 6 m 15,-319 v 3 m 0,313 v 3 m 15,-319 v 3 m 0,313 v 3 m 15,-319 v 3 m 0,313 v 3 m 15,-319 v 3 m 0,313 v 3 m 15,-319 v 6 m 0,307 v 6 m 15,-319 v 3 m 0,313 v 3 m 15,-319 v 3 m 0,313 v 3 m 15,-319 v 3 m 0,313 v 3 m 15,-319 v 3 m 0,313 v 3 m 15,-319 v 6 m 0,307 v 6 m 15,-319 v 3 m 0,313 v 3 m 15,-319 v 3 m 0,313 v 3 m 15,-319 v 3 m 0,313 v 3 m 15,-319 v 3 m 0,313 v 3 m 15,-319 v 6 m 0,307 v 6 m 15,-319 v 3 m 0,313 v 3 m 15,-319 v 3 m 0,313 v 3 m 15,-319 v 3 m 0,313 v 3 m 15,-319 v 3 m 0,313 v 3 m 15,-319 v 6 m 0,307 v 6 m 15,-319 v 3 m 0,313 v 3"
         id="path5755" /></g></g></svg>
