<?xml version="1.0" encoding="UTF-8" standalone="no"?>
<!-- Created with matplotlib (http://matplotlib.org/) -->

<svg
   xmlns:dc="http://purl.org/dc/elements/1.1/"
   xmlns:cc="http://creativecommons.org/ns#"
   xmlns:rdf="http://www.w3.org/1999/02/22-rdf-syntax-ns#"
   xmlns:svg="http://www.w3.org/2000/svg"
   xmlns="http://www.w3.org/2000/svg"
   xmlns:xlink="http://www.w3.org/1999/xlink"
   xmlns:sodipodi="http://sodipodi.sourceforge.net/DTD/sodipodi-0.dtd"
   xmlns:inkscape="http://www.inkscape.org/namespaces/inkscape"
   height="396pt"
   version="1.1"
   viewBox="0 0 524 396"
   width="524pt"
   id="svg2"
   inkscape:version="0.91 r13725"
   sodipodi:docname="results-hypotheses.svg">
  <metadata
     id="metadata468">
    <rdf:RDF>
      <cc:Work
         rdf:about="">
        <dc:format>image/svg+xml</dc:format>
        <dc:type
           rdf:resource="http://purl.org/dc/dcmitype/StillImage" />
      </cc:Work>
    </rdf:RDF>
  </metadata>
  <sodipodi:namedview
     pagecolor="#ffffff"
     bordercolor="#666666"
     borderopacity="1"
     objecttolerance="10"
     gridtolerance="10"
     guidetolerance="10"
     inkscape:pageopacity="0"
     inkscape:pageshadow="2"
     inkscape:window-width="1859"
     inkscape:window-height="1056"
     id="namedview466"
     showgrid="false"
     inkscape:zoom="1.9053435"
     inkscape:cx="221.48237"
     inkscape:cy="247.5"
     inkscape:window-x="61"
     inkscape:window-y="24"
     inkscape:window-maximized="1"
     inkscape:current-layer="axes_1" />
  <defs
     id="defs4">
    <style
       type="text/css"
       id="style6">
*{stroke-linecap:butt;stroke-linejoin:round;stroke-miterlimit:100000;}
  </style>
  </defs>
  <g
     id="figure_1">
    <g
       id="patch_1">
      <path
         d="M 0 396.549  L 524.654 396.549  L 524.654 0  L 0 0  z "
         style="fill:#ffffff;"
         id="path10" />
    </g>
    <g
       id="axes_1">
      <g
         id="patch_2">
        <path
           d="M 62.1565 342  L 508.5565 342  L 508.5565 7.2  L 62.1565 7.2  z "
           style="fill:#ffffff;"
           id="path14" />
      </g>
      <g
         id="matplotlib.axis_1">
        <g
           id="xtick_1">
          <g
             id="line2d_1" />
          <g
             id="line2d_2" />
          <g
             id="text_1">
            <!-- −2 -->
            <defs
               id="defs21">
              <path
                 d="M 52.828125 31.203125  L 5.5625 31.203125  L 5.5625 39.40625  L 52.828125 39.40625  z "
                 id="ArialMT-2212" />
              <path
                 d="M 50.34375 8.453125  L 50.34375 0  L 3.03125 0  Q 2.9375 3.171875 4.046875 6.109375  Q 5.859375 10.9375 9.828125 15.625  Q 13.8125 20.3125 21.34375 26.46875  Q 33.015625 36.03125 37.109375 41.625  Q 41.21875 47.21875 41.21875 52.203125  Q 41.21875 57.421875 37.46875 61  Q 33.734375 64.59375 27.734375 64.59375  Q 21.390625 64.59375 17.578125 60.78125  Q 13.765625 56.984375 13.71875 50.25  L 4.6875 51.171875  Q 5.609375 61.28125 11.65625 66.578125  Q 17.71875 71.875 27.9375 71.875  Q 38.234375 71.875 44.234375 66.15625  Q 50.25 60.453125 50.25 52  Q 50.25 47.703125 48.484375 43.546875  Q 46.734375 39.40625 42.65625 34.8125  Q 38.578125 30.21875 29.109375 22.21875  Q 21.1875 15.578125 18.9375 13.203125  Q 16.703125 10.84375 15.234375 8.453125  z "
                 id="ArialMT-32" />
            </defs>
            <g
               style="fill:#262626;"
               transform="translate(53.03525 364.6525)scale(0.16 -0.16)"
               id="g25">
              <use
                 xlink:href="#ArialMT-2212"
                 id="use27" />
              <use
                 x="58.3984375"
                 xlink:href="#ArialMT-32"
                 id="use29" />
            </g>
          </g>
        </g>
        <g
           id="xtick_2">
          <g
             id="line2d_3" />
          <g
             id="line2d_4" />
          <g
             id="text_2">
            <!-- 0 -->
            <defs
               id="defs35">
              <path
                 d="M 4.15625 35.296875  Q 4.15625 48 6.765625 55.734375  Q 9.375 63.484375 14.515625 67.671875  Q 19.671875 71.875 27.484375 71.875  Q 33.25 71.875 37.59375 69.546875  Q 41.9375 67.234375 44.765625 62.859375  Q 47.609375 58.5 49.21875 52.21875  Q 50.828125 45.953125 50.828125 35.296875  Q 50.828125 22.703125 48.234375 14.96875  Q 45.65625 7.234375 40.5 3  Q 35.359375 -1.21875 27.484375 -1.21875  Q 17.140625 -1.21875 11.234375 6.203125  Q 4.15625 15.140625 4.15625 35.296875  M 13.1875 35.296875  Q 13.1875 17.671875 17.3125 11.828125  Q 21.4375 6 27.484375 6  Q 33.546875 6 37.671875 11.859375  Q 41.796875 17.71875 41.796875 35.296875  Q 41.796875 52.984375 37.671875 58.78125  Q 33.546875 64.59375 27.390625 64.59375  Q 21.34375 64.59375 17.71875 59.46875  Q 13.1875 52.9375 13.1875 35.296875  "
                 id="ArialMT-30" />
            </defs>
            <g
               style="fill:#262626;"
               transform="translate(132.10775 364.6525)scale(0.16 -0.16)"
               id="g38">
              <use
                 xlink:href="#ArialMT-30"
                 id="use40" />
            </g>
          </g>
        </g>
        <g
           id="xtick_3">
          <g
             id="line2d_5" />
          <g
             id="line2d_6" />
          <g
             id="text_3">
            <!-- 2 -->
            <g
               style="fill:#262626;"
               transform="translate(206.50775 364.6525)scale(0.16 -0.16)"
               id="g46">
              <use
                 xlink:href="#ArialMT-32"
                 id="use48" />
            </g>
          </g>
        </g>
        <g
           id="xtick_4">
          <g
             id="line2d_7" />
          <g
             id="line2d_8" />
          <g
             id="text_4">
            <!-- 4 -->
            <defs
               id="defs54">
              <path
                 d="M 32.328125 0  L 32.328125 17.140625  L 1.265625 17.140625  L 1.265625 25.203125  L 33.9375 71.578125  L 41.109375 71.578125  L 41.109375 25.203125  L 50.78125 25.203125  L 50.78125 17.140625  L 41.109375 17.140625  L 41.109375 0  z M 32.328125 25.203125  L 32.328125 57.46875  L 9.90625 25.203125  z "
                 id="ArialMT-34" />
            </defs>
            <g
               style="fill:#262626;"
               transform="translate(280.90775 364.6525)scale(0.16 -0.16)"
               id="g57">
              <use
                 xlink:href="#ArialMT-34"
                 id="use59" />
            </g>
          </g>
        </g>
        <g
           id="xtick_5">
          <g
             id="line2d_9" />
          <g
             id="line2d_10" />
          <g
             id="text_5">
            <!-- 6 -->
            <defs
               id="defs65">
              <path
                 d="M 49.75 54.046875  L 41.015625 53.375  Q 39.84375 58.546875 37.703125 60.890625  Q 34.125 64.65625 28.90625 64.65625  Q 24.703125 64.65625 21.53125 62.3125  Q 17.390625 59.28125 14.984375 53.46875  Q 12.59375 47.65625 12.5 36.921875  Q 15.671875 41.75 20.265625 44.09375  Q 24.859375 46.4375 29.890625 46.4375  Q 38.671875 46.4375 44.84375 39.96875  Q 51.03125 33.5 51.03125 23.25  Q 51.03125 16.5 48.125 10.71875  Q 45.21875 4.9375 40.140625 1.859375  Q 35.0625 -1.21875 28.609375 -1.21875  Q 17.625 -1.21875 10.6875 6.859375  Q 3.765625 14.9375 3.765625 33.5  Q 3.765625 54.25 11.421875 63.671875  Q 18.109375 71.875 29.4375 71.875  Q 37.890625 71.875 43.28125 67.140625  Q 48.6875 62.40625 49.75 54.046875  M 13.875 23.1875  Q 13.875 18.65625 15.796875 14.5  Q 17.71875 10.359375 21.1875 8.171875  Q 24.65625 6 28.46875 6  Q 34.03125 6 38.03125 10.484375  Q 42.046875 14.984375 42.046875 22.703125  Q 42.046875 30.125 38.078125 34.390625  Q 34.125 38.671875 28.125 38.671875  Q 22.171875 38.671875 18.015625 34.390625  Q 13.875 30.125 13.875 23.1875  "
                 id="ArialMT-36" />
            </defs>
            <g
               style="fill:#262626;"
               transform="translate(355.30775 364.6525)scale(0.16 -0.16)"
               id="g68">
              <use
                 xlink:href="#ArialMT-36"
                 id="use70" />
            </g>
          </g>
        </g>
        <g
           id="xtick_6">
          <g
             id="line2d_11" />
          <g
             id="line2d_12" />
          <g
             id="text_6">
            <!-- 8 -->
            <defs
               id="defs76">
              <path
                 d="M 17.671875 38.8125  Q 12.203125 40.828125 9.5625 44.53125  Q 6.9375 48.25 6.9375 53.421875  Q 6.9375 61.234375 12.546875 66.546875  Q 18.171875 71.875 27.484375 71.875  Q 36.859375 71.875 42.578125 66.421875  Q 48.296875 60.984375 48.296875 53.171875  Q 48.296875 48.1875 45.671875 44.5  Q 43.0625 40.828125 37.75 38.8125  Q 44.34375 36.671875 47.78125 31.875  Q 51.21875 27.09375 51.21875 20.453125  Q 51.21875 11.28125 44.71875 5.03125  Q 38.234375 -1.21875 27.640625 -1.21875  Q 17.046875 -1.21875 10.546875 5.046875  Q 4.046875 11.328125 4.046875 20.703125  Q 4.046875 27.6875 7.59375 32.390625  Q 11.140625 37.109375 17.671875 38.8125  M 15.921875 53.71875  Q 15.921875 48.640625 19.1875 45.40625  Q 22.46875 42.1875 27.6875 42.1875  Q 32.765625 42.1875 36.015625 45.375  Q 39.265625 48.578125 39.265625 53.21875  Q 39.265625 58.0625 35.90625 61.359375  Q 32.5625 64.65625 27.59375 64.65625  Q 22.5625 64.65625 19.234375 61.421875  Q 15.921875 58.203125 15.921875 53.71875  M 13.09375 20.65625  Q 13.09375 16.890625 14.875 13.375  Q 16.65625 9.859375 20.171875 7.921875  Q 23.6875 6 27.734375 6  Q 34.03125 6 38.125 10.046875  Q 42.234375 14.109375 42.234375 20.359375  Q 42.234375 26.703125 38.015625 30.859375  Q 33.796875 35.015625 27.4375 35.015625  Q 21.234375 35.015625 17.15625 30.90625  Q 13.09375 26.8125 13.09375 20.65625  "
                 id="ArialMT-38" />
            </defs>
            <g
               style="fill:#262626;"
               transform="translate(429.70775 364.6525)scale(0.16 -0.16)"
               id="g79">
              <use
                 xlink:href="#ArialMT-38"
                 id="use81" />
            </g>
          </g>
        </g>
        <g
           id="xtick_7">
          <g
             id="line2d_13" />
          <g
             id="line2d_14" />
          <g
             id="text_7">
            <!-- 10 -->
            <defs
               id="defs87">
              <path
                 d="M 37.25 0  L 28.46875 0  L 28.46875 56  Q 25.296875 52.984375 20.140625 49.953125  Q 14.984375 46.921875 10.890625 45.40625  L 10.890625 53.90625  Q 18.265625 57.375 23.78125 62.296875  Q 29.296875 67.234375 31.59375 71.875  L 37.25 71.875  z "
                 id="ArialMT-31" />
            </defs>
            <g
               style="fill:#262626;"
               transform="translate(499.659 364.6525)scale(0.16 -0.16)"
               id="g90">
              <use
                 xlink:href="#ArialMT-31"
                 id="use92" />
              <use
                 x="55.615234375"
                 xlink:href="#ArialMT-30"
                 id="use94" />
            </g>
          </g>
        </g>
        <g
           id="text_8">
          <!-- Receptive field center (degrees) -->
          <defs
             id="defs97">
            <path
               d="M 40.4375 19  L 49.078125 17.875  Q 47.65625 8.9375 41.8125 3.875  Q 35.984375 -1.171875 27.484375 -1.171875  Q 16.84375 -1.171875 10.375 5.78125  Q 3.90625 12.75 3.90625 25.734375  Q 3.90625 34.125 6.6875 40.421875  Q 9.46875 46.734375 15.15625 49.875  Q 20.84375 53.03125 27.546875 53.03125  Q 35.984375 53.03125 41.359375 48.75  Q 46.734375 44.484375 48.25 36.625  L 39.703125 35.296875  Q 38.484375 40.53125 35.375 43.15625  Q 32.28125 45.796875 27.875 45.796875  Q 21.234375 45.796875 17.078125 41.03125  Q 12.9375 36.28125 12.9375 25.984375  Q 12.9375 15.53125 16.9375 10.796875  Q 20.953125 6.0625 27.390625 6.0625  Q 32.5625 6.0625 36.03125 9.234375  Q 39.5 12.40625 40.4375 19  "
               id="ArialMT-63" />
            <path
               d="M 12.359375 -21.046875  L 6.0625 -21.046875  Q 20.65625 2.390625 20.65625 25.875  Q 20.65625 35.0625 18.5625 44.09375  Q 16.890625 51.421875 13.921875 58.15625  Q 12.015625 62.546875 6.0625 72.796875  L 12.359375 72.796875  Q 21.53125 60.546875 25.921875 48.1875  Q 29.6875 37.546875 29.6875 25.921875  Q 29.6875 12.75 24.625 0.4375  Q 19.578125 -11.859375 12.359375 -21.046875  "
               id="ArialMT-29" />
            <path
               d="M 4.984375 -4.296875  L 13.53125 -5.5625  Q 14.0625 -9.515625 16.5 -11.328125  Q 19.78125 -13.765625 25.4375 -13.765625  Q 31.546875 -13.765625 34.859375 -11.328125  Q 38.1875 -8.890625 39.359375 -4.5  Q 40.046875 -1.8125 39.984375 6.78125  Q 34.234375 0 25.640625 0  Q 14.9375 0 9.078125 7.71875  Q 3.21875 15.4375 3.21875 26.21875  Q 3.21875 33.640625 5.90625 39.90625  Q 8.59375 46.1875 13.6875 49.609375  Q 18.796875 53.03125 25.6875 53.03125  Q 34.859375 53.03125 40.828125 45.609375  L 40.828125 51.859375  L 48.921875 51.859375  L 48.921875 7.03125  Q 48.921875 -5.078125 46.453125 -10.125  Q 44 -15.1875 38.640625 -18.109375  Q 33.296875 -21.046875 25.484375 -21.046875  Q 16.21875 -21.046875 10.5 -16.875  Q 4.78125 -12.703125 4.984375 -4.296875  M 12.25 26.859375  Q 12.25 16.65625 16.296875 11.96875  Q 20.359375 7.28125 26.46875 7.28125  Q 32.515625 7.28125 36.609375 11.9375  Q 40.71875 16.609375 40.71875 26.5625  Q 40.71875 36.078125 36.5 40.90625  Q 32.28125 45.75 26.3125 45.75  Q 20.453125 45.75 16.34375 40.984375  Q 12.25 36.234375 12.25 26.859375  "
               id="ArialMT-67" />
            <path
               d="M 8.6875 0  L 8.6875 45.015625  L 0.921875 45.015625  L 0.921875 51.859375  L 8.6875 51.859375  L 8.6875 57.375  Q 8.6875 62.59375 9.625 65.140625  Q 10.890625 68.5625 14.078125 70.671875  Q 17.28125 72.796875 23.046875 72.796875  Q 26.765625 72.796875 31.25 71.921875  L 29.9375 64.265625  Q 27.203125 64.75 24.75 64.75  Q 20.75 64.75 19.09375 63.03125  Q 17.4375 61.328125 17.4375 56.640625  L 17.4375 51.859375  L 27.546875 51.859375  L 27.546875 45.015625  L 17.4375 45.015625  L 17.4375 0  z "
               id="ArialMT-66" />
            <path
               d="M 42.09375 16.703125  L 51.171875 15.578125  Q 49.03125 7.625 43.21875 3.21875  Q 37.40625 -1.171875 28.375 -1.171875  Q 17 -1.171875 10.328125 5.828125  Q 3.65625 12.84375 3.65625 25.484375  Q 3.65625 38.578125 10.390625 45.796875  Q 17.140625 53.03125 27.875 53.03125  Q 38.28125 53.03125 44.875 45.953125  Q 51.46875 38.875 51.46875 26.03125  Q 51.46875 25.25 51.421875 23.6875  L 12.75 23.6875  Q 13.234375 15.140625 17.578125 10.59375  Q 21.921875 6.0625 28.421875 6.0625  Q 33.25 6.0625 36.671875 8.59375  Q 40.09375 11.140625 42.09375 16.703125  M 13.234375 30.90625  L 42.1875 30.90625  Q 41.609375 37.453125 38.875 40.71875  Q 34.671875 45.796875 27.984375 45.796875  Q 21.921875 45.796875 17.796875 41.75  Q 13.671875 37.703125 13.234375 30.90625  "
               id="ArialMT-65" />
            <path
               d="M 40.234375 0  L 40.234375 6.546875  Q 35.296875 -1.171875 25.734375 -1.171875  Q 19.53125 -1.171875 14.328125 2.25  Q 9.125 5.671875 6.265625 11.796875  Q 3.421875 17.921875 3.421875 25.875  Q 3.421875 33.640625 6 39.96875  Q 8.59375 46.296875 13.765625 49.65625  Q 18.953125 53.03125 25.34375 53.03125  Q 30.03125 53.03125 33.6875 51.046875  Q 37.359375 49.078125 39.65625 45.90625  L 39.65625 71.578125  L 48.390625 71.578125  L 48.390625 0  z M 12.453125 25.875  Q 12.453125 15.921875 16.640625 10.984375  Q 20.84375 6.0625 26.5625 6.0625  Q 32.328125 6.0625 36.34375 10.765625  Q 40.375 15.484375 40.375 25.140625  Q 40.375 35.796875 36.265625 40.765625  Q 32.171875 45.75 26.171875 45.75  Q 20.3125 45.75 16.375 40.96875  Q 12.453125 36.1875 12.453125 25.875  "
               id="ArialMT-64" />
            <path
               d="M 7.859375 0  L 7.859375 71.578125  L 39.59375 71.578125  Q 49.171875 71.578125 54.140625 69.640625  Q 59.125 67.71875 62.109375 62.828125  Q 65.09375 57.953125 65.09375 52.046875  Q 65.09375 44.4375 60.15625 39.203125  Q 55.21875 33.984375 44.921875 32.5625  Q 48.6875 30.765625 50.640625 29  Q 54.78125 25.203125 58.5 19.484375  L 70.953125 0  L 59.03125 0  L 49.5625 14.890625  Q 45.40625 21.34375 42.71875 24.75  Q 40.046875 28.171875 37.921875 29.53125  Q 35.796875 30.90625 33.59375 31.453125  Q 31.984375 31.78125 28.328125 31.78125  L 17.328125 31.78125  L 17.328125 0  z M 17.328125 39.984375  L 37.703125 39.984375  Q 44.1875 39.984375 47.84375 41.328125  Q 51.515625 42.671875 53.421875 45.625  Q 55.328125 48.578125 55.328125 52.046875  Q 55.328125 57.125 51.640625 60.390625  Q 47.953125 63.671875 39.984375 63.671875  L 17.328125 63.671875  z "
               id="ArialMT-52" />
            <path
               d="M 6.640625 61.46875  L 6.640625 71.578125  L 15.4375 71.578125  L 15.4375 61.46875  z M 6.640625 0  L 6.640625 51.859375  L 15.4375 51.859375  L 15.4375 0  z "
               id="ArialMT-69" />
            <path
               d="M 6.59375 -19.875  L 6.59375 51.859375  L 14.59375 51.859375  L 14.59375 45.125  Q 17.4375 49.078125 21 51.046875  Q 24.5625 53.03125 29.640625 53.03125  Q 36.28125 53.03125 41.359375 49.609375  Q 46.4375 46.1875 49.015625 39.953125  Q 51.609375 33.734375 51.609375 26.3125  Q 51.609375 18.359375 48.75 11.984375  Q 45.90625 5.609375 40.453125 2.21875  Q 35.015625 -1.171875 29 -1.171875  Q 24.609375 -1.171875 21.109375 0.6875  Q 17.625 2.546875 15.375 5.375  L 15.375 -19.875  z M 14.546875 25.640625  Q 14.546875 15.625 18.59375 10.84375  Q 22.65625 6.0625 28.421875 6.0625  Q 34.28125 6.0625 38.453125 11.015625  Q 42.625 15.96875 42.625 26.375  Q 42.625 36.28125 38.546875 41.203125  Q 34.46875 46.140625 28.8125 46.140625  Q 23.1875 46.140625 18.859375 40.890625  Q 14.546875 35.640625 14.546875 25.640625  "
               id="ArialMT-70" />
            <path
               d="M 6.5 0  L 6.5 51.859375  L 14.40625 51.859375  L 14.40625 44  Q 17.4375 49.515625 20 51.265625  Q 22.5625 53.03125 25.640625 53.03125  Q 30.078125 53.03125 34.671875 50.203125  L 31.640625 42.046875  Q 28.421875 43.953125 25.203125 43.953125  Q 22.3125 43.953125 20.015625 42.21875  Q 17.71875 40.484375 16.75 37.40625  Q 15.28125 32.71875 15.28125 27.15625  L 15.28125 0  z "
               id="ArialMT-72" />
            <path
               d="M 3.078125 15.484375  L 11.765625 16.84375  Q 12.5 11.625 15.84375 8.84375  Q 19.1875 6.0625 25.203125 6.0625  Q 31.25 6.0625 34.171875 8.515625  Q 37.109375 10.984375 37.109375 14.3125  Q 37.109375 17.28125 34.515625 19  Q 32.71875 20.171875 25.53125 21.96875  Q 15.875 24.421875 12.140625 26.203125  Q 8.40625 27.984375 6.46875 31.125  Q 4.546875 34.28125 4.546875 38.09375  Q 4.546875 41.546875 6.125 44.5  Q 7.71875 47.46875 10.453125 49.421875  Q 12.5 50.921875 16.03125 51.96875  Q 19.578125 53.03125 23.640625 53.03125  Q 29.734375 53.03125 34.34375 51.265625  Q 38.96875 49.515625 41.15625 46.5  Q 43.359375 43.5 44.1875 38.484375  L 35.59375 37.3125  Q 35.015625 41.3125 32.203125 43.546875  Q 29.390625 45.796875 24.265625 45.796875  Q 18.21875 45.796875 15.625 43.796875  Q 13.03125 41.796875 13.03125 39.109375  Q 13.03125 37.40625 14.109375 36.03125  Q 15.1875 34.625 17.484375 33.6875  Q 18.796875 33.203125 25.25 31.453125  Q 34.578125 28.953125 38.25 27.359375  Q 41.9375 25.78125 44.03125 22.75  Q 46.140625 19.734375 46.140625 15.234375  Q 46.140625 10.84375 43.578125 6.953125  Q 41.015625 3.078125 36.171875 0.953125  Q 31.34375 -1.171875 25.25 -1.171875  Q 15.140625 -1.171875 9.84375 3.03125  Q 4.546875 7.234375 3.078125 15.484375  "
               id="ArialMT-73" />
            <path
               d="M 6.390625 0  L 6.390625 71.578125  L 15.1875 71.578125  L 15.1875 0  z "
               id="ArialMT-6c" />
            <path
               d="M 25.78125 7.859375  L 27.046875 0.09375  Q 23.34375 -0.6875 20.40625 -0.6875  Q 15.625 -0.6875 12.984375 0.828125  Q 10.359375 2.34375 9.28125 4.8125  Q 8.203125 7.28125 8.203125 15.1875  L 8.203125 45.015625  L 1.765625 45.015625  L 1.765625 51.859375  L 8.203125 51.859375  L 8.203125 64.703125  L 16.9375 69.96875  L 16.9375 51.859375  L 25.78125 51.859375  L 25.78125 45.015625  L 16.9375 45.015625  L 16.9375 14.703125  Q 16.9375 10.9375 17.40625 9.859375  Q 17.875 8.796875 18.921875 8.15625  Q 19.96875 7.515625 21.921875 7.515625  Q 23.390625 7.515625 25.78125 7.859375  "
               id="ArialMT-74" />
            <path
               d="M 6.59375 0  L 6.59375 51.859375  L 14.5 51.859375  L 14.5 44.484375  Q 20.21875 53.03125 31 53.03125  Q 35.6875 53.03125 39.625 51.34375  Q 43.5625 49.65625 45.515625 46.921875  Q 47.46875 44.1875 48.25 40.4375  Q 48.734375 37.984375 48.734375 31.890625  L 48.734375 0  L 39.9375 0  L 39.9375 31.546875  Q 39.9375 36.921875 38.90625 39.578125  Q 37.890625 42.234375 35.28125 43.8125  Q 32.671875 45.40625 29.15625 45.40625  Q 23.53125 45.40625 19.453125 41.84375  Q 15.375 38.28125 15.375 28.328125  L 15.375 0  z "
               id="ArialMT-6e" />
            <path
               d="M 23.390625 -21.046875  Q 16.109375 -11.859375 11.078125 0.4375  Q 6.0625 12.75 6.0625 25.921875  Q 6.0625 37.546875 9.8125 48.1875  Q 14.203125 60.546875 23.390625 72.796875  L 29.6875 72.796875  Q 23.78125 62.640625 21.875 58.296875  Q 18.890625 51.5625 17.1875 44.234375  Q 15.09375 35.109375 15.09375 25.875  Q 15.09375 2.390625 29.6875 -21.046875  z "
               id="ArialMT-28" />
            <path
               d="M 21 0  L 1.265625 51.859375  L 10.546875 51.859375  L 21.6875 20.796875  Q 23.484375 15.765625 25 10.359375  Q 26.171875 14.453125 28.265625 20.21875  L 39.796875 51.859375  L 48.828125 51.859375  L 29.203125 0  z "
               id="ArialMT-76" />
            <path
               id="ArialMT-20" />
          </defs>
          <g
             style="fill:#262626;"
             transform="translate(160.63575 385.64475)scale(0.176 -0.176)"
             id="g116">
            <use
               xlink:href="#ArialMT-52"
               id="use118" />
            <use
               x="72.216796875"
               xlink:href="#ArialMT-65"
               id="use120" />
            <use
               x="127.83203125"
               xlink:href="#ArialMT-63"
               id="use122" />
            <use
               x="177.83203125"
               xlink:href="#ArialMT-65"
               id="use124" />
            <use
               x="233.447265625"
               xlink:href="#ArialMT-70"
               id="use126" />
            <use
               x="289.0625"
               xlink:href="#ArialMT-74"
               id="use128" />
            <use
               x="316.845703125"
               xlink:href="#ArialMT-69"
               id="use130" />
            <use
               x="339.0625"
               xlink:href="#ArialMT-76"
               id="use132" />
            <use
               x="389.0625"
               xlink:href="#ArialMT-65"
               id="use134" />
            <use
               x="444.677734375"
               xlink:href="#ArialMT-20"
               id="use136" />
            <use
               x="472.4609375"
               xlink:href="#ArialMT-66"
               id="use138" />
            <use
               x="500.244140625"
               xlink:href="#ArialMT-69"
               id="use140" />
            <use
               x="522.4609375"
               xlink:href="#ArialMT-65"
               id="use142" />
            <use
               x="578.076171875"
               xlink:href="#ArialMT-6c"
               id="use144" />
            <use
               x="600.29296875"
               xlink:href="#ArialMT-64"
               id="use146" />
            <use
               x="655.908203125"
               xlink:href="#ArialMT-20"
               id="use148" />
            <use
               x="683.69140625"
               xlink:href="#ArialMT-63"
               id="use150" />
            <use
               x="733.69140625"
               xlink:href="#ArialMT-65"
               id="use152" />
            <use
               x="789.306640625"
               xlink:href="#ArialMT-6e"
               id="use154" />
            <use
               x="844.921875"
               xlink:href="#ArialMT-74"
               id="use156" />
            <use
               x="872.705078125"
               xlink:href="#ArialMT-65"
               id="use158" />
            <use
               x="928.3203125"
               xlink:href="#ArialMT-72"
               id="use160" />
            <use
               x="961.62109375"
               xlink:href="#ArialMT-20"
               id="use162" />
            <use
               x="989.404296875"
               xlink:href="#ArialMT-28"
               id="use164" />
            <use
               x="1022.70507812"
               xlink:href="#ArialMT-64"
               id="use166" />
            <use
               x="1078.3203125"
               xlink:href="#ArialMT-65"
               id="use168" />
            <use
               x="1133.93554688"
               xlink:href="#ArialMT-67"
               id="use170" />
            <use
               x="1189.55078125"
               xlink:href="#ArialMT-72"
               id="use172" />
            <use
               x="1222.8515625"
               xlink:href="#ArialMT-65"
               id="use174" />
            <use
               x="1278.46679688"
               xlink:href="#ArialMT-65"
               id="use176" />
            <use
               x="1334.08203125"
               xlink:href="#ArialMT-73"
               id="use178" />
            <use
               x="1384.08203125"
               xlink:href="#ArialMT-29"
               id="use180" />
          </g>
        </g>
      </g>
      <g
         id="matplotlib.axis_2">
        <g
           id="ytick_1">
          <g
             id="line2d_15" />
          <g
             id="line2d_16" />
          <g
             id="text_9">
            <!-- 1.0 -->
            <defs
               id="defs187">
              <path
                 d="M 9.078125 0  L 9.078125 10.015625  L 19.09375 10.015625  L 19.09375 0  z "
                 id="ArialMT-2e" />
            </defs>
            <g
               style="fill:#262626;"
               transform="translate(28.7165 326.442132353)scale(0.16 -0.16)"
               id="g190">
              <use
                 xlink:href="#ArialMT-31"
                 id="use192" />
              <use
                 x="55.615234375"
                 xlink:href="#ArialMT-2e"
                 id="use194" />
              <use
                 x="83.3984375"
                 xlink:href="#ArialMT-30"
                 id="use196" />
            </g>
          </g>
        </g>
        <g
           id="ytick_2">
          <g
             id="line2d_17" />
          <g
             id="line2d_18" />
          <g
             id="text_10">
            <!-- 1.5 -->
            <defs
               id="defs202">
              <path
                 d="M 4.15625 18.75  L 13.375 19.53125  Q 14.40625 12.796875 18.140625 9.390625  Q 21.875 6 27.15625 6  Q 33.5 6 37.890625 10.78125  Q 42.28125 15.578125 42.28125 23.484375  Q 42.28125 31 38.0625 35.34375  Q 33.84375 39.703125 27 39.703125  Q 22.75 39.703125 19.328125 37.765625  Q 15.921875 35.84375 13.96875 32.765625  L 5.71875 33.84375  L 12.640625 70.609375  L 48.25 70.609375  L 48.25 62.203125  L 19.671875 62.203125  L 15.828125 42.96875  Q 22.265625 47.46875 29.34375 47.46875  Q 38.71875 47.46875 45.15625 40.96875  Q 51.609375 34.46875 51.609375 24.265625  Q 51.609375 14.546875 45.953125 7.46875  Q 39.0625 -1.21875 27.15625 -1.21875  Q 17.390625 -1.21875 11.203125 4.25  Q 5.03125 9.71875 4.15625 18.75  "
                 id="ArialMT-35" />
            </defs>
            <g
               style="fill:#262626;"
               transform="translate(28.7165 277.206838235)scale(0.16 -0.16)"
               id="g205">
              <use
                 xlink:href="#ArialMT-31"
                 id="use207" />
              <use
                 x="55.615234375"
                 xlink:href="#ArialMT-2e"
                 id="use209" />
              <use
                 x="83.3984375"
                 xlink:href="#ArialMT-35"
                 id="use211" />
            </g>
          </g>
        </g>
        <g
           id="ytick_3">
          <g
             id="line2d_19" />
          <g
             id="line2d_20" />
          <g
             id="text_11">
            <!-- 2.0 -->
            <g
               style="fill:#262626;"
               transform="translate(28.7165 227.971544118)scale(0.16 -0.16)"
               id="g217">
              <use
                 xlink:href="#ArialMT-32"
                 id="use219" />
              <use
                 x="55.615234375"
                 xlink:href="#ArialMT-2e"
                 id="use221" />
              <use
                 x="83.3984375"
                 xlink:href="#ArialMT-30"
                 id="use223" />
            </g>
          </g>
        </g>
        <g
           id="ytick_4">
          <g
             id="line2d_21" />
          <g
             id="line2d_22" />
          <g
             id="text_12">
            <!-- 2.5 -->
            <g
               style="fill:#262626;"
               transform="translate(28.7165 178.73625)scale(0.16 -0.16)"
               id="g229">
              <use
                 xlink:href="#ArialMT-32"
                 id="use231" />
              <use
                 x="55.615234375"
                 xlink:href="#ArialMT-2e"
                 id="use233" />
              <use
                 x="83.3984375"
                 xlink:href="#ArialMT-35"
                 id="use235" />
            </g>
          </g>
        </g>
        <g
           id="ytick_5">
          <g
             id="line2d_23" />
          <g
             id="line2d_24" />
          <g
             id="text_13">
            <!-- 3.0 -->
            <defs
               id="defs241">
              <path
                 d="M 4.203125 18.890625  L 12.984375 20.0625  Q 14.5 12.59375 18.140625 9.296875  Q 21.78125 6 27 6  Q 33.203125 6 37.46875 10.296875  Q 41.75 14.59375 41.75 20.953125  Q 41.75 27 37.796875 30.921875  Q 33.84375 34.859375 27.734375 34.859375  Q 25.25 34.859375 21.53125 33.890625  L 22.515625 41.609375  Q 23.390625 41.5 23.921875 41.5  Q 29.546875 41.5 34.03125 44.421875  Q 38.53125 47.359375 38.53125 53.46875  Q 38.53125 58.296875 35.25 61.46875  Q 31.984375 64.65625 26.8125 64.65625  Q 21.6875 64.65625 18.265625 61.421875  Q 14.84375 58.203125 13.875 51.765625  L 5.078125 53.328125  Q 6.6875 62.15625 12.390625 67.015625  Q 18.109375 71.875 26.609375 71.875  Q 32.46875 71.875 37.390625 69.359375  Q 42.328125 66.84375 44.9375 62.5  Q 47.5625 58.15625 47.5625 53.265625  Q 47.5625 48.640625 45.0625 44.828125  Q 42.578125 41.015625 37.703125 38.765625  Q 44.046875 37.3125 47.5625 32.6875  Q 51.078125 28.078125 51.078125 21.140625  Q 51.078125 11.765625 44.234375 5.25  Q 37.40625 -1.265625 26.953125 -1.265625  Q 17.53125 -1.265625 11.296875 4.34375  Q 5.078125 9.96875 4.203125 18.890625  "
                 id="ArialMT-33" />
            </defs>
            <g
               style="fill:#262626;"
               transform="translate(28.7165 129.500955882)scale(0.16 -0.16)"
               id="g244">
              <use
                 xlink:href="#ArialMT-33"
                 id="use246" />
              <use
                 x="55.615234375"
                 xlink:href="#ArialMT-2e"
                 id="use248" />
              <use
                 x="83.3984375"
                 xlink:href="#ArialMT-30"
                 id="use250" />
            </g>
          </g>
        </g>
        <g
           id="ytick_6">
          <g
             id="line2d_25" />
          <g
             id="line2d_26" />
          <g
             id="text_14">
            <!-- 3.5 -->
            <g
               style="fill:#262626;"
               transform="translate(28.7165 80.2656617647)scale(0.16 -0.16)"
               id="g256">
              <use
                 xlink:href="#ArialMT-33"
                 id="use258" />
              <use
                 x="55.615234375"
                 xlink:href="#ArialMT-2e"
                 id="use260" />
              <use
                 x="83.3984375"
                 xlink:href="#ArialMT-35"
                 id="use262" />
            </g>
          </g>
        </g>
        <g
           id="ytick_7">
          <g
             id="line2d_27" />
          <g
             id="line2d_28" />
          <g
             id="text_15">
            <!-- 4.0 -->
            <g
               style="fill:#262626;"
               transform="translate(28.7165 31.0303676471)scale(0.16 -0.16)"
               id="g268">
              <use
                 xlink:href="#ArialMT-34"
                 id="use270" />
              <use
                 x="55.615234375"
                 xlink:href="#ArialMT-2e"
                 id="use272" />
              <use
                 x="83.3984375"
                 xlink:href="#ArialMT-30"
                 id="use274" />
            </g>
          </g>
        </g>
        <g
           id="text_16">
          <!-- Peak spatial frequency (cpd) -->
          <defs
             id="defs277">
            <path
               d="M 40.4375 6.390625  Q 35.546875 2.25 31.03125 0.53125  Q 26.515625 -1.171875 21.34375 -1.171875  Q 12.796875 -1.171875 8.203125 3  Q 3.609375 7.171875 3.609375 13.671875  Q 3.609375 17.484375 5.34375 20.625  Q 7.078125 23.78125 9.890625 25.6875  Q 12.703125 27.59375 16.21875 28.5625  Q 18.796875 29.25 24.03125 29.890625  Q 34.671875 31.15625 39.703125 32.90625  Q 39.75 34.71875 39.75 35.203125  Q 39.75 40.578125 37.25 42.78125  Q 33.890625 45.75 27.25 45.75  Q 21.046875 45.75 18.09375 43.578125  Q 15.140625 41.40625 13.71875 35.890625  L 5.125 37.0625  Q 6.296875 42.578125 8.984375 45.96875  Q 11.671875 49.359375 16.75 51.1875  Q 21.828125 53.03125 28.515625 53.03125  Q 35.15625 53.03125 39.296875 51.46875  Q 43.453125 49.90625 45.40625 47.53125  Q 47.359375 45.171875 48.140625 41.546875  Q 48.578125 39.3125 48.578125 33.453125  L 48.578125 21.734375  Q 48.578125 9.46875 49.140625 6.21875  Q 49.703125 2.984375 51.375 0  L 42.1875 0  Q 40.828125 2.734375 40.4375 6.390625  M 39.703125 26.03125  Q 34.90625 24.078125 25.34375 22.703125  Q 19.921875 21.921875 17.671875 20.9375  Q 15.4375 19.96875 14.203125 18.09375  Q 12.984375 16.21875 12.984375 13.921875  Q 12.984375 10.40625 15.640625 8.0625  Q 18.3125 5.71875 23.4375 5.71875  Q 28.515625 5.71875 32.46875 7.9375  Q 36.421875 10.15625 38.28125 14.015625  Q 39.703125 17 39.703125 22.796875  z "
               id="ArialMT-61" />
            <path
               d="M 6.203125 -19.96875  L 5.21875 -11.71875  Q 8.109375 -12.5 10.25 -12.5  Q 13.1875 -12.5 14.9375 -11.515625  Q 16.703125 -10.546875 17.828125 -8.796875  Q 18.65625 -7.46875 20.515625 -2.25  Q 20.75 -1.515625 21.296875 -0.09375  L 1.609375 51.859375  L 11.078125 51.859375  L 21.875 21.828125  Q 23.96875 16.109375 25.640625 9.8125  Q 27.15625 15.875 29.25 21.625  L 40.328125 51.859375  L 49.125 51.859375  L 29.390625 -0.875  Q 26.21875 -9.421875 24.46875 -12.640625  Q 22.125 -17 19.09375 -19.015625  Q 16.0625 -21.046875 11.859375 -21.046875  Q 9.328125 -21.046875 6.203125 -19.96875  "
               id="ArialMT-79" />
            <path
               d="M 40.578125 0  L 40.578125 7.625  Q 34.515625 -1.171875 24.125 -1.171875  Q 19.53125 -1.171875 15.546875 0.578125  Q 11.578125 2.34375 9.640625 5  Q 7.71875 7.671875 6.9375 11.53125  Q 6.390625 14.109375 6.390625 19.734375  L 6.390625 51.859375  L 15.1875 51.859375  L 15.1875 23.09375  Q 15.1875 16.21875 15.71875 13.8125  Q 16.546875 10.359375 19.234375 8.375  Q 21.921875 6.390625 25.875 6.390625  Q 29.828125 6.390625 33.296875 8.421875  Q 36.765625 10.453125 38.203125 13.9375  Q 39.65625 17.4375 39.65625 24.078125  L 39.65625 51.859375  L 48.4375 51.859375  L 48.4375 0  z "
               id="ArialMT-75" />
            <path
               d="M 7.71875 0  L 7.71875 71.578125  L 34.71875 71.578125  Q 41.84375 71.578125 45.609375 70.90625  Q 50.875 70.015625 54.4375 67.546875  Q 58.015625 65.09375 60.1875 60.640625  Q 62.359375 56.203125 62.359375 50.875  Q 62.359375 41.75 56.546875 35.421875  Q 50.734375 29.109375 35.546875 29.109375  L 17.1875 29.109375  L 17.1875 0  z M 17.1875 37.546875  L 35.6875 37.546875  Q 44.875 37.546875 48.734375 40.96875  Q 52.59375 44.390625 52.59375 50.59375  Q 52.59375 55.078125 50.3125 58.265625  Q 48.046875 61.46875 44.34375 62.5  Q 41.9375 63.140625 35.5 63.140625  L 17.1875 63.140625  z "
               id="ArialMT-50" />
            <path
               d="M 39.65625 -19.875  L 39.65625 5.515625  Q 37.59375 2.640625 33.90625 0.734375  Q 30.21875 -1.171875 26.078125 -1.171875  Q 16.84375 -1.171875 10.171875 6.203125  Q 3.515625 13.578125 3.515625 26.421875  Q 3.515625 34.234375 6.21875 40.421875  Q 8.9375 46.625 14.078125 49.828125  Q 19.234375 53.03125 25.390625 53.03125  Q 35.015625 53.03125 40.53125 44.921875  L 40.53125 51.859375  L 48.4375 51.859375  L 48.4375 -19.875  z M 12.546875 26.078125  Q 12.546875 16.0625 16.75 11.0625  Q 20.953125 6.0625 26.8125 6.0625  Q 32.421875 6.0625 36.46875 10.8125  Q 40.53125 15.578125 40.53125 25.296875  Q 40.53125 35.640625 36.25 40.859375  Q 31.984375 46.09375 26.21875 46.09375  Q 20.515625 46.09375 16.53125 41.234375  Q 12.546875 36.375 12.546875 26.078125  "
               id="ArialMT-71" />
            <path
               d="M 6.640625 0  L 6.640625 71.578125  L 15.4375 71.578125  L 15.4375 30.765625  L 36.234375 51.859375  L 47.609375 51.859375  L 27.78125 32.625  L 49.609375 0  L 38.765625 0  L 21.625 26.515625  L 15.4375 20.5625  L 15.4375 0  z "
               id="ArialMT-6b" />
          </defs>
          <g
             style="fill:#262626;"
             transform="translate(20.01225 286.118)rotate(-90.0)scale(0.176 -0.176)"
             id="g285">
            <use
               xlink:href="#ArialMT-50"
               id="use287" />
            <use
               x="66.69921875"
               xlink:href="#ArialMT-65"
               id="use289" />
            <use
               x="122.314453125"
               xlink:href="#ArialMT-61"
               id="use291" />
            <use
               x="177.9296875"
               xlink:href="#ArialMT-6b"
               id="use293" />
            <use
               x="227.9296875"
               xlink:href="#ArialMT-20"
               id="use295" />
            <use
               x="255.712890625"
               xlink:href="#ArialMT-73"
               id="use297" />
            <use
               x="305.712890625"
               xlink:href="#ArialMT-70"
               id="use299" />
            <use
               x="361.328125"
               xlink:href="#ArialMT-61"
               id="use301" />
            <use
               x="416.943359375"
               xlink:href="#ArialMT-74"
               id="use303" />
            <use
               x="444.7265625"
               xlink:href="#ArialMT-69"
               id="use305" />
            <use
               x="466.943359375"
               xlink:href="#ArialMT-61"
               id="use307" />
            <use
               x="522.55859375"
               xlink:href="#ArialMT-6c"
               id="use309" />
            <use
               x="544.775390625"
               xlink:href="#ArialMT-20"
               id="use311" />
            <use
               x="572.55859375"
               xlink:href="#ArialMT-66"
               id="use313" />
            <use
               x="600.341796875"
               xlink:href="#ArialMT-72"
               id="use315" />
            <use
               x="633.642578125"
               xlink:href="#ArialMT-65"
               id="use317" />
            <use
               x="689.2578125"
               xlink:href="#ArialMT-71"
               id="use319" />
            <use
               x="744.873046875"
               xlink:href="#ArialMT-75"
               id="use321" />
            <use
               x="800.48828125"
               xlink:href="#ArialMT-65"
               id="use323" />
            <use
               x="856.103515625"
               xlink:href="#ArialMT-6e"
               id="use325" />
            <use
               x="911.71875"
               xlink:href="#ArialMT-63"
               id="use327" />
            <use
               x="961.71875"
               xlink:href="#ArialMT-79"
               id="use329" />
            <use
               x="1011.71875"
               xlink:href="#ArialMT-20"
               id="use331" />
            <use
               x="1039.50195312"
               xlink:href="#ArialMT-28"
               id="use333" />
            <use
               x="1072.80273438"
               xlink:href="#ArialMT-63"
               id="use335" />
            <use
               x="1122.80273438"
               xlink:href="#ArialMT-70"
               id="use337" />
            <use
               x="1178.41796875"
               xlink:href="#ArialMT-64"
               id="use339" />
            <use
               x="1234.03320312"
               xlink:href="#ArialMT-29"
               id="use341" />
          </g>
        </g>
      </g>
      <g
         id="line2d_29">
        <path
           clip-path="url(#p7d43e455b3)"
           d="M 136.9285 26.894118  L 143.753561 26.894118  L 150.578622 26.894118  L 157.403684 26.894118  L 164.228745 51.009364  L 171.053806 72.342081  L 177.878867 91.347594  L 184.703929 108.387018  L 191.52899 123.750434  L 198.354051 137.673529  L 205.179112 150.349781  L 212.004173 161.939496  L 218.829235 172.576632  L 225.654296 182.373994  L 232.479357 191.427252  L 239.304418 199.818077  L 246.12948 207.616609  L 252.954541 214.883422  L 259.779602 221.671105  L 266.604663 228.025532  L 273.429724 233.986901  L 280.254786 239.590588  L 287.079847 244.867847  L 293.904908 249.846393  L 300.729969 254.55089  L 307.555031 259.003361  L 314.380092 263.223529  L 321.205153 267.229113  L 328.030214 271.036072  L 334.855276 274.658824  L 341.680337 278.110421  L 348.505398 281.402715  L 355.330459 284.546484  L 362.15552 287.551557  L 368.980582 290.426915  L 375.805643 293.180779  L 382.630704 295.82069  L 389.455765 298.353577  L 396.280827 300.78582  L 403.105888 303.1233  L 409.930949 305.37145  L 416.75601 307.535294  L 423.581071 309.619488  L 430.406133 311.628349  L 437.231194 313.565889  L 444.056255 315.435841  L 450.881316 317.241681  L 457.706378 318.986649  L 464.531439 320.673773  L 471.3565 322.305882  "
           style="fill:none;stroke:#4c72b0;stroke-linecap:round;stroke-width:2.8;"
           id="path372" />
      </g>
      <g
         id="line2d_30">
        <path
           clip-path="url(#p7d43e455b3)"
           d="M 136.9285 26.894118  L 143.753561 26.894118  L 150.578622 26.894118  L 157.403684 26.894118  L 164.228745 26.894118  L 171.053806 26.894118  L 177.878867 26.894118  L 184.703929 26.894118  L 191.52899 26.894118  L 198.354051 26.894118  L 205.179112 26.894118  L 212.004173 26.894118  L 218.829235 26.894118  L 225.654296 26.894118  L 232.479357 26.894118  L 239.304418 26.894118  L 246.12948 26.894118  L 252.954541 26.894118  L 259.779602 26.894118  L 266.604663 26.894118  L 273.429724 26.894118  L 280.254786 26.894118  L 287.079847 26.894118  L 293.904908 26.894118  L 300.729969 26.894118  L 307.555031 26.894118  L 314.380092 26.894118  L 321.205153 26.894118  L 328.030214 26.894118  L 334.855276 26.894118  L 341.680337 26.894118  L 348.505398 26.894118  L 355.330459 26.894118  L 362.15552 26.894118  L 368.980582 26.894118  L 375.805643 26.894118  L 382.630704 26.894118  L 389.455765 26.894118  L 396.280827 26.894118  L 403.105888 26.894118  L 409.930949 26.894118  L 416.75601 26.894118  L 423.581071 26.894118  L 430.406133 26.894118  L 437.231194 26.894118  L 444.056255 26.894118  L 450.881316 26.894118  L 457.706378 26.894118  L 464.531439 26.894118  L 471.3565 26.894118  "
           style="fill:none;stroke:#55a868;stroke-dasharray:6.000000,6.000000;stroke-dashoffset:0.0;stroke-width:2.8;"
           id="path375" />
      </g>
      <g
         id="patch_3">
        <path
           d="M 62.1565 7.2  L 508.5565 7.2  "
           style="fill:none;stroke:#262626;stroke-linecap:square;stroke-linejoin:miter;stroke-width:1.25;"
           id="path378" />
      </g>
      <g
         id="patch_4">
        <path
           d="M 508.5565 342  L 508.5565 7.2  "
           style="fill:none;stroke:#262626;stroke-linecap:square;stroke-linejoin:miter;stroke-width:1.25;"
           id="path381" />
      </g>
      <g
         id="patch_5">
        <path
           d="M 62.1565 342  L 508.5565 342  "
           style="fill:none;stroke:#262626;stroke-linecap:square;stroke-linejoin:miter;stroke-width:1.25;"
           id="path384" />
      </g>
      <g
         id="patch_6">
        <path
           d="M 62.1565 342  L 62.1565 7.2  "
           style="fill:none;stroke:#262626;stroke-linecap:square;stroke-linejoin:miter;stroke-width:1.25;"
           id="path387" />
      </g>
      <g
         id="legend_1">
        <g
           id="text_17">
          <!-- hypotheses -->
          <defs
             id="defs391">
            <path
               d="M 6.59375 0  L 6.59375 71.578125  L 15.375 71.578125  L 15.375 45.90625  Q 21.53125 53.03125 30.90625 53.03125  Q 36.671875 53.03125 40.921875 50.75  Q 45.171875 48.484375 47 44.484375  Q 48.828125 40.484375 48.828125 32.859375  L 48.828125 0  L 40.046875 0  L 40.046875 32.859375  Q 40.046875 39.453125 37.1875 42.453125  Q 34.328125 45.453125 29.109375 45.453125  Q 25.203125 45.453125 21.75 43.421875  Q 18.3125 41.40625 16.84375 37.9375  Q 15.375 34.46875 15.375 28.375  L 15.375 0  z "
               id="ArialMT-68" />
            <path
               d="M 3.328125 25.921875  Q 3.328125 40.328125 11.328125 47.265625  Q 18.015625 53.03125 27.640625 53.03125  Q 38.328125 53.03125 45.109375 46.015625  Q 51.90625 39.015625 51.90625 26.65625  Q 51.90625 16.65625 48.90625 10.90625  Q 45.90625 5.171875 40.15625 2  Q 34.421875 -1.171875 27.640625 -1.171875  Q 16.75 -1.171875 10.03125 5.8125  Q 3.328125 12.796875 3.328125 25.921875  M 12.359375 25.921875  Q 12.359375 15.96875 16.703125 11.015625  Q 21.046875 6.0625 27.640625 6.0625  Q 34.1875 6.0625 38.53125 11.03125  Q 42.875 16.015625 42.875 26.21875  Q 42.875 35.84375 38.5 40.796875  Q 34.125 45.75 27.640625 45.75  Q 21.046875 45.75 16.703125 40.8125  Q 12.359375 35.890625 12.359375 25.921875  "
               id="ArialMT-6f" />
          </defs>
          <g
             style="fill:#262626;"
             transform="translate(80.0985 278.1065)scale(0.192 -0.192)"
             id="g395">
            <use
               xlink:href="#ArialMT-68"
               id="use397" />
            <use
               x="55.615234375"
               xlink:href="#ArialMT-79"
               id="use399" />
            <use
               x="105.615234375"
               xlink:href="#ArialMT-70"
               id="use401" />
            <use
               x="161.23046875"
               xlink:href="#ArialMT-6f"
               id="use403" />
            <use
               x="216.845703125"
               xlink:href="#ArialMT-74"
               id="use405" />
            <use
               x="244.62890625"
               xlink:href="#ArialMT-68"
               id="use407" />
            <use
               x="300.244140625"
               xlink:href="#ArialMT-65"
               id="use409" />
            <use
               x="355.859375"
               xlink:href="#ArialMT-73"
               id="use411" />
            <use
               x="405.859375"
               xlink:href="#ArialMT-65"
               id="use413" />
            <use
               x="461.474609375"
               xlink:href="#ArialMT-73"
               id="use415" />
          </g>
        </g>
        <g
           id="line2d_31">
          <path
             d="M 76.5565 296  L 108.5565 296  "
             style="fill:none;stroke:#4c72b0;stroke-linecap:round;stroke-width:2.8;"
             id="path418" />
        </g>
        <g
           id="line2d_32" />
        <g
           id="text_18">
          <!-- scaling -->
          <g
             style="fill:#262626;"
             transform="translate(121.3565 301.6)scale(0.16 -0.16)"
             id="g422">
            <use
               xlink:href="#ArialMT-73"
               id="use424" />
            <use
               x="50.0"
               xlink:href="#ArialMT-63"
               id="use426" />
            <use
               x="100.0"
               xlink:href="#ArialMT-61"
               id="use428" />
            <use
               x="155.615234375"
               xlink:href="#ArialMT-6c"
               id="use430" />
            <use
               x="177.83203125"
               xlink:href="#ArialMT-69"
               id="use432" />
            <use
               x="200.048828125"
               xlink:href="#ArialMT-6e"
               id="use434" />
            <use
               x="255.6640625"
               xlink:href="#ArialMT-67"
               id="use436" />
          </g>
        </g>
        <g
           id="line2d_33">
          <path
             d="M 76.5565 318.82  L 108.5565 318.82  "
             style="fill:none;stroke:#55a868;stroke-dasharray:6.000000,6.000000;stroke-dashoffset:0.0;stroke-width:2.8;"
             id="path439" />
        </g>
        <g
           id="line2d_34" />
        <g
           id="text_19">
          <!-- constant -->
          <g
             style="fill:#262626;"
             transform="translate(121.3565 324.42)scale(0.16 -0.16)"
             id="g443">
            <use
               xlink:href="#ArialMT-63"
               id="use445" />
            <use
               x="50.0"
               xlink:href="#ArialMT-6f"
               id="use447" />
            <use
               x="105.615234375"
               xlink:href="#ArialMT-6e"
               id="use449" />
            <use
               x="161.23046875"
               xlink:href="#ArialMT-73"
               id="use451" />
            <use
               x="211.23046875"
               xlink:href="#ArialMT-74"
               id="use453" />
            <use
               x="239.013671875"
               xlink:href="#ArialMT-61"
               id="use455" />
            <use
               x="294.62890625"
               xlink:href="#ArialMT-6e"
               id="use457" />
            <use
               x="350.244140625"
               xlink:href="#ArialMT-74"
               id="use459" />
          </g>
        </g>
      </g>
      <g
         id="PathCollection_1">
        <defs
           id="defs344">
          <path
             d="M 0 4.330127  C 1.148363 4.330127 2.249847 3.873878 3.061862 3.061862  C 3.873878 2.249847 4.330127 1.148363 4.330127 0  C 4.330127 -1.148363 3.873878 -2.249847 3.061862 -3.061862  C 2.249847 -3.873878 1.148363 -4.330127 0 -4.330127  C -1.148363 -4.330127 -2.249847 -3.873878 -3.061862 -3.061862  C -3.873878 -2.249847 -4.330127 -1.148363 -4.330127 0  C -4.330127 1.148363 -3.873878 2.249847 -3.061862 3.061862  C -2.249847 3.873878 -1.148363 4.330127 0 4.330127  z "
             id="C0_0_dc411a58a2" />
        </defs>
        <g
           clip-path="url(#p7d43e455b3)"
           id="g347">
          <use
             style="fill:#fedbcc;stroke:#000000;stroke-width:0.48;"
             x="229.5565"
             xlink:href="#C0_0_dc411a58a2"
             y="160.377963272"
             id="use349" />
        </g>
        <g
           clip-path="url(#p7d43e455b3)"
           id="g351">
          <use
             style="fill:#fcaf93;stroke:#000000;stroke-width:0.48;"
             x="266.7565"
             xlink:href="#C0_0_dc411a58a2"
             y="217.641472026"
             id="use353" />
        </g>
        <g
           clip-path="url(#p7d43e455b3)"
           id="g355">
          <use
             style="fill:#fc8161;stroke:#000000;stroke-width:0.48;"
             x="303.9565"
             xlink:href="#C0_0_dc411a58a2"
             y="256.668986833"
             id="use357" />
        </g>
        <g
           clip-path="url(#p7d43e455b3)"
           id="g359">
          <use
             style="fill:#f44f39;stroke:#000000;stroke-width:0.48;"
             x="341.1565"
             xlink:href="#C0_0_dc411a58a2"
             y="283.864161893"
             id="use361" />
        </g>
        <g
           clip-path="url(#p7d43e455b3)"
           id="g363">
          <use
             style="fill:#d52221;stroke:#000000;stroke-width:0.48;"
             x="378.3565"
             xlink:href="#C0_0_dc411a58a2"
             y="303.610883335"
             id="use365" />
        </g>
        <g
           clip-path="url(#p7d43e455b3)"
           id="g367">
          <use
             style="fill:#aa1016;stroke:#000000;stroke-width:0.48;"
             x="415.5565"
             xlink:href="#C0_0_dc411a58a2"
             y="318.49814952"
             id="use369" />
        </g>
      </g>
    </g>
  </g>
  <defs
     id="defs461">
    <clipPath
       id="p7d43e455b3">
      <rect
         height="334.8"
         width="446.4"
         x="62.1565"
         y="7.2"
         id="rect464" />
    </clipPath>
  </defs>
</svg>
