<?xml version="1.0" encoding="utf-8" standalone="no"?>
<!DOCTYPE svg PUBLIC "-//W3C//DTD SVG 1.1//EN"
  "http://www.w3.org/Graphics/SVG/1.1/DTD/svg11.dtd">
<!-- Created with matplotlib (http://matplotlib.org/) -->
<svg height="644pt" version="1.1" viewBox="0 0 1022 644" width="1022pt" xmlns="http://www.w3.org/2000/svg" xmlns:xlink="http://www.w3.org/1999/xlink">
 <defs>
  <style type="text/css">
*{stroke-linecap:butt;stroke-linejoin:round;stroke-miterlimit:100000;}
  </style>
 </defs>
 <g id="figure_1">
  <g id="patch_1">
   <path d="M 0 644.686937 
L 1022.903712 644.686937 
L 1022.903712 0 
L 0 0 
z
" style="fill:#ffffff;"/>
  </g>
  <g id="axes_1">
   <g id="patch_2">
    <path d="M 89.003125 567.151562 
L 1000.133087 567.151562 
L 1000.133087 7.2 
L 89.003125 7.2 
z
" style="fill:#eaeaf2;"/>
   </g>
   <g id="matplotlib.axis_1">
    <g id="xtick_1">
     <g id="line2d_1">
      <path clip-path="url(#pf369630fd1)" d="M 132.390266 567.151562 
L 132.390266 7.2 
" style="fill:none;stroke:#ffffff;stroke-linecap:round;stroke-width:1.6;"/>
     </g>
     <g id="line2d_2"/>
     <g id="text_1">
      <!-- 0 -->
      <defs>
       <path d="M 4.15625 35.296875 
Q 4.15625 48 6.765625 55.734375 
Q 9.375 63.484375 14.515625 67.671875 
Q 19.671875 71.875 27.484375 71.875 
Q 33.25 71.875 37.59375 69.546875 
Q 41.9375 67.234375 44.765625 62.859375 
Q 47.609375 58.5 49.21875 52.21875 
Q 50.828125 45.953125 50.828125 35.296875 
Q 50.828125 22.703125 48.234375 14.96875 
Q 45.65625 7.234375 40.5 3 
Q 35.359375 -1.21875 27.484375 -1.21875 
Q 17.140625 -1.21875 11.234375 6.203125 
Q 4.15625 15.140625 4.15625 35.296875 
M 13.1875 35.296875 
Q 13.1875 17.671875 17.3125 11.828125 
Q 21.4375 6 27.484375 6 
Q 33.546875 6 37.671875 11.859375 
Q 41.796875 17.71875 41.796875 35.296875 
Q 41.796875 52.984375 37.671875 58.78125 
Q 33.546875 64.59375 27.390625 64.59375 
Q 21.34375 64.59375 17.71875 59.46875 
Q 13.1875 52.9375 13.1875 35.296875 
" id="ArialMT-30"/>
      </defs>
      <g style="fill:#262626;" transform="translate(124.604953571 598.3934375)scale(0.28 -0.28)">
       <use xlink:href="#ArialMT-30"/>
      </g>
     </g>
    </g>
    <g id="xtick_2">
     <g id="line2d_3">
      <path clip-path="url(#pf369630fd1)" d="M 349.325971 567.151562 
L 349.325971 7.2 
" style="fill:none;stroke:#ffffff;stroke-linecap:round;stroke-width:1.6;"/>
     </g>
     <g id="line2d_4"/>
     <g id="text_2">
      <!-- 5 -->
      <defs>
       <path d="M 4.15625 18.75 
L 13.375 19.53125 
Q 14.40625 12.796875 18.140625 9.390625 
Q 21.875 6 27.15625 6 
Q 33.5 6 37.890625 10.78125 
Q 42.28125 15.578125 42.28125 23.484375 
Q 42.28125 31 38.0625 35.34375 
Q 33.84375 39.703125 27 39.703125 
Q 22.75 39.703125 19.328125 37.765625 
Q 15.921875 35.84375 13.96875 32.765625 
L 5.71875 33.84375 
L 12.640625 70.609375 
L 48.25 70.609375 
L 48.25 62.203125 
L 19.671875 62.203125 
L 15.828125 42.96875 
Q 22.265625 47.46875 29.34375 47.46875 
Q 38.71875 47.46875 45.15625 40.96875 
Q 51.609375 34.46875 51.609375 24.265625 
Q 51.609375 14.546875 45.953125 7.46875 
Q 39.0625 -1.21875 27.15625 -1.21875 
Q 17.390625 -1.21875 11.203125 4.25 
Q 5.03125 9.71875 4.15625 18.75 
" id="ArialMT-35"/>
      </defs>
      <g style="fill:#262626;" transform="translate(341.540658929 598.3934375)scale(0.28 -0.28)">
       <use xlink:href="#ArialMT-35"/>
      </g>
     </g>
    </g>
    <g id="xtick_3">
     <g id="line2d_5">
      <path clip-path="url(#pf369630fd1)" d="M 566.261677 567.151562 
L 566.261677 7.2 
" style="fill:none;stroke:#ffffff;stroke-linecap:round;stroke-width:1.6;"/>
     </g>
     <g id="line2d_6"/>
     <g id="text_3">
      <!-- 10 -->
      <defs>
       <path d="M 37.25 0 
L 28.46875 0 
L 28.46875 56 
Q 25.296875 52.984375 20.140625 49.953125 
Q 14.984375 46.921875 10.890625 45.40625 
L 10.890625 53.90625 
Q 18.265625 57.375 23.78125 62.296875 
Q 29.296875 67.234375 31.59375 71.875 
L 37.25 71.875 
z
" id="ArialMT-31"/>
      </defs>
      <g style="fill:#262626;" transform="translate(550.691051786 598.3934375)scale(0.28 -0.28)">
       <use xlink:href="#ArialMT-31"/>
       <use x="55.615234375" xlink:href="#ArialMT-30"/>
      </g>
     </g>
    </g>
    <g id="xtick_4">
     <g id="line2d_7">
      <path clip-path="url(#pf369630fd1)" d="M 783.197382 567.151562 
L 783.197382 7.2 
" style="fill:none;stroke:#ffffff;stroke-linecap:round;stroke-width:1.6;"/>
     </g>
     <g id="line2d_8"/>
     <g id="text_4">
      <!-- 15 -->
      <g style="fill:#262626;" transform="translate(767.626757143 598.3934375)scale(0.28 -0.28)">
       <use xlink:href="#ArialMT-31"/>
       <use x="55.615234375" xlink:href="#ArialMT-35"/>
      </g>
     </g>
    </g>
    <g id="xtick_5">
     <g id="line2d_9">
      <path clip-path="url(#pf369630fd1)" d="M 1000.133087 567.151562 
L 1000.133087 7.2 
" style="fill:none;stroke:#ffffff;stroke-linecap:round;stroke-width:1.6;"/>
     </g>
     <g id="line2d_10"/>
     <g id="text_5">
      <!-- 20 -->
      <defs>
       <path d="M 50.34375 8.453125 
L 50.34375 0 
L 3.03125 0 
Q 2.9375 3.171875 4.046875 6.109375 
Q 5.859375 10.9375 9.828125 15.625 
Q 13.8125 20.3125 21.34375 26.46875 
Q 33.015625 36.03125 37.109375 41.625 
Q 41.21875 47.21875 41.21875 52.203125 
Q 41.21875 57.421875 37.46875 61 
Q 33.734375 64.59375 27.734375 64.59375 
Q 21.390625 64.59375 17.578125 60.78125 
Q 13.765625 56.984375 13.71875 50.25 
L 4.6875 51.171875 
Q 5.609375 61.28125 11.65625 66.578125 
Q 17.71875 71.875 27.9375 71.875 
Q 38.234375 71.875 44.234375 66.15625 
Q 50.25 60.453125 50.25 52 
Q 50.25 47.703125 48.484375 43.546875 
Q 46.734375 39.40625 42.65625 34.8125 
Q 38.578125 30.21875 29.109375 22.21875 
Q 21.1875 15.578125 18.9375 13.203125 
Q 16.703125 10.84375 15.234375 8.453125 
z
" id="ArialMT-32"/>
      </defs>
      <g style="fill:#262626;" transform="translate(984.5624625 598.3934375)scale(0.28 -0.28)">
       <use xlink:href="#ArialMT-32"/>
       <use x="55.615234375" xlink:href="#ArialMT-30"/>
      </g>
     </g>
    </g>
    <g id="text_6">
     <!-- Eccentricity -->
     <defs>
      <path d="M 40.4375 19 
L 49.078125 17.875 
Q 47.65625 8.9375 41.8125 3.875 
Q 35.984375 -1.171875 27.484375 -1.171875 
Q 16.84375 -1.171875 10.375 5.78125 
Q 3.90625 12.75 3.90625 25.734375 
Q 3.90625 34.125 6.6875 40.421875 
Q 9.46875 46.734375 15.15625 49.875 
Q 20.84375 53.03125 27.546875 53.03125 
Q 35.984375 53.03125 41.359375 48.75 
Q 46.734375 44.484375 48.25 36.625 
L 39.703125 35.296875 
Q 38.484375 40.53125 35.375 43.15625 
Q 32.28125 45.796875 27.875 45.796875 
Q 21.234375 45.796875 17.078125 41.03125 
Q 12.9375 36.28125 12.9375 25.984375 
Q 12.9375 15.53125 16.9375 10.796875 
Q 20.953125 6.0625 27.390625 6.0625 
Q 32.5625 6.0625 36.03125 9.234375 
Q 39.5 12.40625 40.4375 19 
" id="ArialMT-63"/>
      <path d="M 6.203125 -19.96875 
L 5.21875 -11.71875 
Q 8.109375 -12.5 10.25 -12.5 
Q 13.1875 -12.5 14.9375 -11.515625 
Q 16.703125 -10.546875 17.828125 -8.796875 
Q 18.65625 -7.46875 20.515625 -2.25 
Q 20.75 -1.515625 21.296875 -0.09375 
L 1.609375 51.859375 
L 11.078125 51.859375 
L 21.875 21.828125 
Q 23.96875 16.109375 25.640625 9.8125 
Q 27.15625 15.875 29.25 21.625 
L 40.328125 51.859375 
L 49.125 51.859375 
L 29.390625 -0.875 
Q 26.21875 -9.421875 24.46875 -12.640625 
Q 22.125 -17 19.09375 -19.015625 
Q 16.0625 -21.046875 11.859375 -21.046875 
Q 9.328125 -21.046875 6.203125 -19.96875 
" id="ArialMT-79"/>
      <path d="M 42.09375 16.703125 
L 51.171875 15.578125 
Q 49.03125 7.625 43.21875 3.21875 
Q 37.40625 -1.171875 28.375 -1.171875 
Q 17 -1.171875 10.328125 5.828125 
Q 3.65625 12.84375 3.65625 25.484375 
Q 3.65625 38.578125 10.390625 45.796875 
Q 17.140625 53.03125 27.875 53.03125 
Q 38.28125 53.03125 44.875 45.953125 
Q 51.46875 38.875 51.46875 26.03125 
Q 51.46875 25.25 51.421875 23.6875 
L 12.75 23.6875 
Q 13.234375 15.140625 17.578125 10.59375 
Q 21.921875 6.0625 28.421875 6.0625 
Q 33.25 6.0625 36.671875 8.59375 
Q 40.09375 11.140625 42.09375 16.703125 
M 13.234375 30.90625 
L 42.1875 30.90625 
Q 41.609375 37.453125 38.875 40.71875 
Q 34.671875 45.796875 27.984375 45.796875 
Q 21.921875 45.796875 17.796875 41.75 
Q 13.671875 37.703125 13.234375 30.90625 
" id="ArialMT-65"/>
      <path d="M 25.78125 7.859375 
L 27.046875 0.09375 
Q 23.34375 -0.6875 20.40625 -0.6875 
Q 15.625 -0.6875 12.984375 0.828125 
Q 10.359375 2.34375 9.28125 4.8125 
Q 8.203125 7.28125 8.203125 15.1875 
L 8.203125 45.015625 
L 1.765625 45.015625 
L 1.765625 51.859375 
L 8.203125 51.859375 
L 8.203125 64.703125 
L 16.9375 69.96875 
L 16.9375 51.859375 
L 25.78125 51.859375 
L 25.78125 45.015625 
L 16.9375 45.015625 
L 16.9375 14.703125 
Q 16.9375 10.9375 17.40625 9.859375 
Q 17.875 8.796875 18.921875 8.15625 
Q 19.96875 7.515625 21.921875 7.515625 
Q 23.390625 7.515625 25.78125 7.859375 
" id="ArialMT-74"/>
      <path d="M 6.640625 61.46875 
L 6.640625 71.578125 
L 15.4375 71.578125 
L 15.4375 61.46875 
z
M 6.640625 0 
L 6.640625 51.859375 
L 15.4375 51.859375 
L 15.4375 0 
z
" id="ArialMT-69"/>
      <path d="M 7.90625 0 
L 7.90625 71.578125 
L 59.671875 71.578125 
L 59.671875 63.140625 
L 17.390625 63.140625 
L 17.390625 41.21875 
L 56.984375 41.21875 
L 56.984375 32.8125 
L 17.390625 32.8125 
L 17.390625 8.453125 
L 61.328125 8.453125 
L 61.328125 0 
z
" id="ArialMT-45"/>
      <path d="M 6.5 0 
L 6.5 51.859375 
L 14.40625 51.859375 
L 14.40625 44 
Q 17.4375 49.515625 20 51.265625 
Q 22.5625 53.03125 25.640625 53.03125 
Q 30.078125 53.03125 34.671875 50.203125 
L 31.640625 42.046875 
Q 28.421875 43.953125 25.203125 43.953125 
Q 22.3125 43.953125 20.015625 42.21875 
Q 17.71875 40.484375 16.75 37.40625 
Q 15.28125 32.71875 15.28125 27.15625 
L 15.28125 0 
z
" id="ArialMT-72"/>
      <path d="M 6.59375 0 
L 6.59375 51.859375 
L 14.5 51.859375 
L 14.5 44.484375 
Q 20.21875 53.03125 31 53.03125 
Q 35.6875 53.03125 39.625 51.34375 
Q 43.5625 49.65625 45.515625 46.921875 
Q 47.46875 44.1875 48.25 40.4375 
Q 48.734375 37.984375 48.734375 31.890625 
L 48.734375 0 
L 39.9375 0 
L 39.9375 31.546875 
Q 39.9375 36.921875 38.90625 39.578125 
Q 37.890625 42.234375 35.28125 43.8125 
Q 32.671875 45.40625 29.15625 45.40625 
Q 23.53125 45.40625 19.453125 41.84375 
Q 15.375 38.28125 15.375 28.328125 
L 15.375 0 
z
" id="ArialMT-6e"/>
     </defs>
     <g style="fill:#262626;" transform="translate(465.84041875 631.0045)scale(0.308 -0.308)">
      <use xlink:href="#ArialMT-45"/>
      <use x="66.69921875" xlink:href="#ArialMT-63"/>
      <use x="116.69921875" xlink:href="#ArialMT-63"/>
      <use x="166.69921875" xlink:href="#ArialMT-65"/>
      <use x="222.314453125" xlink:href="#ArialMT-6e"/>
      <use x="277.9296875" xlink:href="#ArialMT-74"/>
      <use x="305.712890625" xlink:href="#ArialMT-72"/>
      <use x="339.013671875" xlink:href="#ArialMT-69"/>
      <use x="361.23046875" xlink:href="#ArialMT-63"/>
      <use x="411.23046875" xlink:href="#ArialMT-69"/>
      <use x="433.447265625" xlink:href="#ArialMT-74"/>
      <use x="461.23046875" xlink:href="#ArialMT-79"/>
     </g>
    </g>
   </g>
   <g id="matplotlib.axis_2">
    <g id="ytick_1">
     <g id="line2d_11">
      <path clip-path="url(#pf369630fd1)" d="M 89.003125 522.42507 
L 1000.133087 522.42507 
" style="fill:none;stroke:#ffffff;stroke-linecap:round;stroke-width:1.6;"/>
     </g>
     <g id="line2d_12"/>
     <g id="text_7">
      <!-- $\mathdefault{2^{-2}}$ -->
      <defs>
       <path d="M 3.171875 21.484375 
L 3.171875 30.328125 
L 30.171875 30.328125 
L 30.171875 21.484375 
z
" id="ArialMT-2d"/>
      </defs>
      <g style="fill:#262626;" transform="translate(41.123125 530.300069606)scale(0.28 -0.28)">
       <use transform="translate(0.0 0.884375)" xlink:href="#ArialMT-32"/>
       <use transform="translate(60.842265625 45.6875)scale(0.7)" xlink:href="#ArialMT-2d"/>
       <use transform="translate(84.1528125 45.6875)scale(0.7)" xlink:href="#ArialMT-32"/>
      </g>
     </g>
    </g>
    <g id="ytick_2">
     <g id="line2d_13">
      <path clip-path="url(#pf369630fd1)" d="M 89.003125 428.05168 
L 1000.133087 428.05168 
" style="fill:none;stroke:#ffffff;stroke-linecap:round;stroke-width:1.6;"/>
     </g>
     <g id="line2d_14"/>
     <g id="text_8">
      <!-- $\mathdefault{2^{-1}}$ -->
      <g style="fill:#262626;" transform="translate(41.123125 435.926679554)scale(0.28 -0.28)">
       <use transform="translate(0.0 0.884375)" xlink:href="#ArialMT-32"/>
       <use transform="translate(60.842265625 45.6875)scale(0.7)" xlink:href="#ArialMT-2d"/>
       <use transform="translate(84.1528125 45.6875)scale(0.7)" xlink:href="#ArialMT-31"/>
      </g>
     </g>
    </g>
    <g id="ytick_3">
     <g id="line2d_15">
      <path clip-path="url(#pf369630fd1)" d="M 89.003125 333.67829 
L 1000.133087 333.67829 
" style="fill:none;stroke:#ffffff;stroke-linecap:round;stroke-width:1.6;"/>
     </g>
     <g id="line2d_16"/>
     <g id="text_9">
      <!-- $\mathdefault{2^{0}}$ -->
      <g style="fill:#262626;" transform="translate(47.563125 341.553289503)scale(0.28 -0.28)">
       <use transform="translate(0.0 0.884375)" xlink:href="#ArialMT-32"/>
       <use transform="translate(60.842265625 45.6875)scale(0.7)" xlink:href="#ArialMT-30"/>
      </g>
     </g>
    </g>
    <g id="ytick_4">
     <g id="line2d_17">
      <path clip-path="url(#pf369630fd1)" d="M 89.003125 239.304899 
L 1000.133087 239.304899 
" style="fill:none;stroke:#ffffff;stroke-linecap:round;stroke-width:1.6;"/>
     </g>
     <g id="line2d_18"/>
     <g id="text_10">
      <!-- $\mathdefault{2^{1}}$ -->
      <g style="fill:#262626;" transform="translate(47.563125 247.179899451)scale(0.28 -0.28)">
       <use transform="translate(0.0 0.884375)" xlink:href="#ArialMT-32"/>
       <use transform="translate(60.842265625 45.6875)scale(0.7)" xlink:href="#ArialMT-31"/>
      </g>
     </g>
    </g>
    <g id="ytick_5">
     <g id="line2d_19">
      <path clip-path="url(#pf369630fd1)" d="M 89.003125 144.931509 
L 1000.133087 144.931509 
" style="fill:none;stroke:#ffffff;stroke-linecap:round;stroke-width:1.6;"/>
     </g>
     <g id="line2d_20"/>
     <g id="text_11">
      <!-- $\mathdefault{2^{2}}$ -->
      <g style="fill:#262626;" transform="translate(47.563125 152.806509399)scale(0.28 -0.28)">
       <use transform="translate(0.0 0.884375)" xlink:href="#ArialMT-32"/>
       <use transform="translate(60.842265625 45.6875)scale(0.7)" xlink:href="#ArialMT-32"/>
      </g>
     </g>
    </g>
    <g id="ytick_6">
     <g id="line2d_21">
      <path clip-path="url(#pf369630fd1)" d="M 89.003125 50.558119 
L 1000.133087 50.558119 
" style="fill:none;stroke:#ffffff;stroke-linecap:round;stroke-width:1.6;"/>
     </g>
     <g id="line2d_22"/>
     <g id="text_12">
      <!-- $\mathdefault{2^{3}}$ -->
      <defs>
       <path d="M 4.203125 18.890625 
L 12.984375 20.0625 
Q 14.5 12.59375 18.140625 9.296875 
Q 21.78125 6 27 6 
Q 33.203125 6 37.46875 10.296875 
Q 41.75 14.59375 41.75 20.953125 
Q 41.75 27 37.796875 30.921875 
Q 33.84375 34.859375 27.734375 34.859375 
Q 25.25 34.859375 21.53125 33.890625 
L 22.515625 41.609375 
Q 23.390625 41.5 23.921875 41.5 
Q 29.546875 41.5 34.03125 44.421875 
Q 38.53125 47.359375 38.53125 53.46875 
Q 38.53125 58.296875 35.25 61.46875 
Q 31.984375 64.65625 26.8125 64.65625 
Q 21.6875 64.65625 18.265625 61.421875 
Q 14.84375 58.203125 13.875 51.765625 
L 5.078125 53.328125 
Q 6.6875 62.15625 12.390625 67.015625 
Q 18.109375 71.875 26.609375 71.875 
Q 32.46875 71.875 37.390625 69.359375 
Q 42.328125 66.84375 44.9375 62.5 
Q 47.5625 58.15625 47.5625 53.265625 
Q 47.5625 48.640625 45.0625 44.828125 
Q 42.578125 41.015625 37.703125 38.765625 
Q 44.046875 37.3125 47.5625 32.6875 
Q 51.078125 28.078125 51.078125 21.140625 
Q 51.078125 11.765625 44.234375 5.25 
Q 37.40625 -1.265625 26.953125 -1.265625 
Q 17.53125 -1.265625 11.296875 4.34375 
Q 5.078125 9.96875 4.203125 18.890625 
" id="ArialMT-33"/>
      </defs>
      <g style="fill:#262626;" transform="translate(47.563125 58.4331193477)scale(0.28 -0.28)">
       <use transform="translate(0.0 0.884375)" xlink:href="#ArialMT-32"/>
       <use transform="translate(60.842265625 45.6875)scale(0.7)" xlink:href="#ArialMT-33"/>
      </g>
     </g>
    </g>
    <g id="ytick_7">
     <g id="line2d_23"/>
    </g>
    <g id="ytick_8">
     <g id="line2d_24"/>
    </g>
    <g id="ytick_9">
     <g id="line2d_25"/>
    </g>
    <g id="ytick_10">
     <g id="line2d_26"/>
    </g>
    <g id="ytick_11">
     <g id="line2d_27"/>
    </g>
    <g id="ytick_12">
     <g id="line2d_28"/>
    </g>
    <g id="text_13">
     <!-- Optimum SF (cpd) -->
     <defs>
      <path d="M 4.5 23 
L 13.421875 23.78125 
Q 14.0625 18.40625 16.375 14.96875 
Q 18.703125 11.53125 23.578125 9.40625 
Q 28.46875 7.28125 34.578125 7.28125 
Q 39.984375 7.28125 44.140625 8.890625 
Q 48.296875 10.5 50.3125 13.296875 
Q 52.34375 16.109375 52.34375 19.4375 
Q 52.34375 22.796875 50.390625 25.3125 
Q 48.4375 27.828125 43.953125 29.546875 
Q 41.0625 30.671875 31.203125 33.03125 
Q 21.34375 35.40625 17.390625 37.5 
Q 12.25 40.1875 9.734375 44.15625 
Q 7.234375 48.140625 7.234375 53.078125 
Q 7.234375 58.5 10.296875 63.203125 
Q 13.375 67.921875 19.28125 70.359375 
Q 25.203125 72.796875 32.421875 72.796875 
Q 40.375 72.796875 46.453125 70.234375 
Q 52.546875 67.671875 55.8125 62.6875 
Q 59.078125 57.71875 59.328125 51.421875 
L 50.25 50.734375 
Q 49.515625 57.515625 45.28125 60.984375 
Q 41.0625 64.453125 32.8125 64.453125 
Q 24.21875 64.453125 20.28125 61.296875 
Q 16.359375 58.15625 16.359375 53.71875 
Q 16.359375 49.859375 19.140625 47.359375 
Q 21.875 44.875 33.421875 42.265625 
Q 44.96875 39.65625 49.265625 37.703125 
Q 55.515625 34.8125 58.484375 30.390625 
Q 61.46875 25.984375 61.46875 20.21875 
Q 61.46875 14.5 58.203125 9.4375 
Q 54.9375 4.390625 48.796875 1.578125 
Q 42.671875 -1.21875 35.015625 -1.21875 
Q 25.296875 -1.21875 18.71875 1.609375 
Q 12.15625 4.4375 8.421875 10.125 
Q 4.6875 15.828125 4.5 23 
" id="ArialMT-53"/>
      <path d="M 40.234375 0 
L 40.234375 6.546875 
Q 35.296875 -1.171875 25.734375 -1.171875 
Q 19.53125 -1.171875 14.328125 2.25 
Q 9.125 5.671875 6.265625 11.796875 
Q 3.421875 17.921875 3.421875 25.875 
Q 3.421875 33.640625 6 39.96875 
Q 8.59375 46.296875 13.765625 49.65625 
Q 18.953125 53.03125 25.34375 53.03125 
Q 30.03125 53.03125 33.6875 51.046875 
Q 37.359375 49.078125 39.65625 45.90625 
L 39.65625 71.578125 
L 48.390625 71.578125 
L 48.390625 0 
z
M 12.453125 25.875 
Q 12.453125 15.921875 16.640625 10.984375 
Q 20.84375 6.0625 26.5625 6.0625 
Q 32.328125 6.0625 36.34375 10.765625 
Q 40.375 15.484375 40.375 25.140625 
Q 40.375 35.796875 36.265625 40.765625 
Q 32.171875 45.75 26.171875 45.75 
Q 20.3125 45.75 16.375 40.96875 
Q 12.453125 36.1875 12.453125 25.875 
" id="ArialMT-64"/>
      <path d="M 40.578125 0 
L 40.578125 7.625 
Q 34.515625 -1.171875 24.125 -1.171875 
Q 19.53125 -1.171875 15.546875 0.578125 
Q 11.578125 2.34375 9.640625 5 
Q 7.71875 7.671875 6.9375 11.53125 
Q 6.390625 14.109375 6.390625 19.734375 
L 6.390625 51.859375 
L 15.1875 51.859375 
L 15.1875 23.09375 
Q 15.1875 16.21875 15.71875 13.8125 
Q 16.546875 10.359375 19.234375 8.375 
Q 21.921875 6.390625 25.875 6.390625 
Q 29.828125 6.390625 33.296875 8.421875 
Q 36.765625 10.453125 38.203125 13.9375 
Q 39.65625 17.4375 39.65625 24.078125 
L 39.65625 51.859375 
L 48.4375 51.859375 
L 48.4375 0 
z
" id="ArialMT-75"/>
      <path d="M 23.390625 -21.046875 
Q 16.109375 -11.859375 11.078125 0.4375 
Q 6.0625 12.75 6.0625 25.921875 
Q 6.0625 37.546875 9.8125 48.1875 
Q 14.203125 60.546875 23.390625 72.796875 
L 29.6875 72.796875 
Q 23.78125 62.640625 21.875 58.296875 
Q 18.890625 51.5625 17.1875 44.234375 
Q 15.09375 35.109375 15.09375 25.875 
Q 15.09375 2.390625 29.6875 -21.046875 
z
" id="ArialMT-28"/>
      <path d="M 6.59375 -19.875 
L 6.59375 51.859375 
L 14.59375 51.859375 
L 14.59375 45.125 
Q 17.4375 49.078125 21 51.046875 
Q 24.5625 53.03125 29.640625 53.03125 
Q 36.28125 53.03125 41.359375 49.609375 
Q 46.4375 46.1875 49.015625 39.953125 
Q 51.609375 33.734375 51.609375 26.3125 
Q 51.609375 18.359375 48.75 11.984375 
Q 45.90625 5.609375 40.453125 2.21875 
Q 35.015625 -1.171875 29 -1.171875 
Q 24.609375 -1.171875 21.109375 0.6875 
Q 17.625 2.546875 15.375 5.375 
L 15.375 -19.875 
z
M 14.546875 25.640625 
Q 14.546875 15.625 18.59375 10.84375 
Q 22.65625 6.0625 28.421875 6.0625 
Q 34.28125 6.0625 38.453125 11.015625 
Q 42.625 15.96875 42.625 26.375 
Q 42.625 36.28125 38.546875 41.203125 
Q 34.46875 46.140625 28.8125 46.140625 
Q 23.1875 46.140625 18.859375 40.890625 
Q 14.546875 35.640625 14.546875 25.640625 
" id="ArialMT-70"/>
      <path d="M 8.203125 0 
L 8.203125 71.578125 
L 56.5 71.578125 
L 56.5 63.140625 
L 17.671875 63.140625 
L 17.671875 40.96875 
L 51.265625 40.96875 
L 51.265625 32.515625 
L 17.671875 32.515625 
L 17.671875 0 
z
" id="ArialMT-46"/>
      <path d="M 12.359375 -21.046875 
L 6.0625 -21.046875 
Q 20.65625 2.390625 20.65625 25.875 
Q 20.65625 35.0625 18.5625 44.09375 
Q 16.890625 51.421875 13.921875 58.15625 
Q 12.015625 62.546875 6.0625 72.796875 
L 12.359375 72.796875 
Q 21.53125 60.546875 25.921875 48.1875 
Q 29.6875 37.546875 29.6875 25.921875 
Q 29.6875 12.75 24.625 0.4375 
Q 19.578125 -11.859375 12.359375 -21.046875 
" id="ArialMT-29"/>
      <path d="M 6.59375 0 
L 6.59375 51.859375 
L 14.453125 51.859375 
L 14.453125 44.578125 
Q 16.890625 48.390625 20.9375 50.703125 
Q 25 53.03125 30.171875 53.03125 
Q 35.9375 53.03125 39.625 50.640625 
Q 43.3125 48.25 44.828125 43.953125 
Q 50.984375 53.03125 60.84375 53.03125 
Q 68.5625 53.03125 72.703125 48.75 
Q 76.859375 44.484375 76.859375 35.59375 
L 76.859375 0 
L 68.109375 0 
L 68.109375 32.671875 
Q 68.109375 37.9375 67.25 40.25 
Q 66.40625 42.578125 64.15625 43.984375 
Q 61.921875 45.40625 58.890625 45.40625 
Q 53.421875 45.40625 49.796875 41.765625 
Q 46.1875 38.140625 46.1875 30.125 
L 46.1875 0 
L 37.40625 0 
L 37.40625 33.6875 
Q 37.40625 39.546875 35.25 42.46875 
Q 33.109375 45.40625 28.21875 45.40625 
Q 24.515625 45.40625 21.359375 43.453125 
Q 18.21875 41.5 16.796875 37.734375 
Q 15.375 33.984375 15.375 26.90625 
L 15.375 0 
z
" id="ArialMT-6d"/>
      <path d="M 4.828125 34.859375 
Q 4.828125 52.6875 14.390625 62.765625 
Q 23.96875 72.859375 39.109375 72.859375 
Q 49.03125 72.859375 56.984375 68.109375 
Q 64.9375 63.375 69.109375 54.90625 
Q 73.296875 46.4375 73.296875 35.6875 
Q 73.296875 24.8125 68.890625 16.21875 
Q 64.5 7.625 56.4375 3.203125 
Q 48.390625 -1.21875 39.0625 -1.21875 
Q 28.953125 -1.21875 20.984375 3.65625 
Q 13.03125 8.546875 8.921875 16.984375 
Q 4.828125 25.4375 4.828125 34.859375 
M 14.59375 34.71875 
Q 14.59375 21.78125 21.546875 14.328125 
Q 28.515625 6.890625 39.015625 6.890625 
Q 49.703125 6.890625 56.609375 14.40625 
Q 63.53125 21.921875 63.53125 35.75 
Q 63.53125 44.484375 60.578125 51 
Q 57.625 57.515625 51.921875 61.109375 
Q 46.234375 64.703125 39.15625 64.703125 
Q 29.109375 64.703125 21.84375 57.78125 
Q 14.59375 50.875 14.59375 34.71875 
" id="ArialMT-4f"/>
      <path id="ArialMT-20"/>
     </defs>
     <g style="fill:#262626;" transform="translate(29.6406875 412.95528125)rotate(-90.0)scale(0.308 -0.308)">
      <use xlink:href="#ArialMT-4f"/>
      <use x="77.783203125" xlink:href="#ArialMT-70"/>
      <use x="133.3984375" xlink:href="#ArialMT-74"/>
      <use x="161.181640625" xlink:href="#ArialMT-69"/>
      <use x="183.3984375" xlink:href="#ArialMT-6d"/>
      <use x="266.69921875" xlink:href="#ArialMT-75"/>
      <use x="322.314453125" xlink:href="#ArialMT-6d"/>
      <use x="405.615234375" xlink:href="#ArialMT-20"/>
      <use x="433.3984375" xlink:href="#ArialMT-53"/>
      <use x="500.09765625" xlink:href="#ArialMT-46"/>
      <use x="561.181640625" xlink:href="#ArialMT-20"/>
      <use x="588.96484375" xlink:href="#ArialMT-28"/>
      <use x="622.265625" xlink:href="#ArialMT-63"/>
      <use x="672.265625" xlink:href="#ArialMT-70"/>
      <use x="727.880859375" xlink:href="#ArialMT-64"/>
      <use x="783.49609375" xlink:href="#ArialMT-29"/>
     </g>
    </g>
   </g>
   <g id="line2d_29">
    <path clip-path="url(#pf369630fd1)" d="M 193.132264 239.304899 
L 331.971115 340.661975 
L 557.584249 458.433125 
" style="fill:none;stroke:#f77189;stroke-linecap:round;stroke-width:2.8;"/>
    <defs>
     <path d="M 0 5.6 
C 1.485137 5.6 2.909647 5.009949 3.959798 3.959798 
C 5.009949 2.909647 5.6 1.485137 5.6 0 
C 5.6 -1.485137 5.009949 -2.909647 3.959798 -3.959798 
C 2.909647 -5.009949 1.485137 -5.6 0 -5.6 
C -1.485137 -5.6 -2.909647 -5.009949 -3.959798 -3.959798 
C -5.009949 -2.909647 -5.6 -1.485137 -5.6 0 
C -5.6 1.485137 -5.009949 2.909647 -3.959798 3.959798 
C -2.909647 5.009949 -1.485137 5.6 0 5.6 
z
" id="m69f18b76be"/>
    </defs>
    <g clip-path="url(#pf369630fd1)">
     <use style="fill:#f77189;" x="193.132263571" xlink:href="#m69f18b76be" y="239.304899451"/>
     <use style="fill:#f77189;" x="331.971115" xlink:href="#m69f18b76be" y="340.661975239"/>
     <use style="fill:#f77189;" x="557.584248571" xlink:href="#m69f18b76be" y="458.433125222"/>
    </g>
   </g>
   <g id="line2d_30">
    <path clip-path="url(#pf369630fd1)" d="M 154.083837 184.100005 
L 262.551689 278.473395 
" style="fill:none;stroke:#ce9032;stroke-linecap:round;stroke-width:2.8;"/>
    <defs>
     <path d="M 0 5.6 
C 1.485137 5.6 2.909647 5.009949 3.959798 3.959798 
C 5.009949 2.909647 5.6 1.485137 5.6 0 
C 5.6 -1.485137 5.009949 -2.909647 3.959798 -3.959798 
C 2.909647 -5.009949 1.485137 -5.6 0 -5.6 
C -1.485137 -5.6 -2.909647 -5.009949 -3.959798 -3.959798 
C -5.009949 -2.909647 -5.6 -1.485137 -5.6 0 
C -5.6 1.485137 -5.009949 2.909647 -3.959798 3.959798 
C -2.909647 5.009949 -1.485137 5.6 0 5.6 
z
" id="m86ba5e92b3"/>
    </defs>
    <g clip-path="url(#pf369630fd1)">
     <use style="fill:#ce9032;" x="154.083836607" xlink:href="#m86ba5e92b3" y="184.100005205"/>
     <use style="fill:#ce9032;" x="262.551689286" xlink:href="#m86ba5e92b3" y="278.473395256"/>
    </g>
   </g>
   <g id="line2d_31">
    <path clip-path="url(#pf369630fd1)" d="M 206.148406 308.854841 
L 336.309829 386.187016 
L 405.729255 439.404254 
L 522.874536 458.433125 
L 956.745946 567.151562 
" style="fill:none;stroke:#97a431;stroke-linecap:round;stroke-width:2.8;"/>
    <defs>
     <path d="M 0 5.6 
C 1.485137 5.6 2.909647 5.009949 3.959798 3.959798 
C 5.009949 2.909647 5.6 1.485137 5.6 0 
C 5.6 -1.485137 5.009949 -2.909647 3.959798 -3.959798 
C 2.909647 -5.009949 1.485137 -5.6 0 -5.6 
C -1.485137 -5.6 -2.909647 -5.009949 -3.959798 -3.959798 
C -5.009949 -2.909647 -5.6 -1.485137 -5.6 0 
C -5.6 1.485137 -5.009949 2.909647 -3.959798 3.959798 
C -2.909647 5.009949 -1.485137 5.6 0 5.6 
z
" id="m2088fbc575"/>
    </defs>
    <g clip-path="url(#pf369630fd1)">
     <use style="fill:#97a431;" x="206.148405893" xlink:href="#m2088fbc575" y="308.854840924"/>
     <use style="fill:#97a431;" x="336.309829107" xlink:href="#m2088fbc575" y="386.187016005"/>
     <use style="fill:#97a431;" x="405.729254821" xlink:href="#m2088fbc575" y="439.404254194"/>
     <use style="fill:#97a431;" x="522.874535714" xlink:href="#m2088fbc575" y="458.433125222"/>
     <use style="fill:#97a431;" x="956.745946429" xlink:href="#m2088fbc575" y="567.1515625"/>
    </g>
   </g>
   <g id="line2d_32">
    <path clip-path="url(#pf369630fd1)" d="M 240.858119 223.268501 
L 349.325971 246.288585 
L 566.261677 257.485469 
" style="fill:none;stroke:#32b166;stroke-linecap:round;stroke-width:2.8;"/>
    <defs>
     <path d="M 0 5.6 
C 1.485137 5.6 2.909647 5.009949 3.959798 3.959798 
C 5.009949 2.909647 5.6 1.485137 5.6 0 
C 5.6 -1.485137 5.009949 -2.909647 3.959798 -3.959798 
C 2.909647 -5.009949 1.485137 -5.6 0 -5.6 
C -1.485137 -5.6 -2.909647 -5.009949 -3.959798 -3.959798 
C -5.009949 -2.909647 -5.6 -1.485137 -5.6 0 
C -5.6 1.485137 -5.009949 2.909647 -3.959798 3.959798 
C -2.909647 5.009949 -1.485137 5.6 0 5.6 
z
" id="m934fd20d77"/>
    </defs>
    <g clip-path="url(#pf369630fd1)">
     <use style="fill:#32b166;" x="240.85811875" xlink:href="#m934fd20d77" y="223.26850101"/>
     <use style="fill:#32b166;" x="349.325971429" xlink:href="#m934fd20d77" y="246.288585188"/>
     <use style="fill:#32b166;" x="566.261676786" xlink:href="#m934fd20d77" y="257.485468533"/>
    </g>
   </g>
   <g id="line2d_33">
    <path clip-path="url(#pf369630fd1)" d="M 258.212975 128.895111 
" style="fill:none;stroke:#36ada4;stroke-linecap:round;stroke-width:2.8;"/>
    <defs>
     <path d="M 0 5.6 
C 1.485137 5.6 2.909647 5.009949 3.959798 3.959798 
C 5.009949 2.909647 5.6 1.485137 5.6 0 
C 5.6 -1.485137 5.009949 -2.909647 3.959798 -3.959798 
C 2.909647 -5.009949 1.485137 -5.6 0 -5.6 
C -1.485137 -5.6 -2.909647 -5.009949 -3.959798 -3.959798 
C -5.009949 -2.909647 -5.6 -1.485137 -5.6 0 
C -5.6 1.485137 -5.009949 2.909647 -3.959798 3.959798 
C -2.909647 5.009949 -1.485137 5.6 0 5.6 
z
" id="m52edae183b"/>
    </defs>
    <g clip-path="url(#pf369630fd1)">
     <use style="fill:#36ada4;" x="258.212975179" xlink:href="#m52edae183b" y="128.895110959"/>
    </g>
   </g>
   <g id="line2d_34">
    <path clip-path="url(#pf369630fd1)" d="M 154.083837 20.176674 
L 197.470978 20.176674 
L 240.858119 144.931509 
L 305.93883 184.100005 
L 436.100254 239.304899 
" style="fill:none;stroke:#39a7d0;stroke-linecap:round;stroke-width:2.8;"/>
    <defs>
     <path d="M 0 5.6 
C 1.485137 5.6 2.909647 5.009949 3.959798 3.959798 
C 5.009949 2.909647 5.6 1.485137 5.6 0 
C 5.6 -1.485137 5.009949 -2.909647 3.959798 -3.959798 
C 2.909647 -5.009949 1.485137 -5.6 0 -5.6 
C -1.485137 -5.6 -2.909647 -5.009949 -3.959798 -3.959798 
C -5.009949 -2.909647 -5.6 -1.485137 -5.6 0 
C -5.6 1.485137 -5.009949 2.909647 -3.959798 3.959798 
C -2.909647 5.009949 -1.485137 5.6 0 5.6 
z
" id="m5defbe44e5"/>
    </defs>
    <g clip-path="url(#pf369630fd1)">
     <use style="fill:#39a7d0;" x="154.083836607" xlink:href="#m5defbe44e5" y="20.1766736803"/>
     <use style="fill:#39a7d0;" x="197.470977679" xlink:href="#m5defbe44e5" y="20.1766736803"/>
     <use style="fill:#39a7d0;" x="240.85811875" xlink:href="#m5defbe44e5" y="144.931509399"/>
     <use style="fill:#39a7d0;" x="305.938830357" xlink:href="#m5defbe44e5" y="184.100005205"/>
     <use style="fill:#39a7d0;" x="436.100253571" xlink:href="#m5defbe44e5" y="239.304899451"/>
    </g>
   </g>
   <g id="line2d_35">
    <path clip-path="url(#pf369630fd1)" d="M 175.777407 195.94678 
L 219.164548 232.015216 
L 262.551689 256.709671 
L 305.93883 281.224035 
L 349.325971 304.39044 
L 392.713112 325.74486 
L 436.100254 351.083061 
L 479.487395 369.263631 
L 522.874536 390.251557 
L 566.261677 403.228231 
" style="fill:none;stroke:#a48cf4;stroke-linecap:round;stroke-width:2.8;"/>
    <defs>
     <path d="M 0 5.6 
C 1.485137 5.6 2.909647 5.009949 3.959798 3.959798 
C 5.009949 2.909647 5.6 1.485137 5.6 0 
C 5.6 -1.485137 5.009949 -2.909647 3.959798 -3.959798 
C 2.909647 -5.009949 1.485137 -5.6 0 -5.6 
C -1.485137 -5.6 -2.909647 -5.009949 -3.959798 -3.959798 
C -5.009949 -2.909647 -5.6 -1.485137 -5.6 0 
C -5.6 1.485137 -5.009949 2.909647 -3.959798 3.959798 
C -2.909647 5.009949 -1.485137 5.6 0 5.6 
z
" id="m78b5c6a9be"/>
    </defs>
    <g clip-path="url(#pf369630fd1)">
     <use style="fill:#a48cf4;" x="175.777407143" xlink:href="#m78b5c6a9be" y="195.946780103"/>
     <use style="fill:#a48cf4;" x="219.164548214" xlink:href="#m78b5c6a9be" y="232.015215784"/>
     <use style="fill:#a48cf4;" x="262.551689286" xlink:href="#m78b5c6a9be" y="256.709671438"/>
     <use style="fill:#a48cf4;" x="305.938830357" xlink:href="#m78b5c6a9be" y="281.224034704"/>
     <use style="fill:#a48cf4;" x="349.325971429" xlink:href="#m78b5c6a9be" y="304.390440251"/>
     <use style="fill:#a48cf4;" x="392.7131125" xlink:href="#m78b5c6a9be" y="325.744859852"/>
     <use style="fill:#a48cf4;" x="436.100253571" xlink:href="#m78b5c6a9be" y="351.08306149"/>
     <use style="fill:#a48cf4;" x="479.487394643" xlink:href="#m78b5c6a9be" y="369.263630572"/>
     <use style="fill:#a48cf4;" x="522.874535714" xlink:href="#m78b5c6a9be" y="390.251557295"/>
     <use style="fill:#a48cf4;" x="566.261676786" xlink:href="#m78b5c6a9be" y="403.228230975"/>
    </g>
   </g>
   <g id="line2d_36">
    <path clip-path="url(#pf369630fd1)" d="M 132.390266 303.296844 
L 175.777407 348.023337 
L 219.164548 372.846785 
L 262.551689 382.240304 
L 305.93883 403.228231 
L 349.325971 428.05168 
L 653.035959 458.433125 
" style="fill:none;stroke:#f561dd;stroke-linecap:round;stroke-width:2.8;"/>
    <defs>
     <path d="M 0 5.6 
C 1.485137 5.6 2.909647 5.009949 3.959798 3.959798 
C 5.009949 2.909647 5.6 1.485137 5.6 0 
C 5.6 -1.485137 5.009949 -2.909647 3.959798 -3.959798 
C 2.909647 -5.009949 1.485137 -5.6 0 -5.6 
C -1.485137 -5.6 -2.909647 -5.009949 -3.959798 -3.959798 
C -5.009949 -2.909647 -5.6 -1.485137 -5.6 0 
C -5.6 1.485137 -5.009949 2.909647 -3.959798 3.959798 
C -2.909647 5.009949 -1.485137 5.6 0 5.6 
z
" id="m90d397df92"/>
    </defs>
    <g clip-path="url(#pf369630fd1)">
     <use style="fill:#f561dd;" x="132.390266071" xlink:href="#m90d397df92" y="303.296843835"/>
     <use style="fill:#f561dd;" x="175.777407143" xlink:href="#m90d397df92" y="348.023336729"/>
     <use style="fill:#f561dd;" x="219.164548214" xlink:href="#m90d397df92" y="372.846785308"/>
     <use style="fill:#f561dd;" x="262.551689286" xlink:href="#m90d397df92" y="382.240304252"/>
     <use style="fill:#f561dd;" x="305.938830357" xlink:href="#m90d397df92" y="403.228230975"/>
     <use style="fill:#f561dd;" x="349.325971429" xlink:href="#m90d397df92" y="428.051679554"/>
     <use style="fill:#f561dd;" x="653.035958929" xlink:href="#m90d397df92" y="458.433125222"/>
    </g>
   </g>
   <g id="patch_3">
    <path d="M 89.003125 567.151562 
L 1000.133087 567.151562 
" style="fill:none;"/>
   </g>
   <g id="patch_4">
    <path d="M 89.003125 567.151562 
L 89.003125 7.2 
" style="fill:none;"/>
   </g>
   <g id="legend_1">
    <g id="line2d_37">
     <path d="M 560.379963 42.983125 
L 616.379963 42.983125 
" style="fill:none;stroke:#f77189;stroke-linecap:round;stroke-width:2.8;"/>
    </g>
    <g id="line2d_38">
     <g>
      <use style="fill:#f77189;" x="588.3799625" xlink:href="#m69f18b76be" y="42.983125"/>
     </g>
    </g>
    <g id="text_14">
     <!-- D'Souza (2016) -->
     <defs>
      <path d="M 40.4375 6.390625 
Q 35.546875 2.25 31.03125 0.53125 
Q 26.515625 -1.171875 21.34375 -1.171875 
Q 12.796875 -1.171875 8.203125 3 
Q 3.609375 7.171875 3.609375 13.671875 
Q 3.609375 17.484375 5.34375 20.625 
Q 7.078125 23.78125 9.890625 25.6875 
Q 12.703125 27.59375 16.21875 28.5625 
Q 18.796875 29.25 24.03125 29.890625 
Q 34.671875 31.15625 39.703125 32.90625 
Q 39.75 34.71875 39.75 35.203125 
Q 39.75 40.578125 37.25 42.78125 
Q 33.890625 45.75 27.25 45.75 
Q 21.046875 45.75 18.09375 43.578125 
Q 15.140625 41.40625 13.71875 35.890625 
L 5.125 37.0625 
Q 6.296875 42.578125 8.984375 45.96875 
Q 11.671875 49.359375 16.75 51.1875 
Q 21.828125 53.03125 28.515625 53.03125 
Q 35.15625 53.03125 39.296875 51.46875 
Q 43.453125 49.90625 45.40625 47.53125 
Q 47.359375 45.171875 48.140625 41.546875 
Q 48.578125 39.3125 48.578125 33.453125 
L 48.578125 21.734375 
Q 48.578125 9.46875 49.140625 6.21875 
Q 49.703125 2.984375 51.375 0 
L 42.1875 0 
Q 40.828125 2.734375 40.4375 6.390625 
M 39.703125 26.03125 
Q 34.90625 24.078125 25.34375 22.703125 
Q 19.921875 21.921875 17.671875 20.9375 
Q 15.4375 19.96875 14.203125 18.09375 
Q 12.984375 16.21875 12.984375 13.921875 
Q 12.984375 10.40625 15.640625 8.0625 
Q 18.3125 5.71875 23.4375 5.71875 
Q 28.515625 5.71875 32.46875 7.9375 
Q 36.421875 10.15625 38.28125 14.015625 
Q 39.703125 17 39.703125 22.796875 
z
" id="ArialMT-61"/>
      <path d="M 7.71875 0 
L 7.71875 71.578125 
L 32.375 71.578125 
Q 40.71875 71.578125 45.125 70.5625 
Q 51.265625 69.140625 55.609375 65.4375 
Q 61.28125 60.640625 64.078125 53.1875 
Q 66.890625 45.75 66.890625 36.1875 
Q 66.890625 28.03125 64.984375 21.734375 
Q 63.09375 15.4375 60.109375 11.296875 
Q 57.125 7.171875 53.578125 4.796875 
Q 50.046875 2.4375 45.046875 1.21875 
Q 40.046875 0 33.546875 0 
z
M 17.1875 8.453125 
L 32.46875 8.453125 
Q 39.546875 8.453125 43.578125 9.765625 
Q 47.609375 11.078125 50 13.484375 
Q 53.375 16.84375 55.25 22.53125 
Q 57.125 28.21875 57.125 36.328125 
Q 57.125 47.5625 53.4375 53.59375 
Q 49.75 59.625 44.484375 61.671875 
Q 40.671875 63.140625 32.234375 63.140625 
L 17.1875 63.140625 
z
" id="ArialMT-44"/>
      <path d="M 3.328125 25.921875 
Q 3.328125 40.328125 11.328125 47.265625 
Q 18.015625 53.03125 27.640625 53.03125 
Q 38.328125 53.03125 45.109375 46.015625 
Q 51.90625 39.015625 51.90625 26.65625 
Q 51.90625 16.65625 48.90625 10.90625 
Q 45.90625 5.171875 40.15625 2 
Q 34.421875 -1.171875 27.640625 -1.171875 
Q 16.75 -1.171875 10.03125 5.8125 
Q 3.328125 12.796875 3.328125 25.921875 
M 12.359375 25.921875 
Q 12.359375 15.96875 16.703125 11.015625 
Q 21.046875 6.0625 27.640625 6.0625 
Q 34.1875 6.0625 38.53125 11.03125 
Q 42.875 16.015625 42.875 26.21875 
Q 42.875 35.84375 38.5 40.796875 
Q 34.125 45.75 27.640625 45.75 
Q 21.046875 45.75 16.703125 40.8125 
Q 12.359375 35.890625 12.359375 25.921875 
" id="ArialMT-6f"/>
      <path d="M 6.640625 46.234375 
L 4.390625 59.625 
L 4.390625 71.578125 
L 14.40625 71.578125 
L 14.40625 59.625 
L 12.0625 46.234375 
z
" id="ArialMT-27"/>
      <path d="M 1.953125 0 
L 1.953125 7.125 
L 34.96875 45.015625 
Q 29.34375 44.734375 25.046875 44.734375 
L 3.90625 44.734375 
L 3.90625 51.859375 
L 46.296875 51.859375 
L 46.296875 46.046875 
L 18.21875 13.140625 
L 12.796875 7.125 
Q 18.703125 7.5625 23.875 7.5625 
L 47.859375 7.5625 
L 47.859375 0 
z
" id="ArialMT-7a"/>
      <path d="M 49.75 54.046875 
L 41.015625 53.375 
Q 39.84375 58.546875 37.703125 60.890625 
Q 34.125 64.65625 28.90625 64.65625 
Q 24.703125 64.65625 21.53125 62.3125 
Q 17.390625 59.28125 14.984375 53.46875 
Q 12.59375 47.65625 12.5 36.921875 
Q 15.671875 41.75 20.265625 44.09375 
Q 24.859375 46.4375 29.890625 46.4375 
Q 38.671875 46.4375 44.84375 39.96875 
Q 51.03125 33.5 51.03125 23.25 
Q 51.03125 16.5 48.125 10.71875 
Q 45.21875 4.9375 40.140625 1.859375 
Q 35.0625 -1.21875 28.609375 -1.21875 
Q 17.625 -1.21875 10.6875 6.859375 
Q 3.765625 14.9375 3.765625 33.5 
Q 3.765625 54.25 11.421875 63.671875 
Q 18.109375 71.875 29.4375 71.875 
Q 37.890625 71.875 43.28125 67.140625 
Q 48.6875 62.40625 49.75 54.046875 
M 13.875 23.1875 
Q 13.875 18.65625 15.796875 14.5 
Q 17.71875 10.359375 21.1875 8.171875 
Q 24.65625 6 28.46875 6 
Q 34.03125 6 38.03125 10.484375 
Q 42.046875 14.984375 42.046875 22.703125 
Q 42.046875 30.125 38.078125 34.390625 
Q 34.125 38.671875 28.125 38.671875 
Q 22.171875 38.671875 18.015625 34.390625 
Q 13.875 30.125 13.875 23.1875 
" id="ArialMT-36"/>
     </defs>
     <g style="fill:#262626;" transform="translate(638.7799625 52.783125)scale(0.28 -0.28)">
      <use xlink:href="#ArialMT-44"/>
      <use x="72.216796875" xlink:href="#ArialMT-27"/>
      <use x="91.30859375" xlink:href="#ArialMT-53"/>
      <use x="158.0078125" xlink:href="#ArialMT-6f"/>
      <use x="213.623046875" xlink:href="#ArialMT-75"/>
      <use x="269.23828125" xlink:href="#ArialMT-7a"/>
      <use x="319.23828125" xlink:href="#ArialMT-61"/>
      <use x="374.853515625" xlink:href="#ArialMT-20"/>
      <use x="402.63671875" xlink:href="#ArialMT-28"/>
      <use x="435.9375" xlink:href="#ArialMT-32"/>
      <use x="491.552734375" xlink:href="#ArialMT-30"/>
      <use x="547.16796875" xlink:href="#ArialMT-31"/>
      <use x="602.783203125" xlink:href="#ArialMT-36"/>
      <use x="658.3984375" xlink:href="#ArialMT-29"/>
     </g>
    </g>
    <g id="line2d_39">
     <path d="M 560.379963 83.259375 
L 616.379963 83.259375 
" style="fill:none;stroke:#ce9032;stroke-linecap:round;stroke-width:2.8;"/>
    </g>
    <g id="line2d_40">
     <g>
      <use style="fill:#ce9032;" x="588.3799625" xlink:href="#m86ba5e92b3" y="83.259375"/>
     </g>
    </g>
    <g id="text_15">
     <!-- Farivar (2017) -->
     <defs>
      <path d="M 21 0 
L 1.265625 51.859375 
L 10.546875 51.859375 
L 21.6875 20.796875 
Q 23.484375 15.765625 25 10.359375 
Q 26.171875 14.453125 28.265625 20.21875 
L 39.796875 51.859375 
L 48.828125 51.859375 
L 29.203125 0 
z
" id="ArialMT-76"/>
      <path d="M 4.734375 62.203125 
L 4.734375 70.65625 
L 51.078125 70.65625 
L 51.078125 63.8125 
Q 44.234375 56.546875 37.515625 44.484375 
Q 30.8125 32.421875 27.15625 19.671875 
Q 24.515625 10.6875 23.78125 0 
L 14.75 0 
Q 14.890625 8.453125 18.0625 20.40625 
Q 21.234375 32.375 27.171875 43.484375 
Q 33.109375 54.59375 39.796875 62.203125 
z
" id="ArialMT-37"/>
     </defs>
     <g style="fill:#262626;" transform="translate(638.7799625 93.059375)scale(0.28 -0.28)">
      <use xlink:href="#ArialMT-46"/>
      <use x="61.083984375" xlink:href="#ArialMT-61"/>
      <use x="116.69921875" xlink:href="#ArialMT-72"/>
      <use x="150.0" xlink:href="#ArialMT-69"/>
      <use x="172.216796875" xlink:href="#ArialMT-76"/>
      <use x="222.216796875" xlink:href="#ArialMT-61"/>
      <use x="277.83203125" xlink:href="#ArialMT-72"/>
      <use x="311.1328125" xlink:href="#ArialMT-20"/>
      <use x="338.916015625" xlink:href="#ArialMT-28"/>
      <use x="372.216796875" xlink:href="#ArialMT-32"/>
      <use x="427.83203125" xlink:href="#ArialMT-30"/>
      <use x="483.447265625" xlink:href="#ArialMT-31"/>
      <use x="539.0625" xlink:href="#ArialMT-37"/>
      <use x="594.677734375" xlink:href="#ArialMT-29"/>
     </g>
    </g>
    <g id="line2d_41">
     <path d="M 560.379963 123.535625 
L 616.379963 123.535625 
" style="fill:none;stroke:#97a431;stroke-linecap:round;stroke-width:2.8;"/>
    </g>
    <g id="line2d_42">
     <g>
      <use style="fill:#97a431;" x="588.3799625" xlink:href="#m2088fbc575" y="123.535625"/>
     </g>
    </g>
    <g id="text_16">
     <!-- Henriksson (2008) -->
     <defs>
      <path d="M 17.671875 38.8125 
Q 12.203125 40.828125 9.5625 44.53125 
Q 6.9375 48.25 6.9375 53.421875 
Q 6.9375 61.234375 12.546875 66.546875 
Q 18.171875 71.875 27.484375 71.875 
Q 36.859375 71.875 42.578125 66.421875 
Q 48.296875 60.984375 48.296875 53.171875 
Q 48.296875 48.1875 45.671875 44.5 
Q 43.0625 40.828125 37.75 38.8125 
Q 44.34375 36.671875 47.78125 31.875 
Q 51.21875 27.09375 51.21875 20.453125 
Q 51.21875 11.28125 44.71875 5.03125 
Q 38.234375 -1.21875 27.640625 -1.21875 
Q 17.046875 -1.21875 10.546875 5.046875 
Q 4.046875 11.328125 4.046875 20.703125 
Q 4.046875 27.6875 7.59375 32.390625 
Q 11.140625 37.109375 17.671875 38.8125 
M 15.921875 53.71875 
Q 15.921875 48.640625 19.1875 45.40625 
Q 22.46875 42.1875 27.6875 42.1875 
Q 32.765625 42.1875 36.015625 45.375 
Q 39.265625 48.578125 39.265625 53.21875 
Q 39.265625 58.0625 35.90625 61.359375 
Q 32.5625 64.65625 27.59375 64.65625 
Q 22.5625 64.65625 19.234375 61.421875 
Q 15.921875 58.203125 15.921875 53.71875 
M 13.09375 20.65625 
Q 13.09375 16.890625 14.875 13.375 
Q 16.65625 9.859375 20.171875 7.921875 
Q 23.6875 6 27.734375 6 
Q 34.03125 6 38.125 10.046875 
Q 42.234375 14.109375 42.234375 20.359375 
Q 42.234375 26.703125 38.015625 30.859375 
Q 33.796875 35.015625 27.4375 35.015625 
Q 21.234375 35.015625 17.15625 30.90625 
Q 13.09375 26.8125 13.09375 20.65625 
" id="ArialMT-38"/>
      <path d="M 8.015625 0 
L 8.015625 71.578125 
L 17.484375 71.578125 
L 17.484375 42.1875 
L 54.6875 42.1875 
L 54.6875 71.578125 
L 64.15625 71.578125 
L 64.15625 0 
L 54.6875 0 
L 54.6875 33.734375 
L 17.484375 33.734375 
L 17.484375 0 
z
" id="ArialMT-48"/>
      <path d="M 3.078125 15.484375 
L 11.765625 16.84375 
Q 12.5 11.625 15.84375 8.84375 
Q 19.1875 6.0625 25.203125 6.0625 
Q 31.25 6.0625 34.171875 8.515625 
Q 37.109375 10.984375 37.109375 14.3125 
Q 37.109375 17.28125 34.515625 19 
Q 32.71875 20.171875 25.53125 21.96875 
Q 15.875 24.421875 12.140625 26.203125 
Q 8.40625 27.984375 6.46875 31.125 
Q 4.546875 34.28125 4.546875 38.09375 
Q 4.546875 41.546875 6.125 44.5 
Q 7.71875 47.46875 10.453125 49.421875 
Q 12.5 50.921875 16.03125 51.96875 
Q 19.578125 53.03125 23.640625 53.03125 
Q 29.734375 53.03125 34.34375 51.265625 
Q 38.96875 49.515625 41.15625 46.5 
Q 43.359375 43.5 44.1875 38.484375 
L 35.59375 37.3125 
Q 35.015625 41.3125 32.203125 43.546875 
Q 29.390625 45.796875 24.265625 45.796875 
Q 18.21875 45.796875 15.625 43.796875 
Q 13.03125 41.796875 13.03125 39.109375 
Q 13.03125 37.40625 14.109375 36.03125 
Q 15.1875 34.625 17.484375 33.6875 
Q 18.796875 33.203125 25.25 31.453125 
Q 34.578125 28.953125 38.25 27.359375 
Q 41.9375 25.78125 44.03125 22.75 
Q 46.140625 19.734375 46.140625 15.234375 
Q 46.140625 10.84375 43.578125 6.953125 
Q 41.015625 3.078125 36.171875 0.953125 
Q 31.34375 -1.171875 25.25 -1.171875 
Q 15.140625 -1.171875 9.84375 3.03125 
Q 4.546875 7.234375 3.078125 15.484375 
" id="ArialMT-73"/>
      <path d="M 6.640625 0 
L 6.640625 71.578125 
L 15.4375 71.578125 
L 15.4375 30.765625 
L 36.234375 51.859375 
L 47.609375 51.859375 
L 27.78125 32.625 
L 49.609375 0 
L 38.765625 0 
L 21.625 26.515625 
L 15.4375 20.5625 
L 15.4375 0 
z
" id="ArialMT-6b"/>
     </defs>
     <g style="fill:#262626;" transform="translate(638.7799625 133.335625)scale(0.28 -0.28)">
      <use xlink:href="#ArialMT-48"/>
      <use x="72.216796875" xlink:href="#ArialMT-65"/>
      <use x="127.83203125" xlink:href="#ArialMT-6e"/>
      <use x="183.447265625" xlink:href="#ArialMT-72"/>
      <use x="216.748046875" xlink:href="#ArialMT-69"/>
      <use x="238.96484375" xlink:href="#ArialMT-6b"/>
      <use x="288.96484375" xlink:href="#ArialMT-73"/>
      <use x="338.96484375" xlink:href="#ArialMT-73"/>
      <use x="388.96484375" xlink:href="#ArialMT-6f"/>
      <use x="444.580078125" xlink:href="#ArialMT-6e"/>
      <use x="500.1953125" xlink:href="#ArialMT-20"/>
      <use x="527.978515625" xlink:href="#ArialMT-28"/>
      <use x="561.279296875" xlink:href="#ArialMT-32"/>
      <use x="616.89453125" xlink:href="#ArialMT-30"/>
      <use x="672.509765625" xlink:href="#ArialMT-30"/>
      <use x="728.125" xlink:href="#ArialMT-38"/>
      <use x="783.740234375" xlink:href="#ArialMT-29"/>
     </g>
    </g>
    <g id="line2d_43">
     <path d="M 560.379963 163.811875 
L 616.379963 163.811875 
" style="fill:none;stroke:#32b166;stroke-linecap:round;stroke-width:2.8;"/>
    </g>
    <g id="line2d_44">
     <g>
      <use style="fill:#32b166;" x="588.3799625" xlink:href="#m934fd20d77" y="163.811875"/>
     </g>
    </g>
    <g id="text_17">
     <!-- Hess (dominant eye, 2009) -->
     <defs>
      <path d="M 5.46875 16.546875 
L 13.921875 17.328125 
Q 14.984375 11.375 18.015625 8.6875 
Q 21.046875 6 25.78125 6 
Q 29.828125 6 32.875 7.859375 
Q 35.9375 9.71875 37.890625 12.8125 
Q 39.84375 15.921875 41.15625 21.1875 
Q 42.484375 26.46875 42.484375 31.9375 
Q 42.484375 32.515625 42.4375 33.6875 
Q 39.796875 29.5 35.234375 26.875 
Q 30.671875 24.265625 25.34375 24.265625 
Q 16.453125 24.265625 10.296875 30.703125 
Q 4.15625 37.15625 4.15625 47.703125 
Q 4.15625 58.59375 10.578125 65.234375 
Q 17 71.875 26.65625 71.875 
Q 33.640625 71.875 39.421875 68.109375 
Q 45.21875 64.359375 48.21875 57.390625 
Q 51.21875 50.4375 51.21875 37.25 
Q 51.21875 23.53125 48.234375 15.40625 
Q 45.265625 7.28125 39.375 3.03125 
Q 33.5 -1.21875 25.59375 -1.21875 
Q 17.1875 -1.21875 11.859375 3.4375 
Q 6.546875 8.109375 5.46875 16.546875 
M 41.453125 48.140625 
Q 41.453125 55.71875 37.421875 60.15625 
Q 33.40625 64.59375 27.734375 64.59375 
Q 21.875 64.59375 17.53125 59.8125 
Q 13.1875 55.03125 13.1875 47.40625 
Q 13.1875 40.578125 17.3125 36.296875 
Q 21.4375 32.03125 27.484375 32.03125 
Q 33.59375 32.03125 37.515625 36.296875 
Q 41.453125 40.578125 41.453125 48.140625 
" id="ArialMT-39"/>
      <path d="M 8.890625 0 
L 8.890625 10.015625 
L 18.890625 10.015625 
L 18.890625 0 
Q 18.890625 -5.515625 16.9375 -8.90625 
Q 14.984375 -12.3125 10.75 -14.15625 
L 8.296875 -10.40625 
Q 11.078125 -9.1875 12.390625 -6.8125 
Q 13.71875 -4.4375 13.875 0 
z
" id="ArialMT-2c"/>
     </defs>
     <g style="fill:#262626;" transform="translate(638.7799625 173.611875)scale(0.28 -0.28)">
      <use xlink:href="#ArialMT-48"/>
      <use x="72.216796875" xlink:href="#ArialMT-65"/>
      <use x="127.83203125" xlink:href="#ArialMT-73"/>
      <use x="177.83203125" xlink:href="#ArialMT-73"/>
      <use x="227.83203125" xlink:href="#ArialMT-20"/>
      <use x="255.615234375" xlink:href="#ArialMT-28"/>
      <use x="288.916015625" xlink:href="#ArialMT-64"/>
      <use x="344.53125" xlink:href="#ArialMT-6f"/>
      <use x="400.146484375" xlink:href="#ArialMT-6d"/>
      <use x="483.447265625" xlink:href="#ArialMT-69"/>
      <use x="505.6640625" xlink:href="#ArialMT-6e"/>
      <use x="561.279296875" xlink:href="#ArialMT-61"/>
      <use x="616.89453125" xlink:href="#ArialMT-6e"/>
      <use x="672.509765625" xlink:href="#ArialMT-74"/>
      <use x="700.29296875" xlink:href="#ArialMT-20"/>
      <use x="728.076171875" xlink:href="#ArialMT-65"/>
      <use x="783.69140625" xlink:href="#ArialMT-79"/>
      <use x="833.69140625" xlink:href="#ArialMT-65"/>
      <use x="889.306640625" xlink:href="#ArialMT-2c"/>
      <use x="917.08984375" xlink:href="#ArialMT-20"/>
      <use x="944.873046875" xlink:href="#ArialMT-32"/>
      <use x="1000.48828125" xlink:href="#ArialMT-30"/>
      <use x="1056.10351562" xlink:href="#ArialMT-30"/>
      <use x="1111.71875" xlink:href="#ArialMT-39"/>
      <use x="1167.33398438" xlink:href="#ArialMT-29"/>
     </g>
    </g>
    <g id="line2d_45">
     <path d="M 560.379963 204.088125 
L 616.379963 204.088125 
" style="fill:none;stroke:#36ada4;stroke-linecap:round;stroke-width:2.8;"/>
    </g>
    <g id="line2d_46">
     <g>
      <use style="fill:#36ada4;" x="588.3799625" xlink:href="#m52edae183b" y="204.088125"/>
     </g>
    </g>
    <g id="text_18">
     <!-- Kay (2008) -->
     <defs>
      <path d="M 7.328125 0 
L 7.328125 71.578125 
L 16.796875 71.578125 
L 16.796875 36.078125 
L 52.34375 71.578125 
L 65.1875 71.578125 
L 35.15625 42.578125 
L 66.5 0 
L 54 0 
L 28.515625 36.234375 
L 16.796875 24.8125 
L 16.796875 0 
z
" id="ArialMT-4b"/>
     </defs>
     <g style="fill:#262626;" transform="translate(638.7799625 213.888125)scale(0.28 -0.28)">
      <use xlink:href="#ArialMT-4b"/>
      <use x="66.69921875" xlink:href="#ArialMT-61"/>
      <use x="122.314453125" xlink:href="#ArialMT-79"/>
      <use x="172.314453125" xlink:href="#ArialMT-20"/>
      <use x="200.09765625" xlink:href="#ArialMT-28"/>
      <use x="233.3984375" xlink:href="#ArialMT-32"/>
      <use x="289.013671875" xlink:href="#ArialMT-30"/>
      <use x="344.62890625" xlink:href="#ArialMT-30"/>
      <use x="400.244140625" xlink:href="#ArialMT-38"/>
      <use x="455.859375" xlink:href="#ArialMT-29"/>
     </g>
    </g>
    <g id="line2d_47">
     <path d="M 560.379963 244.364375 
L 616.379963 244.364375 
" style="fill:none;stroke:#39a7d0;stroke-linecap:round;stroke-width:2.8;"/>
    </g>
    <g id="line2d_48">
     <g>
      <use style="fill:#39a7d0;" x="588.3799625" xlink:href="#m5defbe44e5" y="244.364375"/>
     </g>
    </g>
    <g id="text_19">
     <!-- Kay (2011) -->
     <g style="fill:#262626;" transform="translate(638.7799625 254.164375)scale(0.28 -0.28)">
      <use xlink:href="#ArialMT-4b"/>
      <use x="66.69921875" xlink:href="#ArialMT-61"/>
      <use x="122.314453125" xlink:href="#ArialMT-79"/>
      <use x="172.314453125" xlink:href="#ArialMT-20"/>
      <use x="200.09765625" xlink:href="#ArialMT-28"/>
      <use x="233.3984375" xlink:href="#ArialMT-32"/>
      <use x="289.013671875" xlink:href="#ArialMT-30"/>
      <use x="344.62890625" xlink:href="#ArialMT-31"/>
      <use x="400.134765625" xlink:href="#ArialMT-31"/>
      <use x="455.75" xlink:href="#ArialMT-29"/>
     </g>
    </g>
    <g id="line2d_49">
     <path d="M 560.379963 284.658125 
L 616.379963 284.658125 
" style="fill:none;stroke:#a48cf4;stroke-linecap:round;stroke-width:2.8;"/>
    </g>
    <g id="line2d_50">
     <g>
      <use style="fill:#a48cf4;" x="588.3799625" xlink:href="#m78b5c6a9be" y="284.658125"/>
     </g>
    </g>
    <g id="text_20">
     <!-- Olsson (pilot) -->
     <defs>
      <path d="M 6.390625 0 
L 6.390625 71.578125 
L 15.1875 71.578125 
L 15.1875 0 
z
" id="ArialMT-6c"/>
     </defs>
     <g style="fill:#262626;" transform="translate(638.7799625 294.458125)scale(0.28 -0.28)">
      <use xlink:href="#ArialMT-4f"/>
      <use x="77.783203125" xlink:href="#ArialMT-6c"/>
      <use x="100.0" xlink:href="#ArialMT-73"/>
      <use x="150.0" xlink:href="#ArialMT-73"/>
      <use x="200.0" xlink:href="#ArialMT-6f"/>
      <use x="255.615234375" xlink:href="#ArialMT-6e"/>
      <use x="311.23046875" xlink:href="#ArialMT-20"/>
      <use x="339.013671875" xlink:href="#ArialMT-28"/>
      <use x="372.314453125" xlink:href="#ArialMT-70"/>
      <use x="427.9296875" xlink:href="#ArialMT-69"/>
      <use x="450.146484375" xlink:href="#ArialMT-6c"/>
      <use x="472.36328125" xlink:href="#ArialMT-6f"/>
      <use x="527.978515625" xlink:href="#ArialMT-74"/>
      <use x="555.76171875" xlink:href="#ArialMT-29"/>
     </g>
    </g>
    <g id="line2d_51">
     <path d="M 560.379963 324.934375 
L 616.379963 324.934375 
" style="fill:none;stroke:#f561dd;stroke-linecap:round;stroke-width:2.8;"/>
    </g>
    <g id="line2d_52">
     <g>
      <use style="fill:#f561dd;" x="588.3799625" xlink:href="#m90d397df92" y="324.934375"/>
     </g>
    </g>
    <g id="text_21">
     <!-- Sasaki (2001) -->
     <g style="fill:#262626;" transform="translate(638.7799625 334.734375)scale(0.28 -0.28)">
      <use xlink:href="#ArialMT-53"/>
      <use x="66.69921875" xlink:href="#ArialMT-61"/>
      <use x="122.314453125" xlink:href="#ArialMT-73"/>
      <use x="172.314453125" xlink:href="#ArialMT-61"/>
      <use x="227.9296875" xlink:href="#ArialMT-6b"/>
      <use x="277.9296875" xlink:href="#ArialMT-69"/>
      <use x="300.146484375" xlink:href="#ArialMT-20"/>
      <use x="327.9296875" xlink:href="#ArialMT-28"/>
      <use x="361.23046875" xlink:href="#ArialMT-32"/>
      <use x="416.845703125" xlink:href="#ArialMT-30"/>
      <use x="472.4609375" xlink:href="#ArialMT-30"/>
      <use x="528.076171875" xlink:href="#ArialMT-31"/>
      <use x="583.69140625" xlink:href="#ArialMT-29"/>
     </g>
    </g>
   </g>
  </g>
 </g>
 <defs>
  <clipPath id="pf369630fd1">
   <rect height="559.9515625" width="911.1299625" x="89.003125" y="7.2"/>
  </clipPath>
 </defs>
</svg>
